<?xml version="1.0" encoding="UTF-8"?>
<svg id="Layer_2" xmlns="http://www.w3.org/2000/svg" version="1.1" viewBox="0 0 564.4 929.8">
  <!-- Generator: Adobe Illustrator 29.2.0, SVG Export Plug-In . SVG Version: 2.1.0 Build 108)  -->
  <defs>
    <style>
      .st0 {
        fill: #fabc15;
      }

      .st1 {
        fill: #a84d21;
      }

      .st2 {
        fill: #36587c;
      }

      .st3 {
        fill: #2584a0;
      }

      .st4 {
        fill: #8cd4c6;
      }

      .st5 {
        fill: #8d2049;
      }

      .st6 {
        fill: #fc6465;
      }

      .st7 {
        fill: #2f170a;
      }

      .st8 {
        fill: #492512;
      }

      .st9 {
        fill: #a84e21;
      }

      .st10 {
        fill: #f4e4e0;
      }

      .st11 {
        fill: #7e381a;
      }

      .st12 {
        fill: #9a1e16;
      }

      .st13 {
        fill: #2e4965;
      }

      .st14 {
        fill: #f5c457;
      }
    </style>
  </defs>
  <g id="OBJECTS">
    <path class="st8" d="M44,168.5c-.5,5.7,2.2,4.8,6,6.6,1,.5,1.9,2.1,2.7,2.3,2.3.4,2.8-4.4,5.2-4,5.8,5.9,15.5,26.7,20.4,35.1-6.9.9-1.5,4.6,1.2,6.6.7.5,2.2,2.7,2.9.8,2.8,4.8,6.1,9.8,9,14.7-13-.4-21.8,13.2-14.5,24.7.8,1.2,4.7,4.3,3.9,5.4-25.3,10.2-15,33.1,7,39,2.3.6,14.7,2.9,16.1,2.5,1.6-.4,2-2.7.6-3.6-1.1-.7-7.7-1-9.8-1.6-9.7-2.4-25.5-8.8-23.5-21.2.9-5.8,10.8-12.8,16.4-11.7,1.9.4,4.3,2.4,6.8,3.1,5.8,1.6,12.3,2.1,15-4,13,22.4,26.8,45,39.9,67.6l-9.3,3.2c-1.3-.3-1.8-9.9-7.8-11.8-10.2-3.3-5.3,13.7,2.4,14.4-7.3,19.7-30.2,3.6-26.7-13.3.5-2.3,3.3-4.6,3.1-6.7-.4-4.9-5.2.7-6.2,2.8-7.2,14.7,9.3,35.1,25.3,29.4,6.7-2.4,7.5-9.8,8.6-10.5,1.4-.9,9.9-.6,12.1-4.2,4.8,8.2,10.4,16.6,15.3,25,1.1,1.9,2.6,3.6,2.6,5.9-11.3-4.8-32.5-1.8-28.1,14.7,1.1,4.2,4.5,6.3,7.2,8.9.6.6.9,1.3.5,1.7-.6.6-9.2,1.4-13,5.3-14.8,15.3,19.2,41.9,30.1,30.2,1.4-1.5,3.8-6.8,1.7-8.2-3.9-2.7-3.3,2.5-4.6,4.5-4.6,7.2-19.1-3.5-22.7-8.2-10.2-13.2,1.9-20.1,14.6-19.5,2.5.1,10.9,3.4,11.8.4,1.2-3.6-7.2-3.6-9.8-4.8-5.8-2.7-16.6-13.2-9.7-19.6s18.6-1.1,26,1.2c11.3,17.6,22.5,36.5,32.7,54.9,1.4,2.5,4.9,7.7,3.9,10.3-6-2.7-10.8-2.7-16.2-7.8-1.2-1.2-4.9-7.2-6.2-6.8-7.5,13-18.1,23.2-30.6,31.4-.3,1.1,3.4,3.9,4.2,5.5,3.7,7.1.2,13.1-7.8,12.8-.8,0-3.4-.5-2.9-2,1-2.1,8.5-.3,9-4.9.2-2.3-3.4-7.8-5.5-8.4-2.6-.8-8.4,2.6-11.6,3.5-14.7,4.1-35.6,2.2-42.4-13.8-.6-1.5-1.4-6.7-1.6-7-2.6-2.7-.8,4.1-.8,4.5,0,1.6-.8,5.3-2.9,5.3-4.3,0-2-9.8-3.3-10.7-2.4-1.7-10-1.9-13-1.6-1.6.1-7.4,2-7.7,1.7-.7-.7.2-2.4,1.3-3.2,3-2.1,11.5-2,15.2-1.5,2.7.4,8.8,4.5,10.3,2.1.3-.5.8-9.4,1.2-11.5,2.6-14,8.4-27.1,12.8-40.6-13.7,8.5-32.6,17.2-48.8,11.8-3.9-1.3-9.6-6.9-11.8-7-.9,0-7.2.8-8,1.1-1.2.4-7,5.9-9.8,7.3-8.1,4-20,6.2-27.8.7-2.7-1.9-7.5-8.5-1.8-6.5.8.3.9,1.8,1.8,2.5,10.6,8.1,23.7,3.3,33-4.5-5.1-2.4-8.7-8.9-5.2-14.2,3.3-5,9.5-.8,11.1,3.4,1.6,4.2-1.4,8.9,3.5,7.9,3.9-.8-.1-5.8-1-8.8-6.6-23.1,4.7-41.1,16.1-60.1l-27.3,4.5c-48,4.9-35.3-41.3-14.7-65.2,10.3-11.9,26.1-25,42.8-23.6-1.7-2.2-4.7-3.1-6.9-4.9-14.5-12.1-14.3-27.3-7-43.6-4.3-5.3-4.8-10.7-13-8.1-3,.9-6,5.9-5.7,8.9.5,5.1,6.1,4.7,7.3,8.6-13.5.4-14.1-17.1-1.5-20.6,4.7-1.3,6.2,1.4,5.6-4.6h2.4ZM51.3,181.5c1-1-3.4-5-4.9-4.5.5.8,3.7,5.7,4.9,4.5ZM78.7,346.2c-5.3,1.4,4.6,7.1,5.6,8.1,4.3,4,9.8,15.3,5.8,20.5-3.1,4-9.4,1.9-10.7-2.5-.5-1.5-.3-11.9-4.3-6.1-4.6,6.5,7.4,21,17.4,12.6,5.8-4.9,2.9-15.2-.3-20.9-1.8-3.1-9.6-12.7-13.5-11.6h0ZM36.3,375.6c-3.3,1.9-2.7,6.6-.1,8.9,6.3,5.8,6-7.7.1-8.9Z"/>
    <path class="st9" d="M105.1,152.2c20.7,29.3,42.5,58.3,64,87.1,2,2.7,5.7,8.5,8.5,9.9l15.9,23.6c14.3,16.7,27.1,34.6,40.3,52.2,5.1,6.9,9.8,14.3,15.1,21.1,1.6,2.1,7.5,10.2,9.3,10.7-.4,7.6.5,15.7,0,23.3-.1,2.3-.5,7.4-.9,9.3-.8,4.2-4.6,14.2-6.4,18.5-6.6,15.9-18.9,31.3-35.2,37.8-.3-2.6-4-7.9-6.5-9,1-2.7-2.5-7.8-3.9-10.3-10.2-18.4-21.4-37.3-32.7-54.9-1.1-1.8-1.9-5.6-4.1-6.5,0-2.3-1.6-4.1-2.6-5.9-4.9-8.5-10.5-16.8-15.3-25-.5-.9-.9-2-1.6-3.3-13.1-22.6-26.9-45.3-39.9-67.6-.5-.9-.5-2-.8-2.5-5.1-8.7-10.5-17.5-15.5-26.1-.5-.9-.8-2.7-1.6-4.1-2.9-4.9-6.2-9.9-9-14.7-1.4-2.4-2.7-4.9-4.1-7.3-4.9-8.4-14.6-29.2-20.4-35.1-1.8-1.8-7.3-4.4-9.8-4.9,6.9-.8,10.1-7.3,9-13.9,12.1,1.5,19-1.8,17.8-15-.2-2.2-2.5-6-.7-7.4,6.9-5.5,8,5.4,13.8,4.5,1.2-4.4-3-5-3.3-8.5,4.2-1.4,10.7-6.1,2.5-6.6-6.7,3.5-28.8,13.6-30.1,0-.6-6.5,8.3-13,13.3-16,3.5-2,11.3-3.9,13.2-5.5,1.3-1.1,1.4-2,.4-3.3,7.4-1.1,12.7-4,19.6,1.2,11,8.5,8,22.4.3,32.1-1.6,2.1-7.5,6.8-7.7,8.7-.2,2.4,7.2,10.9,9,13.4h0Z"/>
    <path class="st2" d="M269.6,545c15,2,29,2.2,44,.8,5.5-.5,10.8-1.5,16.3-2.5,7,3.1,10.7-5.1,16.1,3,12.9,29,25.9,57.9,38.5,87,.6,1.5,2.3,2.8,2.4,2.9.2.4.7,4.5.5,4.9-1.5,2.4-28.1,12.5-32.6,13.9-6.5,2-17,5.4-23.2,6.5-53.3,9.5-116.4,1-150.7-44.8-.1-.2.1-1.6-.4-2.4-3.4-4.8-5.6-5.7-6.1-11.5l51.3-54.6c0,4.6.6,8.8,6.1,9.7,12.6,2,11.8-9.5,13.4-17.9,8.2,1.8,16.1,3.8,24.4,4.9h0ZM192.2,616.8c1.2-1.2-4.6-7.2-5.7-7.8-1.1-.6-2.3,0-2.4.8-.2,1.2,6.7,8.3,8.1,6.9ZM205.9,625.9c-.3-.4-7.1-5-7.9-4.2-.5,3.6,11,9.5,7.9,4.2ZM221.5,638.8c1.5-1.3-7.6-7.8-8.9-6.5-2.1,2.1,8,7.4,8.9,6.5ZM379.6,638c-1.7-1.3-11.5,3.3-9.8,4.9,3-.1,9.1-1.2,9.8-4.9ZM229.3,641.2l-1.2,2c1.2,1,9.1,6.2,9.8,3.3.2-1.9-8-5.4-8.5-5.3h0ZM362.5,644.5c-.7-.7-6.3,1.4-7.5,1.9-.9.4-2.9.3-2.2,1.8.8,1.9,8.1-.6,9.2-1.2.9-.5.8-2.2.5-2.5h0ZM254.1,651c-.3-.4-9.3-3.3-9.8-1.2-.5,2.2,8.2,3.6,9.8,3.7-.1-.7.2-2.2,0-2.4h0ZM344.5,649.4c-.3-.3-7.7,1.2-8.4,1.6-.9.5-.8,2.2-.5,2.5.6.7,11.7-1.2,9-4.1h0ZM263.1,655.9c.3.4,9.3,2.4,9.8.4.5-2.2-6.8-2.8-8.5-2.8-1.9-.1-1.5,2.1-1.2,2.4h0ZM327.4,653.5c-2.7.4-6.8-.6-9.2.1-1.4.4-1.8,2.7-1.4,3.1.6.6,13.2-1,10.6-3.2h0ZM290.8,655.9c-1.9.9-11.3-2.2-10.6,1.2,1.9,1.8,10.6,2.6,10.6-1.2ZM308.7,655.1c-.7-.7-13,0-9.8,3.2.3.3,7.5.2,8.4-.1,1.3-.4,1.9-2.6,1.4-3.1Z"/>
    <path class="st9" d="M487.9,144.9c1,0,2.7.7,4.1.8,1,.1,2.2.6,3.3.8.8,5.4,6.4,5.1,10.3,7.2,6,3.2,15.7,9.2,15,16.9-.8,9.2-11.2,5.5-16.8,3.7-1.9-.6-15.3-7.9-14.2-2.9,1,1.9,4.9,3,4.9,4.9,0,.7-5.5,8.1,0,6.6,3.9-1.1,4.3-7.5,11.4-2.9-5.8,12.4-1.9,22.7,13,21.2-.8,4.4,1.6,12,6.5,13.1l-7.4,3c-10.5,15.6-19.3,32.6-29.3,48.3-9.5,14.9-19.1,29.9-28.5,44.8-.1.2-1,.6-1.5,1.3-31.9,50.9-63.1,102.2-95.5,152.7-.5-2.5-1.1-4.9-1.6-7.3-2.6-12.5-5.5-25.1-8.1-37.5-2.6-12.5-3.9-25.4-8.1-37.5,0-1.5,0-2.8-.2-4.2-.5-4.4-3.4-10.8-3.9-14.5-.5-4.1,5.9-9.4,8.1-12.2,47.1-9.4,88.3-54.9,96.7-101.7,1-5.9.9-12.5,1.9-18.1.4-1.9,2.8-5.6,4.1-7.3.7-.9,1.8-2.4,2.4-3.3,0,0,1,.2,1.6-.6,9.2-11.4,18.5-22.6,28.1-33.7,1.2-2.5-.4-2.3-1.2-3.2-.6-.7-1.3-1.2-1.6-1.6-6.6-8.2-12.4-16.8-8.1-27.7,0-.2,1.5-3.1,1.6-3.3,2.5-3.2,9-5.8,13-5.7h0Z"/>
    <path class="st10" d="M404.8,691c.2,5.5,1.9,8.1,1.7,13.5-1.3,29.2-3.1,58.7-4.1,88-.4,11.4-.5,22.9-.8,34.3.1,1.3,5.1,3.2,6.6,3.6-17.6,18.8-46,28.9-71.7,26.1.2-2.8-.1-6.5,0-8.2,2.7-35.5-1.3-71.5-2.5-107.1-.3-10.3-1.8-26.8.9-35.5l69.2-7.3.8-7.3h0Z"/>
    <path class="st10" d="M105.9,487.2c11.5,21.6,27,40.9,39.1,61.9-3.8,15.6-10.1,28.9-20,41.5-3.6,4.5-8.1,8.3-10.9,13.1-.2-.2-1.7.2-2.4-.4-14.6-20.4-26.7-42.8-40.8-63.6-.7-.6-1.6-.4-2.4-.4,3.2-21.2,16.6-44.5,37.5-52.2h0Z"/>
    <path class="st13" d="M205.3,514.9c6.8,6.4,13.9,13,22.8,16.3-.9,5-2.4,12.2-2.4,17.1l-51.3,54.6c-.5-5.8-5.1-11.9-7.5-17.4-5.4-12.3-10.1-25.1-13.7-38-1.1-4-2.7-8-2.9-12.3l46.1-28.5c1.8,2.5,6.7,6.1,9,8.1h0ZM157.2,533.7c-.7-.6-2.4.5-2.3,1.9s2.5,9.2,4.8,7.1c.3-.3-2.1-8.7-2.4-9ZM161.7,550c-2.2.4.4,6.8,1,8,.4,1,.7,2.9,2.3,2.6,2.7-.6-1.4-11-3.2-10.6h0ZM169.3,568c-.4-.2-2.2-.2-2.3-.1-.4.4,3.1,12.4,5.7,9.8.4-.4-2.9-9.4-3.4-9.7h0ZM179.2,594.8c.6-.6-2.9-12.5-5.7-9.8-.6.6,3.1,12.2,5.7,9.8Z"/>
    <path class="st13" d="M374.7,531.2l38.8,84.7c.2,1.1-3.9,4.8-4.9,5.8-2.1,1.9-6.4,5.8-8.6,7.3-.2.2-1.5,0-2.4.5-3.5,2.4-6.8,5.1-10.7,6.9,0-.2-1.7-1.5-2.4-2.9-12.6-29.1-25.6-58-38.5-87-5.5-8.1-9.1,0-16.1-3,6.6-1.2,13-2.6,19.5-4.1.8,5.5,1,21.6,7.1,23.5,6.2,1.8,10.4-2.7,9.2-8.8-1.7,1.4-2.3,3.1-4.9,3.7-13.1,3.1-9.3-21.7,4.1-11.9-.8-3.6-.3-8-.8-11.4,2.9-.7,8.1-2,10.6-3.3h0ZM358.4,546.7c-1.3-1.3-3.7,1.1-2.4,2.4s3.7-1.1,2.4-2.4ZM357.6,551.6h-2.4v1.6h2.4v-1.6ZM408.1,613.5c-1.3-1.2-10,4.7-8.1,6.5,1.1,1.1,9.3-5.5,8.1-6.5ZM393.4,623.3c-.9-.9-10,4.5-8.1,6.5.6.7,10.2-4.3,8.1-6.5Z"/>
    <path class="st9" d="M404,646.9c2.5,15.1.4,28.7.8,44l-.8,7.3-69.2,7.3c1.2-4.2-1.1-23.7-1.6-29.3,25.3-5.2,49.5-14.7,70.9-29.3Z"/>
    <path class="st5" d="M416.2,832l-12.9,13.6c-7.9,11.1,5.6,5.1,11,2.8,5.6-2.3,11-5.8,16.6-8.3,4.9,2.6,13.4,6.4,16.3,11.4,3.5,6.2-1.5,7.3-6.7,9.2-21.4,7.8-72.9,18.8-95.5,20.2-1.6,0-8.9.3-9.5-.5-2.3-7.9.3-16.1.9-24,25.6,2.8,54.1-7.2,71.7-26.1,1.6.5,4.8,0,8.1,1.6h0Z"/>
    <path class="st5" d="M105.9,487.2c-20.9,7.6-34.2,30.9-37.5,52.2-1.9,0-5,.6-7.3.8.8-4.7,8.3-29.6-3.2-18.3-5,4.9-9.6,13.5-12.2,20-4.2.2-20.2-.3-22.4-4.1-3.3-5.4,7.5-19.6,11-24,5.3-6.7,13.1-14.7,19.5-20.4,5.2-4.7,33.5-26.4,38.7-26.4,6.2,0,11.1,15.9,13.4,20.3h0Z"/>
    <path class="st9" d="M149.1,552.4c.4.5,1.7,9.4,2.2,11.3,5,18.8,10.3,39.6,21.4,55.6-6.9,2.6-31.9,14.6-37.7,12.9-2.2-.6-8.1-9-9.9-11.4-1.9-2.5-10.3-16.4-11.1-17,2.8-4.8,7.3-8.6,10.9-13.1,9.9-12.6,16.2-25.9,20-41.5.9,1.6,3.9,3,4.1,3.3h0Z"/>
    <path class="st11" d="M399.9,629c2.1,5.8,3.1,11.9,4.1,17.9-21.3,14.6-45.5,24.1-70.9,29.3-.5-4.9-1.5-9.7-1.6-14.7,6.2-1.1,16.8-4.5,23.2-6.5,4.5-1.4,31.1-11.4,32.6-13.9.2-.4-.3-4.5-.5-4.9,3.9-1.8,7.2-4.5,10.7-6.9.8-.5,2.1-.3,2.4-.5h0Z"/>
    <path class="st4" d="M209.3,466.8c3.9,3.7,9.6,3.8,14.7,4.1.9.7-7.3,8.2-5.5,14.1s8.3-.4,10.3-3.2c1.4-2,1.4-6.1,3.8-3.5,1.9,2,1.8,7,6.1,6.5-3.4,15.2-7.8,31.3-10.6,46.5-8.9-3.3-16-9.9-22.8-16.3,4.7,2.3,17.4,7.3,15.4-2-.6-2.8-3.9-4-6.2-5.2s-6.9-1.2-6-3.8c.3-1.1,13.2-4.3,13-10.6,0-1.1-1.5-2.8-2.4-3.2-5.4-2.4-13.2,6.3-14.6,5.3l-2.4-10.6c2.3-5.9,5.2-12.1,7.3-17.9h0Z"/>
    <path class="st11" d="M82.2,96c.9-.1,1.5.8,1.6.8,1,1.3.9,2.2-.4,3.3-1.9,1.6-9.8,3.5-13.2,5.5-5,2.9-13.9,9.5-13.3,16,1.3,13.6,23.4,3.5,30.1,0,8.2.6,1.7,5.2-2.5,6.6.3,3.5,4.5,4.2,3.3,8.5-5.9,1-7-10-13.8-4.5-1.8,1.4.6,5.3.7,7.4,1.1,13.2-5.7,16.5-17.8,15,1.2,6.6-2,13-9,13.9-1-.2-2.9,0-4.1,0h-2.4c0-.5-1.5-2-.8-3.3.3,0,5.5-1.1,6.4-1.4,2.8-.8,4.5-1.7,5-4.8,1.4-8.4-4.5-7.6-9.7-12.2s-12.9-14.3-15-20.8c-1.1-3.4-1.4-7.1-2.1-10.6,1.9-4,1.9-9.4,7.3-8.2-1.8,2.9-2,10.7-1.4,14.1,1.9,11.8,18.7,29.2,31.2,29.2,8.3,0,8.9-6.2,7.2-13-1.6-6.2-5.2-3.3-9.8-5.7-7.9-4.1-15.8-22.7-18.2-31.1.5-.8-.6-3.5,2.4-3.3,0,0,1.2.5,1.4,1.4,1.3,3.9,3.7,12.2,6,15.2,2.6,3.3,3.1-1.6,5.2-4.3,4.5-5.6,18.5-12.9,25.6-13.9h0Z"/>
    <path class="st4" d="M261.5,390.2c-3.8,21.9-11.2,45-16.3,66.8-4.1,0-7,2.8-10.6,4.1.3-19.5-16.6-21.6-9.8,0-4.6-.5-9.3-3.1-13.8-.8,1.3-3.5,5.2-11.5,4.9-14.7,16.3-6.5,28.5-21.9,35.2-37.8,1.8-4.2,5.6-14.3,6.4-18.5l4.1.8h0Z"/>
    <path class="st9" d="M82.2,96c-7.1,1-21.1,8.3-25.6,13.9-2.2,2.7-2.7,7.6-5.2,4.3-2.3-3-4.8-11.3-6-15.2-.3-.8-1.4-1.3-1.4-1.4-1.9-6.4,3-21.3,10-23.8,13.8-4.9,22.5,12.9,28.3,22.2h0Z"/>
    <path class="st9" d="M41.5,100.9c2.4,8.4,10.2,27.1,18.2,31.1,4.6,2.4,8.2-.5,9.8,5.7,1.7,6.8,1.2,12.9-7.2,13-12.4,0-29.3-17.4-31.2-29.2-.5-3.4-.4-11.2,1.4-14.1,1.5-2.3,7.6-4.1,9-6.5h0Z"/>
    <path class="st11" d="M499.3,146.5c6.4,1.5,17.4,7.9,21.5,13.1,2.2,2.7,2.7,7.6,5.2,4.3,3-4,3.6-11.4,7.5-14.9.2.6,2.3,1.1,1.6,4.9-.3,1.8-4.4,9.8-5.6,12-1.9,3.4-6.8,11.2-9.9,12.9s-7.5,1.5-9.4,3.6c-3.2,3.8-5,12.7,1.7,13.8,15.8,2.5,33-16.2,32.2-31.4,0-.9-.6-5.6-.8-6.1,4-2.9,4.6,4.8,5.7,7.3.4,9.5-6.7,19.9-13.5,26.1-2.2,2-11.2,7.2-11.6,8.7-1.1,3.5.2,7.7,3.9,8.9.6.2,5.5,1.2,5.8,1.2,1.1,4-5.4,3.9-8.2,3.3-4.9-1.1-7.3-8.6-6.5-13.1-14.9,1.5-18.8-8.7-13-21.2-7.1-4.6-7.5,1.8-11.4,2.9-5.5,1.5,0-6,0-6.6,0-1.9-4-3-4.9-4.9-1.1-5.1,12.4,2.2,14.2,2.9,5.5,1.9,15.9,5.5,16.8-3.7.7-7.6-9-13.6-15-16.9-4-2.1-9.5-1.8-10.3-7.2,1.2.2,2.9-.3,4.1,0h0Z"/>
    <path class="st9" d="M533.5,148.9c-3.9,3.5-4.4,11-7.5,14.9-2.6,3.4-3.1-1.6-5.2-4.3-4.2-5.2-15.1-11.6-21.5-13.1.5-5.8,12.3-15,13-18.8l8.5-1.7c9.7,1.2,11.1,8.7,12.6,16.8.3,1.8-.4,4.6,0,6.1h0Z"/>
    <path class="st9" d="M543.3,158.7c.2.4.8,5.1.8,6.1.9,15.2-16.4,33.9-32.2,31.4-6.6-1.1-4.9-10-1.7-13.8,1.8-2.2,6.2-1.9,9.4-3.6s8-9.5,9.9-12.9c1.2-2.1,5.2-10.1,5.6-12,1.9,0,7.6,3.7,8.2,4.9h0Z"/>
    <path class="st14" d="M211,460.3c4.6-2.3,9.3.3,13.8.8-6.8-21.6,10.1-19.5,9.8,0,3.6-1.2,6.5-4.1,10.6-4.1-2.2,9.2-4.4,18.5-6.5,27.7-4.3.6-4.3-4.5-6.1-6.5-2.4-2.6-2.4,1.5-3.8,3.5-2,2.8-8.6,8.9-10.3,3.2s6.4-13.4,5.5-14.1c-5.1-.3-10.8-.3-14.7-4.1.5-1.5.9-4.4,1.6-6.5h0Z"/>
    <path class="st4" d="M363.3,466c1.9,9,3.8,17.9,5.7,26.9-6.1,1.4-1.9,9.7,2.4,10.6.6,3,1,6,1.6,9-8.3,2.2-7,12.5,2.4,10.6.6,3.4,3.2,6-.8,8.2-2.5,1.3-7.7,2.6-10.6,3.3-2.3-16.5-5.7-33.2-8.1-49.7,7.5-.1,3.7-12-1.6-13-.2-1.1-.6-2.5-.8-4.1,3.5.5,6.5-.7,9.8-1.6h0Z"/>
    <path class="st9" d="M40.7,165.2c-3.4,0-12.5-9.7-14.5-12.8-8.3-12.9-7.1-23.8-1-36.9.7,3.5.9,7.2,2.1,10.6,2.2,6.5,9.9,16.3,15,20.8s11.1,3.8,9.7,12.2c-.5,3.1-2.2,4-5,4.8-.8.2-6,1.4-6.4,1.4h0Z"/>
    <path class="st11" d="M174.3,602.9c.5,5.8,2.7,6.7,6.1,11.5.6.8.3,2.2.4,2.4-2.6.8-5.6,1.5-8.1,2.5-11.1-16-16.4-36.8-21.4-55.6-.5-1.9-1.8-10.7-2.2-11.3.8-2,2.1-3.9,4.1-4.9,3.6,13,8.4,25.7,13.7,38,2.4,5.5,7,11.6,7.5,17.4h0Z"/>
    <path class="st9" d="M533.5,210.9c-.3,0-5.2-1-5.8-1.2-3.7-1.2-5-5.4-3.9-8.9.5-1.5,9.5-6.8,11.6-8.7,6.8-6.1,13.8-16.6,13.5-26.1,4.3,10,5.9,15,2,26.1-1.9,5.3-11.6,18.7-17.5,18.8h0Z"/>
    <path class="st14" d="M202,484.7l2.4,10.6c1.4,1,9.3-7.7,14.6-5.3.9.4,2.4,2.1,2.4,3.2.1,6.3-12.7,9.5-13,10.6-.9,2.6,3.7,2.7,6,3.8s5.6,2.4,6.2,5.2c1.9,9.3-10.7,4.3-15.4,2-2.2-2.1-7.2-5.7-9-8.1-.8-1-1.7-3.7-1.5-5.1.6-3.8,5.6-12.7,7.2-16.9h0Z"/>
    <path class="st8" d="M460.2,310.3c9.4-15,19.1-29.9,28.5-44.8,1.4,20.3-9.2,38.2-28.5,44.8Z"/>
    <path class="st10" d="M416.2,832c4.7,2.4,9.8,5.6,14.7,8.2-5.6,2.4-11,6-16.6,8.3-5.4,2.3-18.9,8.2-11-2.8l12.9-13.6h0Z"/>
    <path class="st10" d="M61.1,540.2c-5.2.4-10.3,1.4-15.5,1.6,2.6-6.5,7.2-15.1,12.2-20,11.6-11.2,4,13.7,3.2,18.3Z"/>
    <path class="st14" d="M361.6,457c.5,2.4,1.1,4.9,1.6,7.3.1.5-.1,1.1,0,1.6-3.2,1-6.3,2.1-9.8,1.6-.4-3-1.2-6-1.6-9l9.8-1.6Z"/>
    <path class="st8" d="M508.1,107.1c-12-22-38.5-15.4-57.2-7-3,1.3-5.4,3.9-8.7,4,1.2-3.1,2.7-5.1,3.2-8.6,1.3-10.8-2.8-19.5-12.1-24.8,11.8-11.2-1.3-22.3-13.8-21.2,0,.7-.2,2.3,0,2.4.5.5,10.2.7,13.7,5.4,5.1,6.7-3.4,14.2-8.8,8.8-1-1-1.1-3-2.1-4.4-4.1-6.2-12.3-4.3-8.5,4-12.7.7-25.1,6.8-35.4,13.9-3.3-8-5.7-16.3-9.2-24.2-6.4-14.2-15.7-28.2-27-39,12.4-1.1,27.4,10.5,22,24,5.6.4,4.4-8.2,3.3-11.9-2.6-8.4-16.3-16.9-24.9-15.8-1.1.1-2,1.5-2.9,1.2-1.3-.3-9.3-6.8-12.2-8.2-24.6-12.7-51.5-2.6-74.7,8.4-5.1,2.4-16,10.1-19.8,11.2-4.7,1.4-13.7,0-19.2.4-14.7,1.1-31.7,8.2-44.4,15.5l1.2,2.5s0,0,0,0l-1.2-2.5s0,0,0,0h0s0,0,0,0c-11.7,6.7-24,16-31.8,26.9-2.6,1.1-3.5,4.6-4.9,6.5.8.9,2.5,1.4,2.5,2.8,0,.2-.3.7-.8,1.5.5-.8.8-1.4.8-1.5,0-1.5-1.7-2-2.5-2.8-4.2,6-5.9,8.5-9,15.5,0,0,0,0,0,0-6.2,14.4-10.5,30.3-12.2,46-.2,2.1-.2,15.3-.8,15.9-.3.3-4.6-.2-5.7,0,20.7,29.3,42.5,58.4,64,87.1,2,2.7,5.7,8.5,8.5,9.9,2,1,5.2,1.1,7.3,2.4-.5-5,.7-9.8.8-14.7,1.2-33.4.2-67.1,5.3-100.2,31.8-26.7,62-55.4,89.6-86.5l2-.4c14.8,4.4,29.8,8.4,44.4,13.5,9,3.2,20.4,7,28.1,12.2l-3.3-16.2c-17.5-.6-34.2-2.5-50.4-9.5-3.7-1.6-24.4-12.9-25.1-15.6-.4-1.4.4-2.9,1.8-2.7,1.1.2,15.4,9.9,18.7,11.5,16.3,7.9,34.6,11.6,52.7,11.3-10.8-26.8-42.1-42.2-70-34.2.2-1-.4-3.5,0-4,.3-.4,8.9-2.3,10.2-2.4,30.5-3.2,58.7,18.9,67.3,47.3,1.2,4,4.1,13,.6,16.1,7.3,5.5,19,16.8,25.2,23.6,2.5,0,5-.2,7.4.4,2.2.5,4,2.9,5.2,2.9,1.4,0,6-2.7,8.4-3,10.8-1.7,24.4,4.5,22,17.1-.5,2.8-7.7,13.7-10.2,14.4-1.4.3-3.7-1.2-3.4-2.7.2-1.3,8.3-8.2,8.9-13.1,1.4-11-14-14-21.8-9.6-3.4,1.9.9,6.9-3.5,10,20.4,26.6,36.9,57.9,42.4,91.3,9.4-1.4,15.2,2.8,16.3,12.2,0,0,1,.2,1.6-.6,9.2-11.4,18.5-22.6,28.1-33.7,1.2-2.5-.4-2.3-1.2-3.2-10.7,21.8-48.2,8.2-48.9-13.9,1,.1,2.4-.3,3.1.1.4.2,2.3,5.9,3.9,8,7.2,9.7,17.6,13.7,29.7,11.1,5-1,6.6-4.7,10.5-7-6.6-8.2-12.4-16.8-8.2-27.7-5.5-2.8-11.8-9.8-18.3-9.8-2.3,0-9.9,2.6-10.9-.4-1.7-5.3,9-4,12.2-4.8,4.8-1.2,15.6-9.9,14.5-15.3-1.5-7.8-14.6-8.5-20.6-7.9-7.5.8-13.4,5.5-20.4,6.5-4.2-.6,6.1-6.5,6.9-6.9,25.3-12.3,56,3.8,26.1,26.1,4.9,2.5,8.2,5.8,12.2,9.4,2.5-3.2,9-5.8,13-5.7,10.5-5,17.9-25.7-.3-23.6-2,.2-6.2,3.2-6.2-.5,0-5.2,12-5.2,16.3-2.4,8.4,5.6,6,15.1,1.2,22.3-2.1,3.2-3.2,4.1-6.9,4.9,1,.1,2.2.6,3.3.8,1.2.2,2.9-.3,4.1,0,.5-5.8,12.3-15,13-18.8,1.1-5.4-1.6-15.7-4.2-20.6ZM149,63.8c6.3-7.1,14.3-12.7,21-19.4-6.7,6.7-14.7,12.2-21,19.3-1.7,2-6,8.7-8.2,10.9,2.1-2.2,6.4-8.9,8.2-10.8ZM141.8,128.7c-.7,1.2.8,6.7-1.4,7.2-3.7.8-5.1-12.5-5.3-15.1-1.3-23.6,10.9-45.4,28.1-60.7,2-1.8,11.4-10.2,13.4-8.2.9,4.1-3.9,5.3-6.5,7.7-12,11.1-30.1,31.4-30.1,48.9v15.1h0c1.9,1.8,15.8-7.4,18.2-9.1,23.5-16.5,37.1-40.8,37.2-69.9,2.3-.4,1.4.5,1.7,1.9,7.3,26.6-17.7,60.2-39,73.8-2.6,1.7-15.9,7.6-16.4,8.4ZM169.1,144.2c-2.7,1.3-14.8,6.6-16.9,5.2-.8-.6-1.1-1.5-.8-2.5.3-1.1,10.6-4.2,12.7-5.2,33.4-15.3,65-56.4,67.9-93.4.1-1.6-.4-9.1,0-9.4h0c2.3-2.3,3.8,3.9,4,5.4,4.4,35.6-36.3,85.2-67,99.9ZM420.3,65.8c-5.5,1.3-6.8-8.2-1.6-3.7,1.2,1,1.8,2.1,1.6,3.7Z"/>
    <path class="st14" d="M373.1,512.5c.7,3.6,1.8,6.8,2.4,10.6-9.5,1.9-10.8-8.4-2.4-10.6Z"/>
    <path class="st14" d="M369,492.9c.7,3.5,1.7,7,2.4,10.6-4.3-.9-8.6-9.2-2.4-10.6Z"/>
    <path class="st1" d="M355.1,75.6c.8.5,1.8,1.1,2.4,1.6,7.4,5.5,19,16.7,25.2,23.6,4.3,4.8,9,11,13,16.3,20.4,26.6,36.9,57.9,42.4,91.3.2,1.4.6,2.6.8,4.1,1.4,11.3.3,18.4-1.6,29.3-7.9,44.2-40,84.5-82.3,100.2-8,3-16.8,5.5-25.2,6.5-16.7,2-37.6-.4-53.8-4.9-6.7-1.9-15.5-5.4-22-8.1l-68.4-98.6c1.2-33.4.2-67.1,5.3-100.2,31.8-26.7,62-55.4,89.6-86.5l2-.4c14.8,4.4,29.8,8.4,44.4,13.5,9,3.2,20.4,7,28.1,12.2h0ZM340.2,101.9c-4.3,1-4.6,5.8.6,5.6,7-.3,9.6-.9,15.9,3.7,2.5,1.9,4.4,5.8,7.8,5.3,7.1-1.1-4.6-10.2-7.2-11.6-4.6-2.4-12-4.1-17.1-2.9h0ZM254,142.3c.5-.8.2-3.8-.6-4.4-4.2-3-17.1,4.8-20.6,7.8s-15.5,17.8-12.5,22.1c3.3,4.7,8.1-8.2,9.9-10.6,3.4-4.4,10.9-11.4,16.2-13.2,1.6-.5,7.3-1.1,7.7-1.7h0ZM372.9,142.6c-8.1,1.4-17.1,13.4-20,20.8-1.2,3.2-4.7,15.8-1.9,17.8,5.1,3.6,4.6-8.2,5.3-11.1,2.8-11.8,16.7-30.6,29.8-19.1,1.9,1.6,6.2,11.3,8.6,6.1,1.5-3.2-5.7-10.4-8.3-12.1-4-2.5-8.9-3.2-13.5-2.4h0ZM263.7,185c-6,.8-13.5,4.9-17.2,9.6-2.4,3.1-8.3,15.2-3.8,17.5,3.9,2,3.8-6.9,5.3-10.2,7.7-17,30.6-14.9,41.9-2,1.6,1.8,3.2,6.7,6,6,6.8-1.7-3.9-12.6-6.4-14.6-7.6-6-16.3-7.6-25.8-6.3h0ZM341.1,186.6c-3.4.6-13.3,5.8-11.9,9.9,1.5,4.4,7.5-2,9.1-2.9,11.2-6.5,16.1,1.3,12.1,12.1-.9,2.6-6.2,8.6-3.5,10.5,5,3.6,10.4-12.8,10.6-16.4.6-10.3-6.9-14.9-16.5-13.2h0ZM381.2,214.1c-12.5,6-19.3,15.7-30.4,23-10,6.6-14.4,6.1-25.5,2.3-12.4-4.3-20.3-11.1-33.8-13.9-8.6-1.8-11.1-2.8-19.8.9-23.6,10-19.4,41.4-10.3,60.5.4.7,1.6.5,1.6.6,19.8,39.6,57.3,56,97.8,31.8,12.4-7.5,20.5-14.2,28-27,10.5-17.8,18.6-50.8,13.1-70.9-3-11.1-9-12.9-19.4-8.7-.9.4-1.2,1.3-1.4,1.4h0Z"/>
    <path class="st11" d="M254.1,335.6c-7.3-3.2-13.3-7.1-20.4-10.6-13.1-17.6-26-35.5-40.3-52.2l-15.9-23.6c2,1,5.2,1.1,7.3,2.4-.5-4.9.6-9.8.8-14.7l68.4,98.6h0Z"/>
    <path class="st7" d="M140.1,123.7c1.9,1.8,15.8-7.4,18.2-9.1,23.5-16.5,37.1-40.8,37.2-69.9,2.3-.4,1.4.5,1.7,1.9,7.3,26.6-17.7,60.2-39,73.8-2.6,1.7-15.9,7.7-16.4,8.4-.7,1.2.9,6.7-1.4,7.2-3.7.8-5.1-12.5-5.3-15.1-1.3-23.6,10.9-45.4,28.1-60.7,2-1.8,11.4-10.2,13.4-8.2.8,4.2-3.9,5.3-6.5,7.7-12,11.1-30.1,31.4-30.1,48.9v15.1h0Z"/>
    <path class="st7" d="M357.6,77.2c-.6-.5-1.7-1.1-2.4-1.6l-3.3-16.2c-17.5-.6-34.2-2.5-50.4-9.5-3.7-1.6-24.4-12.9-25.1-15.6-.4-1.4.4-2.9,1.8-2.7,1.1.2,15.4,9.9,18.7,11.5,16.3,7.9,34.6,11.6,52.7,11.3-10.8-26.8-42.1-42.2-70-34.2.2-1-.4-3.5,0-4,.3-.4,8.9-2.3,10.2-2.4,30.5-3.2,58.7,18.9,67.3,47.3,1.2,4.1,4.1,13,.6,16.1h0Z"/>
    <path class="st7" d="M232.1,38.9c2.3-2.3,3.8,3.9,4,5.4,4.4,35.6-36.3,85.2-67,99.9-2.7,1.3-14.9,6.6-16.9,5.2-.8-.6-1.1-1.5-.8-2.4.4-1.1,10.6-4.2,12.7-5.2,33.4-15.3,65-56.4,67.9-93.4.1-1.6-.4-9.1,0-9.4h0Z"/>
    <path class="st7" d="M474.9,150.6c-.1.1-1.5,3-1.6,3.3-5.5-2.8-11.8-9.9-18.3-9.9s-9.9,2.6-10.9-.4c-1.7-5.3,9-4,12.2-4.8,4.8-1.2,15.6-9.9,14.5-15.3-1.5-7.8-14.6-8.6-20.6-7.9-7.5.8-13.4,5.5-20.4,6.5-4.2-.6,6.1-6.5,6.9-6.9,25.3-12.3,56,3.8,26.1,26.1,4.9,2.5,8.2,5.8,12.2,9.4h0Z"/>
    <path class="st7" d="M395.9,117.2c-4-5.3-8.7-11.6-13-16.3,2.5,0,5-.2,7.4.3,2.2.6,4,2.9,5.2,2.9,1.5,0,6-2.7,8.4-3.1,10.8-1.7,24.4,4.5,22,17.1-.5,2.8-7.7,13.7-10.1,14.4-1.4.4-3.7-1.1-3.4-2.6.2-1.3,8.3-8.2,8.9-13.1,1.4-11-14-14.1-21.8-9.6-3.4,1.9.9,6.9-3.5,10h0Z"/>
    <path class="st7" d="M483,183.2c-10.7,21.8-48.2,8.2-48.9-13.9.9.1,2.4-.3,3.1.1.4.2,2.3,5.9,3.9,8,7.2,9.7,17.6,13.7,29.7,11.1,5-1.1,6.6-4.7,10.5-7,.3.4,1.1,1,1.6,1.6h0Z"/>
    <path class="st7" d="M487.9,144.9c10.5-5,17.9-25.7-.3-23.6-2,.2-6.2,3.2-6.2-.5,0-5.2,12-5.2,16.3-2.4,8.4,5.6,6,15.1,1.2,22.3-2.1,3.2-3.2,4.1-6.9,4.9-1.4-.1-3-.8-4.1-.8h0Z"/>
    <path class="st7" d="M454.5,220.7c-.7.8-1.8,2.3-2.4,3.3-2.4.5-1.5-1.2-1.9-2.6-1.9-7.2-2.6-9.7-11.2-8.8-.2-1.5-.6-2.7-.8-4.1,9.4-1.4,15.2,2.8,16.3,12.2h0Z"/>
    <path class="st7" d="M91.2,230.4c.8,1.4,1.1,3.2,1.6,4.1-2.1,1.3-4.3.7-6.8,1.7-5.9,2.3-9.1,9-6.1,14.9.5,1,6.9,7.4,7.8,7.7,5.5,1.6,14.7-1.6,20.6,1.8.3.5.3,1.6.8,2.5-2.7,6.1-9.3,5.6-15,4-2.4-.7-4.8-2.7-6.8-3.1-5.7-1.1-15.5,5.9-16.4,11.7-1.9,12.4,13.9,18.8,23.5,21.2,2.1.5,8.8.9,9.8,1.6,1.4,1,1,3.2-.6,3.6-1.4.4-13.8-1.8-16.1-2.5-22-6-32.3-28.8-7-39,.8-1.1-3.1-4.2-3.9-5.4-7.3-11.5,1.5-25.1,14.5-24.7h0Z"/>
    <path class="st7" d="M168.6,364.9c2.2.9,2.9,4.7,4.1,6.5-7.4-2.3-19.3-7.3-26-1.2s3.9,16.9,9.7,19.6c2.6,1.2,11,1.2,9.8,4.8-.9,2.9-9.3-.3-11.8-.4-12.8-.6-24.8,6.4-14.6,19.5,3.6,4.6,18.1,15.4,22.7,8.2,1.3-2,.6-7.2,4.6-4.5,2.1,1.5-.2,6.7-1.7,8.2-10.9,11.7-44.9-14.9-30.1-30.2,3.8-4,12.5-4.7,13-5.3.4-.4,0-1.1-.5-1.7-2.7-2.5-6.1-4.7-7.2-8.9-4.4-16.5,16.8-19.5,28.1-14.7h0Z"/>
    <path class="st7" d="M150.7,334c-2.2,3.6-10.7,3.4-12.1,4.2-1.2.7-1.9,8.1-8.6,10.5-16.1,5.6-32.6-14.7-25.3-29.4,1-2.1,5.8-7.7,6.2-2.8.2,2.1-2.7,4.4-3.1,6.7-3.5,17,19.4,33,26.7,13.3-7.7-.7-12.5-17.7-2.4-14.4,5.9,1.9,6.5,11.5,7.8,11.8l9.3-3.2c.7,1.2,1.1,2.4,1.6,3.3h0Z"/>
    <path class="st7" d="M78.7,346.2c3.9-1,11.7,8.5,13.5,11.6,3.2,5.8,6.1,16,.3,20.9-10,8.5-22-6-17.4-12.6,4.1-5.8,3.9,4.5,4.3,6.1,1.3,4.4,7.6,6.4,10.7,2.5,4-5.1-1.4-16.4-5.8-20.5-1.1-1-11-6.7-5.6-8.1h0Z"/>
    <path class="st7" d="M78.2,208.4c1.4,2.4,2.7,4.9,4.1,7.3-.7,1.9-2.2-.2-2.9-.8-2.7-2-8.1-5.7-1.2-6.6h0Z"/>
    <path class="st8" d="M254.1,335.6c6.4,2.8,15.3,6.3,22,8.1l-2.4,14.7h-.8c-1-6.1-7.5-1.9-11.4-1.6-.8,0-2.6.2-3.3,0-1.8-.5-7.6-8.6-9.3-10.7-5.4-6.8-10-14.2-15.1-21.1,7,3.5,13.1,7.4,20.4,10.6h0Z"/>
    <path class="st8" d="M108.3,260.6c-5.9-3.4-15.1-.2-20.6-1.8-.9-.3-7.3-6.7-7.8-7.7-3.1-5.9.2-12.6,6.1-14.9,2.6-1,4.8-.4,6.8-1.7,5,8.6,10.4,17.4,15.5,26.1h0Z"/>
    <path class="st14" d="M261.5,356.8c-.6,2.3,1.6,6.1,1.6,7.7v18.8c0,1.2-1.4,5.3-1.6,6.9l-4.1-.8c.4-2,.7-7,.9-9.3.5-7.6-.4-15.6,0-23.3.6.2,2.4,0,3.3,0h0Z"/>
    <path class="st4" d="M326.6,392.6c2-.1,3.8.7,5.7.8.3,3.4-.3,7.2,0,10.6-6.4,1.7-5.7,10.8,1.6,9.8,1.6,14.9,3.1,29.9,4.9,44.8l-6.5-2.5c0-.2-.7-.9-.9-2-.3-2.3,1.2-5.8-2-6.2h-58.6c-.9.1-1,7.6-1.3,9-.1.7-.6,2.1-.8,3.3-.1.5.1,1.1,0,1.6-.1.7-.6,1.5-.8,2.5-1.9,8.9-5.7,21.1-6.5,29.9-.1,1.2-.4,2.4.3,3.6l37.9,21.7,2.2-.3,35.1-19.1c.9-1.4-1.2-12-1.5-14.5,3.2-.3,4.7-2.7,6.5-4.9,2.3,17.9,4.1,35.9,6.5,53.8h-7.3c-1.6-1.7,9.1-14.3,2.4-17.5-5.4-2.6-10,7.7-10.6,11.8-1.4,1-5.7-6.4-7.4-7.7-2.6-2-6.8-3.5-8.5.4-2.8,6.2,8.2,13.4,6.9,14.6-5.8,0-11.4,3.3-10.6,9.8-15,1.3-29,1.2-44-.8.5-3.5-8.6-5.5-6.5-8.1.4-.4,7-2.2,9.3-5.8,3-4.6,0-9-5.5-7.9-4.2.8-6.7,4.9-10.4,6.3-.9-.7-1.4-14.2-7.3-13,5.5-30,12-59.9,17.9-89.6,4.4,1.7,9,2.8,13.8,2.5-2.1,5.4-8.3,9.3-4.9,15.9,6.6,3.7,9.8-7.4,12.7-7.8,1.6-.3,3.1,5.5,5.4,6.1,2.8,2,6.1,1.9,7.5-1.4,3.1-7.1-5.5-11.5-5.1-13.2,4.1-2.3,14.7-5.7,10.6-12.3-3.2-5.3-11.2,1.3-15.1,2.9-2.1-.4-.2-14.4-7.3-14.7s-4.3,11.3-2.9,15.5c-4.3-.9-8.6-3.6-13-1.6,2-9.9,7.2-31.8,5.7-40.8,13.4,8.1,28.7,17.6,45.1,16.2,2.2-.2,4.9-1.4,7-1.5h0Z"/>
    <path class="st3" d="M272.9,358.4c.7,4.5-1.6,9.4-.8,14.2.4,2.2,2,3.2,2.4,5.3,1.5,9-3.7,30.9-5.7,40.8-.5,2.5-1.1,5.5-1.6,8.1-5.9,29.7-12.4,59.6-17.9,89.7-1.4,7.8-2.6,15.8-4.1,23.6-1.6,8.4-.8,19.9-13.4,17.9-5.5-.9-6.2-5.1-6.1-9.7,0-5,1.5-12.1,2.4-17.1,2.8-15.2,7.1-31.3,10.6-46.5,2.1-9.2,4.4-18.5,6.5-27.7,5.1-21.9,12.5-44.9,16.3-66.8.3-1.6,1.6-5.7,1.6-6.9v-18.8c0-1.6-2.2-5.5-1.6-7.7,3.9-.3,10.4-4.5,11.4,1.6h0ZM234.3,535.5c-8.7.5-9.5,15.9,1.4,15.2,9.2-.6,7.9-15.7-1.4-15.2Z"/>
    <path class="st14" d="M313.6,545.9c-.8-6.4,4.8-9.8,10.6-9.8,1.3-1.2-9.7-8.5-6.9-14.6,1.7-3.8,5.9-2.4,8.5-.4,1.7,1.3,6,8.7,7.4,7.7.6-4.1,5.2-14.5,10.6-11.8,6.6,3.3-4.1,15.9-2.4,17.5h7.3c.2,1.5.6,3.2.8,4.9-6.5,1.5-13,2.9-19.5,4.1-5.5,1-10.8,2-16.3,2.5h0Z"/>
    <path class="st14" d="M249.2,516.5c6-1.2,6.4,12.4,7.3,13,3.7-1.4,6.1-5.5,10.4-6.3,5.5-1.1,8.4,3.3,5.5,7.9-2.3,3.6-8.9,5.4-9.3,5.8-2.1,2.6,7,4.5,6.5,8.1-8.4-1.1-16.2-3.1-24.4-4.9,1.4-7.8,2.6-15.8,4.1-23.6h0Z"/>
    <path class="st3" d="M308.7,655.1c.5.5,0,2.7-1.4,3.1-.9.3-8.1.4-8.4.1-3.2-3.4,9.1-4,9.8-3.2Z"/>
    <path class="st3" d="M229.3,641.2c.5,0,8.7,3.4,8.5,5.3-.6,3-8.5-2.2-9.8-3.3l1.2-2h0Z"/>
    <path class="st3" d="M192.2,616.8c-1.4,1.4-8.4-5.7-8.1-6.9.2-.9,1.3-1.4,2.4-.8,1.1.5,6.9,6.5,5.7,7.8Z"/>
    <path class="st3" d="M327.4,653.5c2.6,2.3-10,3.8-10.6,3.2-.5-.4,0-2.7,1.4-3.1,2.4-.8,6.5.3,9.2-.1h0Z"/>
    <path class="st3" d="M221.5,638.8c-1,.9-11.1-4.4-8.9-6.5,1.3-1.3,10.5,5.2,8.9,6.5Z"/>
    <path class="st3" d="M254.1,651c.2.2,0,1.8,0,2.4-1.6,0-10.2-1.4-9.8-3.7.4-2.1,9.4.8,9.8,1.2h0Z"/>
    <path class="st3" d="M379.6,638c-.7,3.6-6.7,4.8-9.8,4.9-1.8-1.6,8.1-6.2,9.8-4.9Z"/>
    <path class="st3" d="M263.1,655.9c-.3-.3-.7-2.5,1.2-2.4,1.7,0,9,.7,8.5,2.8-.4,2-9.4,0-9.8-.4h0Z"/>
    <path class="st3" d="M290.8,655.9c0,3.8-8.6,3-10.6,1.2-.7-3.4,8.6-.3,10.6-1.2Z"/>
    <path class="st3" d="M362.5,644.5c.2.2.3,2-.5,2.5-1.1.6-8.4,3.1-9.2,1.2-.6-1.5,1.4-1.4,2.2-1.8,1.2-.5,6.8-2.6,7.5-1.9h0Z"/>
    <path class="st3" d="M344.5,649.4c2.8,2.9-8.3,4.7-9,4.1-.2-.2-.3-2,.5-2.5.8-.4,8.1-1.9,8.4-1.6h0Z"/>
    <path class="st3" d="M205.9,625.9c3,5.3-8.4-.6-7.9-4.2.9-.8,7.7,3.8,7.9,4.2Z"/>
    <path class="st11" d="M448,231.3c-1,5.6-.8,12.2-1.9,18.1-8.4,46.8-49.6,92.4-96.7,101.7,1.7-2.1,2.7-3.8,4.9-6.1.6-.7,2.7-2.2.8-2.9,42.3-15.7,74.4-56,82.3-100.2l10.6-10.6h0Z"/>
    <path class="st4" d="M353.5,419.5c2.6,12.4,5.5,25,8.1,37.5l-9.8,1.6c-2.4-15.7-6.8-36.1-7.3-51.4,5.1,1.8,2.5,11.2,9,12.2h0Z"/>
    <path class="st8" d="M355.1,342.1c1.9.7-.2,2.2-.8,2.9-2.2,2.3-3.2,4-4.9,6.1-2.3,2.8-8.6,8.1-8.1,12.2h-4.9c-1-2.6-4.2-6.1-7.3-5.7,0-3.1.4-5.9.8-9,8.5-1,17.2-3.5,25.2-6.5h0Z"/>
    <path class="st8" d="M439,212.5c8.6-.9,9.3,1.6,11.2,8.8.4,1.4-.5,3.1,1.9,2.6-1.3,1.8-3.7,5.4-4.1,7.3l-10.6,10.6c2-10.9,3-18.1,1.6-29.3h0Z"/>
    <path class="st14" d="M353.5,419.5c-6.4-1-3.9-10.5-9-12.2,0-.8,0-1.6,0-2.5,0-.7,0-1.4-.8-1.6-.9-4.6-.9-9.5-1.6-13.9l3.2.8c0-2.7.1-5.5,0-8.1,4.2,12.1,5.5,25,8.1,37.5h0Z"/>
    <path class="st4" d="M341.3,363.3c.4,3.7,3.3,10.1,3.9,14.5.2,1.5.1,2.8.2,4.2.1,2.7,0,5.5,0,8.1l-3.2-.8c-1.1-6.4-3.6-20.5-5.7-26.1h4.9,0Z"/>
    <path class="st3" d="M161.7,550c1.8-.4,5.9,10,3.2,10.6-1.6.3-1.9-1.6-2.3-2.6-.5-1.2-3.2-7.5-1-8h0Z"/>
    <path class="st3" d="M179.2,594.8c-2.6,2.4-6.3-9.2-5.7-9.8,2.8-2.7,6.3,9.2,5.7,9.8Z"/>
    <path class="st3" d="M169.3,568c.4.3,3.8,9.2,3.4,9.7-2.6,2.6-6.1-9.3-5.7-9.8,0,0,2-.1,2.3.1h0Z"/>
    <path class="st3" d="M157.2,533.7c.4.3,2.8,8.6,2.4,9-2.2,2.1-4.7-5.8-4.8-7.1,0-1.4,1.6-2.4,2.3-1.9Z"/>
    <path class="st3" d="M336.4,363.3c2.1,5.6,4.6,19.7,5.7,26.1.7,4.4.7,9.2,1.6,13.9.1.7,0,1.4.8,1.6,0,.8,0,1.6,0,2.5.5,15.3,5,35.7,7.3,51.4.5,3,1.2,6,1.6,9,.2,1.5.6,3,.8,4.1.6,4.2,1,8.7,1.6,13,2.5,16.5,5.8,33.2,8.1,49.7.5,3.4,0,7.8.8,11.4-13.4-9.8-17.2,15-4.1,11.9,2.6-.6,3.2-2.3,4.9-3.7,1.2,6-3,10.6-9.2,8.8-6.1-1.8-6.3-18-7.1-23.5-.2-1.7-.6-3.4-.8-4.9-2.4-17.9-4.2-35.9-6.5-53.8-.9-7.3-2.4-14.7-3.3-22-1.8-14.9-3.3-29.9-4.9-44.8-.4-3.4-1.4-6.9-1.6-9.8-.3-3.4.3-7.2,0-10.6s-1.4-7.6-1.6-10.6c-.5-5.6-1.3-11.7-1.6-17.1-.1-2.7,0-5.5,0-8.1,3.1-.4,6.4,3.1,7.3,5.7h0Z"/>
    <path class="st3" d="M393.4,623.3c2.1,2.2-7.5,7.2-8.1,6.5-1.9-2,7.2-7.4,8.1-6.5Z"/>
    <path class="st3" d="M408.1,613.5c1.1,1-7,7.7-8.1,6.5-1.8-1.8,6.8-7.7,8.1-6.5Z"/>
    <path class="st3" d="M358.4,546.7c1.3,1.3-1.1,3.7-2.4,2.4s1.1-3.7,2.4-2.4Z"/>
    <rect class="st3" x="355.1" y="551.6" width="2.4" height="1.6"/>
    <path class="st14" d="M356,484.7c-.6-4.3-1-8.8-1.6-13,5.4,1,9.2,12.9,1.6,13Z"/>
    <path class="st12" d="M360.8,319.3c-2.7-14.2-20.9-35.5-35-38.8-1.1-.3-2.8-1.2-2.5.9,5.5,6.1,7.7,14.5,6.3,22.6-.2.9-2.1,6.2-2.8,6.4-6.1,1.4-2.1-6.9-1.9-10.2.4-7.1-2.2-11.8-6.6-17.1-5.3-6.5-8.9-8.1-17.5-8.6-14-.8-27.2,4.2-37.9,13.1,0,0-1.3.2-1.6-.6-9.1-19-13.3-50.5,10.3-60.4,8.8-3.7,11.2-2.7,19.8-.9-.3,10.2-1.1,17.1,7.4,24,22,17.9,76.7,4.2,82.2-25.6.5-3,2-7.4,0-9.8.2,0,.5-1.1,1.4-1.4,10.4-4.1,16.3-2.4,19.4,8.7,5.5,20.1-2.6,53-13.1,70.9-7.5,12.8-15.6,19.5-28,27h0Z"/>
    <path class="st6" d="M263.1,287.5c10.7-8.9,23.9-13.9,37.9-13.1,8.5.5,12.1,2.1,17.5,8.6,4.4,5.3,6.9,10,6.6,17.1-.2,3.3-4.2,11.6,1.9,10.2.6-.1,2.6-5.4,2.8-6.4,1.4-8.1-.8-16.5-6.3-22.6-.3-2.1,1.4-1.1,2.5-.9,14.1,3.3,32.2,24.5,35,38.8-40.4,24.3-77.9,7.9-97.8-31.8h0Z"/>
    <path class="st10" d="M381.2,214.1v9.8c-5.5,29.8-60.2,43.5-82.2,25.6-8.5-6.9-7.7-13.8-7.4-24,13.5,2.8,21.4,9.6,33.8,13.9,11.1,3.8,15.5,4.4,25.5-2.3,11-7.3,17.9-17,30.4-23Z"/>
    <path class="st11" d="M329.9,348.6c-.5,3-.7,5.9-.8,9,0,2.7-.1,5.5,0,8.1-.4,0-.8.4-.8.8-18.6.9-37.2-1.5-54.6-8.1l2.4-14.7c16.2,4.5,37.1,6.9,53.8,4.9h0Z"/>
    <path class="st8" d="M263.7,185c9.5-1.3,18.2.3,25.8,6.3,2.5,2,13.2,12.8,6.4,14.6-2.8.7-4.4-4.2-6-6-11.4-12.9-34.2-15-41.9,2-1.5,3.3-1.5,12.2-5.3,10.2-4.5-2.3,1.3-14.4,3.8-17.5,3.8-4.8,11.3-8.8,17.2-9.6h0Z"/>
    <path class="st8" d="M372.9,142.6c4.6-.8,9.5-.2,13.5,2.4,2.6,1.7,9.8,8.8,8.3,12.1-2.4,5.1-6.7-4.5-8.6-6.1-13.1-11.5-27,7.3-29.8,19.1-.7,2.9-.2,14.7-5.3,11.1-2.8-2,.7-14.6,1.9-17.8,2.8-7.4,11.9-19.4,20-20.8h0Z"/>
    <path class="st8" d="M341.1,186.6c9.6-1.6,17.1,2.9,16.5,13.2-.2,3.6-5.6,19.9-10.6,16.4-2.8-1.9,2.5-7.9,3.5-10.5,4-10.9-.9-18.6-12.1-12.1-1.7,1-7.7,7.4-9.1,2.9-1.3-4.1,8.5-9.3,11.9-9.9h0Z"/>
    <path class="st7" d="M254,142.3c-.4.6-6.1,1.2-7.7,1.7-5.3,1.7-12.8,8.7-16.2,13.2-1.8,2.4-6.6,15.2-9.9,10.6-3-4.3,9.1-19.1,12.5-22.1s16.4-10.8,20.6-7.8c.9.6,1.1,3.6.6,4.4h0Z"/>
    <path class="st7" d="M340.2,101.9c5.1-1.2,12.5.6,17.1,2.9,2.6,1.3,14.3,10.5,7.2,11.6-3.4.5-5.3-3.4-7.8-5.3-6.2-4.6-8.9-4.1-15.9-3.7-5.1.3-4.9-4.6-.6-5.6h0Z"/>
    <path class="st9" d="M328.3,366.6c-.5,5,0,11.1,0,16.3,0,3.1,1.2,8.4-1.6,9.8-2.1.1-4.8,1.3-7,1.5-16.4,1.4-31.7-8.1-45.1-16.2-.4-2.1-2-3.1-2.4-5.3-.8-4.8,1.5-9.7.8-14.2h.8c17.4,6.6,36,9.1,54.6,8.1h0Z"/>
    <path class="st2" d="M332.3,456.2c.5,3.2.4,7.2.8,10.6.2,1.9.6,3.8.8,5.7.6,4.3,1.1,8.7,1.6,13,.3,2.5,2.4,13.1,1.5,14.5l-35.1,19.1-2.2.3-37.9-21.7c-.7-1.1-.4-2.4-.3-3.6.7-8.8,4.6-20.9,6.5-29.9,4.2,2.5,4.8-2.9,4.9-6.1.1-2.2-2-.9-3.3-1.2.2-1.3.4-8.9,1.3-9h58.6c3.2.4,1.7,4,2,6.2.1,1.1.8,1.8.9,2h0ZM281.8,449.7c-2.5.3-6.1-.6-8.4.1-1.4.4-1.8,2.6-1.4,3.1.6.6,2.6-1.4,3.7-1.6,2-.4,6.8,1.3,6.1-1.6h0ZM293.2,449.7c-1.9.6-7.9-1.6-7.3,1.6,1.9-.6,7.9,1.6,7.3-1.6ZM316.9,449.7c-1.8.5-7.2-1.5-6.5,1.6,1.8-.5,7.2,1.5,6.5-1.6ZM329.1,453.8c.8-4.1-4.6-3.8-7.3-4.1.1,3.9,5.2,1.4,7.3,4.1ZM319.3,501c1-4.1-4.5-12.6-3.9-15.8s15.9-11,13.7-14.4l-19.1-1.5c-.7-2.1-4.7-15.8-5.5-16.3-.7-.5-2.9-.2-3.6.7-2,2.4-3.3,14.5-6.1,15.9s-24.9-2.1-15.9,5.3c2.8,2.3,5.8,4.4,8.7,6.8.8.7,2.7.2,2.8,2.1.7,3.2-4.8,13.1-5.2,17-.1,1.1,0,2.3,1.1,2.6,3.5,1,14-12.7,19.1-9.8.4,1.5,1.7,1.2,2.4,1.6.1,1.6,7.1,6.4,9,7.3.4.2.7,1.2,2,.8,2-.6.5-1.5.4-1.6,0-.3,0-.6,0-.8h0ZM288.2,457.1c-1.3-.7-3.5.4-3.1,1.9.1.6,6.7,8.8,7.7,8.6,3.1-.6-4-10.2-4.6-10.5h0ZM321.7,457c-1.8-1.8-12.1,10.2-7.7,10.6,1.2,0,9.1-9.3,7.7-10.6ZM330.7,459.5c-2.1-2.6-1.7,6.8-1.6,7.3,4.7,1,1.4-4.2,1.6-7.3ZM270.4,467.6c-2.1-.4-1.5.3-1.9,1.8-.6,2.2-.8,4.2-.6,6.4,2.4-1.4,2-5.7,2.4-8.1h0ZM266.4,479.9c0,.9-2.7,7.4-.4,7.3,1.2,0,1.2-2.8,1.3-3.6,0-.8.5-3.9-.8-3.7ZM334,489.6c-.1-2.1.7-6.2-1.6-7.3.2,2.3-1.1,6.1,1.6,7.3ZM285.9,483.9c-.6-.6-9.9,1.6-10.9,2.4-.7.5-.7,2.3-.5,2.5,1,1,14.5-1.9,11.4-4.9ZM330.7,491.3c2.2-2.1-6.6-5.8-8.1-6.1-3.6-.9-4.7,1.3-.8,3.3,1.4.7,8.2,3.6,9,2.9h0ZM265.5,491.3c-2.6-.9-1.9,3.8-1.2,4.9s3.2,1.8,4.5,1.6c.6-2.4-2-1.5-2.9-3.3-.5-1-.4-2.2-.4-3.3h0ZM301.4,509.2c5.1,1.8,3.6-11.9,2-12.2-3.4-.7-1.6,10.1-2,12.2ZM277.8,503.5c-.2-1.2-5-4.7-5.7-4.1-1.3,1.2,4,4.9,5.7,4.1ZM325.8,502.7c-1.8,0-6.6,1.5-6.5,4.1,1.8,0,6.6-1.5,6.5-4.1ZM306.3,513.3c-.7-.7-6.2,1.7-6.5,3.2,1.4,1.1,8.3-1.7,6.5-3.2Z"/>
    <path class="st14" d="M268.8,418.7c4.5-2,8.7.7,13,1.6-1.5-4.2-4.3-15.9,2.9-15.5s5.2,14.3,7.3,14.7c3.9-1.6,11.9-8.2,15.1-2.9,4,6.6-6.5,10-10.6,12.3-.4,1.7,8.1,6.1,5.1,13.2-1.4,3.3-4.7,3.4-7.5,1.4-2.3-.5-3.7-6.4-5.4-6.1-2.8.5-6.1,11.5-12.7,7.8-3.4-6.6,2.8-10.5,4.9-15.9-4.8.4-9.4-.8-13.8-2.5.5-2.7,1.1-5.6,1.6-8.1h0Z"/>
    <path class="st14" d="M338.9,458.7c.9,7.3,2.3,14.7,3.3,22-1.9,2.2-3.4,4.6-6.5,4.9-.5-4.4-1.1-8.7-1.6-13,2.4-.3,4.4-2.4,4.1-4.9l-4.9-.8c-.5-3.4-.4-7.4-.8-10.6l6.5,2.5h0Z"/>
    <path class="st14" d="M332.3,404c.3,2.9,1.3,6.4,1.6,9.8-7.3,1-8-8.1-1.6-9.8Z"/>
    <path class="st14" d="M330.7,382.9c.2,3,1.3,7.2,1.6,10.6-1.9-.1-3.7-.9-5.7-.8,2.8-1.4,1.6-6.6,1.6-9.8h2.4Z"/>
    <path class="st3" d="M269.6,457c1.3.3,3.4-1,3.3,1.2-.1,3.2-.6,8.6-4.9,6.1.2-.9.7-1.8.8-2.5l.8-1.2-.8-.4c.2-1.2.7-2.6.8-3.3h0Z"/>
    <path class="st2" d="M268.8,461.9c.1-.5-.1-1.1,0-1.6l.8.4-.8,1.2Z"/>
    <path class="st13" d="M234.3,535.5c9.4-.5,10.7,14.6,1.4,15.2-11,.7-10.1-14.8-1.4-15.2ZM237.4,540.2c-1.9.4-1.2,3.7.8,3.2s1.2-3.7-.8-3.2ZM237.8,545.1c-1.4-1.2-3.7,1-2.4,2.4.8.9,3.3-1.7,2.4-2.4Z"/>
    <path class="st4" d="M344.5,404.9c-.8-.2-.7-1-.8-1.6.8.2.8.9.8,1.6Z"/>
    <path class="st4" d="M330.7,382.9h-2.4c0-5.2-.5-11.3,0-16.3,0-.4.4-.7.8-.8.3,5.4,1.2,11.5,1.6,17.1Z"/>
    <path class="st9" d="M381.2,223.9v-9.8c2,2.3.5,6.8,0,9.8Z"/>
    <path class="st0" d="M304.6,457.9c-2.1,1.3.2,3,.8,4.1.3.6.5,1,.8,1.6l-.8.5c.2,1.5,1,3,2.4,3.6,0,.2.7.8.8,1.6,0,.2-2.2,2.1.8,3.7,2.5,1.3,3-1.2,3.3-1.2.4-.1,1.1,0,1.6,0-1,2.4,4.9,2.7,4.1,0,1.9,0,3.8,0,5.7,0l-2.5,2c6.9.7-4.6,6.4-6.2,8-1.8,1.8-1.7,9.2-1,11.4.1.5,3.7,5.2,4.8,7.9,0,.2,0,.6,0,.8l-2.4.8c-1.9-.9-8.8-5.7-9-7.3,1,.6,2.9,1.4,4.1,1.6.2-1.9-4.3-5.1-4.1-1.6-.8-.4-2-.2-2.4-1.6,0-.2,0-.5,0-.8,0,0,.7-.3.7-.6,0-2-2.4-3.2-4.2-2.6l-5.4,5.6c-1.3.9-5.9,6.2-7.8,3.3s.9-3.3,1.2-3.9c1.4-2.5-.2-4.4.1-5,.1-.2,1.6-.5,2.2-1.4,2.8-3.7-4.5-7.5-6.6-9.3-.8-.7-1.1-1.6-1.9-2.4-2.1-1.8-3.7.6-2-3.4,2.1-.2,4.7,1,4.1-1.6.5,0,1.1,0,1.6,0-1,2.4,4.9,2.7,4.1,0,1.4,0,4.1.5,5-.5,1.4-1.7,2-7.1,3.2-9.4.5-1,2-1,2.4-2,.5-1.4-1.1-4.1-.8-4.4,1.9-1.6,2.9,1.5,3.3,2.4h0Z"/>
    <path class="st14" d="M305.5,493.7c-5.1-2.9-15.6,10.8-19.1,9.8-1.1-.3-1.2-1.6-1.1-2.6.4-3.9,5.9-13.8,5.2-17-.1-1.9-2-1.4-2.8-2.1-2.9-2.4-5.9-4.5-8.7-6.8-9-7.5,13.2-4,15.9-5.3s4.1-13.6,6.1-15.9c.7-.9,2.9-1.2,3.6-.7.8.6,4.7,14.2,5.5,16.3l19.1,1.5c2.2,3.3-13,11.2-13.7,14.4s4.9,11.7,3.9,15.8c-1-2.6-4.6-7.4-4.8-7.9-.7-2.2-.8-9.7,1-11.4,1.7-1.6,13.1-7.3,6.2-8l2.5-2c-1.9,0-3.8,0-5.7,0-1.3,0-2.9-.1-4.1,0-.5,0-1.2-.1-1.6,0-2.1.4-3-.9-4.1-2.5-.1-.8-.8-1.4-.8-1.6-.5-2.6-.8-2.3-1.6-4.1-.3-.6-.5-1.1-.8-1.6.2-1.5-.2-2.7-.8-4.1-.4-.9-1.4-4-3.3-2.4-.4.3,1.2,2.9.8,4.4-.3.9-1.8,1-2.4,2-1.2,2.3-1.8,7.8-3.2,9.4-.8,1-3.6.4-5,.5s-2.7,0-4.1,0c-.5,0-1.1,0-1.6,0-1,0-3.4-.3-4,.1-.4.3,0,1.2-.1,1.5-1.8,4-.1,1.6,2,3.4.9.7,1.1,1.7,1.9,2.4,2.1,1.7,9.4,5.5,6.6,9.3-.7.9-2.2,1.3-2.2,1.4-.4.6,1.3,2.5-.1,5-.4.6-3.2,1-1.2,3.9s6.5-2.4,7.8-3.3,5.2-3.8,6.2-4c1.6-.4.8,2.2,2.7,1.6,0,.3,0,.6,0,.8h0Z"/>
    <path class="st14" d="M301.4,509.2c.4-2.1-1.4-12.9,2-12.2,1.6.3,3,14-2,12.2Z"/>
    <path class="st14" d="M288.2,457.1c.5.3,7.6,9.8,4.6,10.5-1,.2-7.6-8-7.7-8.6-.3-1.5,1.9-2.6,3.1-1.9h0Z"/>
    <path class="st14" d="M285.9,483.9c3.1,3-10.4,5.9-11.4,4.9-.2-.2-.2-2,.5-2.5,1-.8,10.3-3,10.9-2.4Z"/>
    <path class="st14" d="M330.7,491.3c-.8.8-7.6-2.2-9-2.9-3.8-2-2.7-4.2.8-3.3,1.5.4,10.3,4,8.1,6.1h0Z"/>
    <path class="st14" d="M321.7,457c1.4,1.3-6.6,10.7-7.7,10.6-4.4-.3,5.9-12.4,7.7-10.6Z"/>
    <path class="st3" d="M281.8,449.7c.7,2.9-4,1.2-6.1,1.6-1.1.2-3.1,2.2-3.7,1.6-.5-.5,0-2.7,1.4-3.1,2.3-.7,5.9.2,8.4-.1h0Z"/>
    <path class="st4" d="M333.1,466.8l4.9.8c.3,2.5-1.7,4.6-4.1,4.9-.2-1.9-.6-3.8-.8-5.7h0Z"/>
    <path class="st3" d="M265.5,491.3c0,1.1,0,2.3.4,3.3.9,1.7,3.4.8,2.9,3.3-1.3.1-3.8-.5-4.5-1.6s-1.4-5.8,1.2-4.9h0Z"/>
    <path class="st3" d="M330.7,459.5c-.3,3.1,3.1,8.3-1.6,7.3,0-.5-.5-10,1.6-7.3Z"/>
    <path class="st3" d="M329.1,453.8c-2.1-2.7-7.2-.2-7.3-4.1,2.7.3,8.1,0,7.3,4.1Z"/>
    <path class="st3" d="M325.8,502.7c0,2.5-4.7,4.1-6.5,4.1,0-2.5,4.7-4.1,6.5-4.1Z"/>
    <path class="st3" d="M270.4,467.6c-.4,2.4,0,6.7-2.4,8.1-.2-2.2,0-4.2.6-6.4.4-1.4-.3-2.1,1.9-1.8h0Z"/>
    <path class="st3" d="M306.3,513.3c1.8,1.6-5.1,4.3-6.5,3.2.3-1.6,5.8-3.9,6.5-3.2Z"/>
    <path class="st3" d="M293.2,449.7c.6,3.2-5.5,1-7.3,1.6-.6-3.2,5.5-1,7.3-1.6Z"/>
    <path class="st3" d="M266.4,479.9c1.4-.2.9,2.9.8,3.7,0,.9,0,3.6-1.3,3.6-2.3,0,.4-6.5.4-7.3Z"/>
    <path class="st3" d="M316.9,449.7c.6,3.1-4.7,1.1-6.5,1.6-.6-3.1,4.7-1.1,6.5-1.6Z"/>
    <path class="st3" d="M277.8,503.5c-1.7.9-7-2.8-5.7-4.1.6-.6,5.5,2.9,5.7,4.1Z"/>
    <path class="st3" d="M334,489.6c-2.7-1.2-1.4-5-1.6-7.3,2.3,1.1,1.5,5.2,1.6,7.3Z"/>
    <path class="st14" d="M316.9,502.7l2.4-.8c0,.1,1.6,1-.4,1.6-1.3.4-1.6-.6-2-.8h0Z"/>
    <path class="st3" d="M237.4,540.2c2-.4,2.7,2.8.8,3.2s-2.7-2.8-.8-3.2Z"/>
    <path class="st3" d="M237.8,545.1c.9.8-1.7,3.3-2.4,2.4-1.2-1.4,1.1-3.7,2.4-2.4Z"/>
    <path class="st9" d="M305.5,492.9c-1.9.6-1.2-2-2.7-1.6-1,.2-4.9,3.1-6.2,4l5.4-5.6c1.8-.6,4.1.6,4.2,2.6,0,.3-.7.5-.7.6h0Z"/>
    <path class="st9" d="M312.8,471.7c-.3,0-.8,2.5-3.3,1.2-3-1.6-.8-3.5-.8-3.7,1.1,1.5,2,2.8,4.1,2.5h0Z"/>
    <path class="st9" d="M318.5,471.7c.8,2.7-5.1,2.4-4.1,0,1.2-.1,2.8,0,4.1,0Z"/>
    <path class="st9" d="M307.9,495.3c-.3-3.5,4.3-.3,4.1,1.6-1.2-.2-3-1-4.1-1.6Z"/>
    <path class="st9" d="M285.9,471.7c.6,2.6-1.9,1.4-4.1,1.6.1-.3-.3-1.2.1-1.5.6-.4,2.9,0,4-.1Z"/>
    <path class="st9" d="M291.6,471.7c.8,2.7-5.1,2.4-4.1,0,1.4,0,2.7,0,4.1,0Z"/>
    <path class="st9" d="M307.9,467.6c-1.5-.7-2.2-2.1-2.4-3.6l.8-.5c.9,1.8,1.1,1.5,1.6,4.1h0Z"/>
    <path class="st9" d="M305.5,461.9c-.6-1.1-3-2.7-.8-4.1.6,1.4,1,2.5.8,4.1Z"/>
  </g>
</svg>