<?xml version="1.0" encoding="UTF-8"?><svg id="Layer_2" xmlns="http://www.w3.org/2000/svg" viewBox="0 0 728.34 1002.06"><defs><style>.cls-1{fill:#b1243c;}.cls-2{fill:#d4d9dd;}.cls-3{fill:#5e2612;}.cls-4{fill:#fcae86;}.cls-5{fill:#faae86;}.cls-6{fill:#2688a5;}.cls-7{fill:#fbad84;}.cls-8{fill:#fab089;}.cls-9{fill:#eb8363;}.cls-10{fill:#fbbc0f;}.cls-11{fill:#cc2d43;}.cls-12{fill:#9a2216;}.cls-13{fill:#fb9c12;}.cls-14{fill:#c74311;}.cls-15{fill:#fbae88;}.cls-16{fill:#de5c27;}</style></defs><g id="OBJECTS"><path class="cls-14" d="M466.94.1c14.07,1.59,44.45,21.25,56.37,30.09,42.87,31.79,71.48,79.07,82.72,131.22,8.81,3.77,16.84,9.22,24.36,15.08,5.85,4.56,13.05,10.42,17.29,16.4.47.67.95,2.06,2.09,2.61.02.66,1,2.73,1.04,3.13.13,1.22-.49,1.73-.52,2.09-5.54-5.53-11.89-11.98-19.34-14.88-13.75-5.36-26,.16-13.84,14.37,5.64,6.58,11.77,9.98,18.03,15.14.09.07-.28,1.45,1.04,1.04,1.64,2.17,4.13,3.3,5.69,5.56.11.66-4.33,5.57-5.17,6.46-15.68,16.49-32.11,32.37-48.06,48.59.56-12.32,4.21-25.24,10.18-36.06,1.09-1.98,6.15-8.86,6.05-10.17-.12-1.47-1.62-1.56-2.79-1.21-1.79.53-5.88,7.86-6.91,9.82-6.79,12.84-10.14,27.93-11.22,42.33-3.63,3.68-7.34,7.3-10.97,10.97-1.56.06-3.15-.09-4.7,0-7.61-25.26-7.55-54.73,3.21-79.08,3.8-8.61,12.35-25.35,23.92-17.28,1.84,1.28,3.63,4.81,6.02,4.44,4.78-.75-3.29-7.39-4.77-8.3-15.03-9.27-26.08,11.94-30.34,23.3-6.58,17.55-8.54,38.17-6.31,56.73.84,7.03,3.1,13.74,4.09,20.72-3.36.55-9.2,2.38-12.01,4.18-5.69-7.45-8.87-16.24-10.3-25.49-.55-3.56-1.17-8.59-1.2-12.13-.06-8.97,2.1-19.91,3.82-28.83s4.06-18.27,6.66-27.29c-7.15-1.82-12.74-6.12-17.79-11.27-.81-8.81-9.46-20.28-16.72-25.08l-7.84-18.81c-.98-.11-.42,1.09-.36,1.67.45,4.51,1.92,8.91,1.94,13.48-4.91-2.01-15.38-2.98-20.59-2.05-2.73.49-7.29,1.61-5.97,5.36.91,2.57,9.75-.18,12.19-.17,6.03.03,12.02,2.55,16.98,5.75v7.05c.8,6.63.33,15.47-8.58,14.33-15.03-1.92-32.51-32.1-39.57-44.54-3.53-6.22-7-12.59-9.84-19.16-.92-.13-.52,1.19-.45,1.76,1.06,9.75,9.89,30.93-.93,37.86-6.37,4.08-12.38-.79-15.85-6.19-2.85-4.44-5.6-11.66-7.31-16.72-4.33-12.82-6.45-26.26-7.84-39.7l-3.43,6.22c-4.53,5.95-10.88,8.06-17.98,9.45-3.02-1.03-7.27-1.63-10.45-1.57-2.17-2.12-2.84-4.65-4.07-7.18-.21-.43.08-.95-.84-.61-1.13.42-6.31,4.82-7.64,5.95-3.65,3.09-7.54,6.83-10.96,10.2-4.68-10.54.43-33.47,13.84-35.01,2.81-.32,9.25,1.86,9.13-1.84-.11-3.2-8.69-2.01-10.85-1.45-16.29,4.21-19.52,24.42-16.32,38.58.2.87.16,1.81,1.07,2.33-3.07,3.15-7.42,8.04-10.45,11.49.02-4.01-1.51-7.83-2.02-11.82-1.26-9.69-.82-20.23,2.18-29.56,5.75-17.94,23.67-36.28,43.55-25.58,1.44.78,8.87,7.44,9.61,4.45s-4.61-6-6.81-7.24c-15.75-8.89-29.87-2.96-40.74,9.95-14.14,16.8-14.55,42.38-7.85,62.42-9.65,11.24-18.45,23.36-26.12,36.05-.18-1.09-.57-2.63-1.04-3.66-.24-11-1.23-21.56-.54-32.68,2.02-32.81,10.64-70.99,42.32-87.24,15.06-7.73,31.61-8.24,48.1-5.7,6.78-19.81,16.41-42.74,37.08-51.22l6.77-1.85c2.84.23,6.1-.31,8.88,0ZM469.45,31.61c-9.61.66-17.95,5.71-21.93,14.64-.87,1.94-3.8,8.58.33,8.21,2.08-.19,2.36-4.48,3.16-6.29,13.53-30.55,63.95,1.91,79.67,15.93,17.16,15.3,34.92,41.44,39.13,64.31.28,1.53-.16,11.69,3.48,8.63,1.6-1.35.34-7.89-.02-10-3.52-20.97-19.79-46.05-34.77-60.84-15.08-14.89-47.28-36.08-69.06-34.59ZM548.53,141.06c.6.35,2.37.22,2.81-.38,1.38-1.9-4.01-9.14-5.31-10.96-17.5-24.68-56.04-56.1-87.17-58.06-11.72-.74-25.79,1.88-25.41,16.48.07,2.61,2.49,5.05,4,2.9s-1.99-7.39,3.35-11.8c12.19-10.05,40.01,1.2,52.08,8.02,19.37,10.94,36.09,25.89,49.18,43.81,1.07,1.46,5.95,9.68,6.47,9.98ZM452.75,90.58c-.5-.31-2.55-.19-3.08.15-1.38.87,1.91,7.97,2.55,9.52,6.24,15.25,17.93,35.3,33.53,42.22,12.56,5.57,18.37-2.59,21.15-13.83,2.13,5.71,4.38,11.37,7.3,16.73,8.68,15.92,28.76,46.51,49.57,44.86,2.1-.17,7.9-1.74,7.68-4.36-.24-2.87-4.45-.03-6.09.21-21.44,3.01-43.79-32.55-51.33-49.4-3.29-7.35-3.46-12.15-4.9-19.65-.56-2.89-3.64-3.28-4.5-1.88-.47.77-.46,6.06-.66,7.43-1.82,12.1-5.48,23.29-19.74,14.65-11.58-7.02-20.36-20.95-26.01-33.02-.98-2.09-4.83-13.22-5.46-13.61Z"/><path class="cls-10" d="M286.2,580.06c.1,0,.64.61,1.04.52,15.26,11.1,31.53,20.69,48.34,29.25.49.71.16,1.39.02,2.12-.78,4.04-4.19,9.82-5.38,14.49-1.77,6.93-3.15,16.91,2.64,22.4.85.8,4.25,2.3,4.44,3.1.25,1.05-2.16,6.4-2.06,8.84s2.18,4.37,4.2,2.58c1.59-1.4,3.63-11.34,4.59-14.23,3.03-9.13,6.99-17.91,10.03-27.04-1.19-3.19-2.95-4.01-4.99-.84-3.95,6.12-6.89,16.96-9.46,24-.2.56.15,1.51-.9,1.14-6.74-2.4-3.63-16.4-2.22-21.52,1.12-4.09,3.01-7.91,4.31-11.93,1.57-.24,8.95,4.18,11.02,5.17,24.69,11.78,50.5,22.43,77.44,27.82.91,23.1,21.01,41.27,41.72,48.4,2.9,1,12.87,4.06,15.27,2.99,1.68-.75,2.16-3.64.93-4.83-.48-.46-10.85-2.34-12.94-2.99-18.42-5.72-37.56-21.83-39.18-42.07,18.69,2.6,37.53,4.12,56.42,2.61,9.02,31.86,20.06,63.27,28.87,95.21l5.08,15.03c.04.16-.04.36,0,.52,1.14,4.81,2.49,8.5,4.18,13.06.59,1.59,1.06,2.18,1.57,4.18-.92.87-.69,1.22.52,1.04.03.17-.04.36,0,.52.83,3.76,1.3,8.18,2.09,12.01-1.05.13-2.31-.22-3.3.01-.42.1-.14.95-1.11,1.07-4.17.55-6.43-.1-9.7,2.05-.43.28-3.77-.24-4.87.01-9.42,2.19-19.39,3.11-28.73,5.22-.39.09-.32.93-.71,1.02-2.06.49-5.58-.47-7.64.02-9.4,2.25-16.64,3.84-26.77,5.17-.97.13-.68.98-1.11,1.07-2.23.52-4.58.41-7.31,1.04-1.47.34-3.74-.18-5.39.01-2.54.29-7.65,1.46-10.62,2.1-.38.08-.32.93-.71,1.03-3.07.74-8.61.58-11.95,1.02-.97.13-.69.99-1.1,1.08-.9.2-4.99-.15-5.39.53-10.73-30.7-25.62-61.45-42.92-88.99-13.58-21.62-34-49.15-52.92-66.2-1.08-.97-5.8-5.16-6.8-5.19-2.16-.07-3.76,2.68-2.48,4.55,14.32,13.44,27.84,27.78,39.21,43.86,1.05,1.48,2.21,3.17,3.12,4.72.52.9,1.26,1.34-.41,1.19-13.07-7.77-36.6-13.23-51.72-14.63.29-1.58-.8-1.01-1.8-1.05-10.99-.44-23.51-.37-34.52,0-1.01.03-2.1-.53-1.8,1.05-2.1.15-4.17.31-6.27.52-1.74-.75-5.26-.79-7.09-.56-1,.13-.5,1-1.5,1.13-2.68.34-6.05-.35-8.83-.01-1.07-1.62-2.46-3.57-3.69-5.05-.49-.59-1.05-1.64-1.88-.72-.17-.35-.33-.71-.52-1.04-3.21-5.77-4.42-7.73-9.4-12.02-3.73-3.21-11.38-14.37-14.85-18.84-13.78-17.76-28.04-36.22-41.56-53.26-1.9-2.39-3.69-4.78-5.22-7.31.15-1.08.03-1.19-1.04-1.04-.07-.13.08-.39,0-.52-1.56-2.71-3.41-5.62-5.23-8.5-.33-.52-2.09-.52-.53-2.22l45.23-.21c.95-.02.49-1,1.5-1.13,13.73-1.73,33.01.53,47.6.04,1-.03,2.1.53,1.8-1.05.17,0,.35,0,.52,0,12-.05,24.05.24,36.04,0,1.36-.03,3.84.28,4.9.02.61-.15.25-.99.33-1.07.34-.32,1.09-.56,1.57-.52ZM166.4,589.53c-3.55,1.19,2.49,10.77,5.68,7.27,2.44-2.67-2.71-8.27-5.68-7.27ZM183.68,611.8c1.13-1.13.56-2.48-.05-3.61-1.05-1.96-5.78-8.56-8.16-7.51-3.01,1.33-.8,3.76.3,5.44,1.3,2,5.23,8.36,7.91,5.68ZM187.32,615.66c-4.36,1.2,3.89,11.03,5.39,11.7s3.08-.42,3.17-2.1c.12-2.42-5.89-10.33-8.56-9.6ZM198.81,630.31c-4,1.19,2.76,9.5,4.34,10.61,3.41,2.39,5.73.04,3.34-3.86-1.24-2.02-5.21-7.48-7.68-6.75ZM210.3,644.94c-4.19,1.24,3.42,10.46,5.09,11.43,2.84,1.66,4.83-1.15,2.81-4.38-1.29-2.07-5.31-7.82-7.9-7.05ZM225.41,661.23c-2.53-2.17-5.68-.69-4.84,1.92.3.93,5.95,7.86,6.83,8.38,2.36,1.4,3.95-.82,3.29-3.3-.15-.57-4.68-6.48-5.28-7ZM233.81,675.24c-1.96.58-1.56,2.83-.82,4.28.3.6,4.47,6.26,4.88,6.61,3.44,2.97,5.64-.2,3.31-4.35-1.15-2.05-4.77-7.31-7.37-6.54ZM490.05,684.16c-1.32,1.31.82,10.28,2.31,10.77,6.44,2.14,2.28-15.34-2.31-10.77ZM494.99,699.8c-2.83.84-.26,10.57.97,12.42,1.06,1.6,3.31,1.12,3.8-.31.6-1.74-1.19-11.57-2.87-12.13-.59-.2-1.3-.15-1.9.02ZM501.8,718.14c-1.31-1.25-3.91.09-4,1.65-.05.9,2.1,9.75,2.62,10.44.8,1.08,3.23,1.3,3.9.34.89-1.26-1.38-11.34-2.52-12.43ZM506.51,736.95c-1.2-1.15-3.76-.57-4.06,1.18-.25,1.45,2.12,10.42,3.38,11.26,5.8,3.86,2.29-10.9.68-12.43ZM508.58,754.64c-2.94.82-.46,9.29.41,11.42,1.09,2.67,4.82,1.84,4.92-.23.04-.76-1.52-6.95-1.9-8.02-.58-1.59-1.22-3.79-3.43-3.18ZM511.94,780.1c1.27.8,11.34-.77,11.86-2.37,1.69-5.16-8.36-2.91-10.68-1.79-1.61.78-2.41,3.38-1.18,4.15ZM493.71,783.18c1.24,1.22,9.79-.36,11.49-1.05,1.91-.77,2-3.52.39-4.32-.82-.41-9.28,1-10.58,1.44-1.57.53-2.65,2.6-1.3,3.93ZM483.02,781.37c-1.52.14-6.06.93-7.18,1.7-1.97,1.35-1.34,4.38,1.25,4.44,1.96.04,11.06-1.6,11.28-3.97.28-2.97-3.47-2.35-5.36-2.17ZM457.09,790.55c1.35.84,11.88-.77,12.74-2.54.47-.97.11-2.86-.79-3.4-1.48-.88-11.95,1.07-12.48,2.71-.21.66.12,2.97.54,3.23ZM446.97,788.15c-1.36.14-6.75,1.17-7.69,1.71-1.95,1.11-1.4,4.38,1.25,4.44.88.02,9.22-1.8,9.89-2.17,1.31-.73,1.94-2.1.89-3.39-.96-1.18-3-.73-4.35-.59ZM432.85,791.8c-1.2-1.21-12.26,1.1-12.84,2.05-.45.75-.26,3.16.76,3.5,2.44.81,16.42-1.16,12.07-5.54ZM409.35,794.94c-2.45.35-4.54.83-4.05,3.76.57,3.43,8.88,1.47,9.71-1.27.98-3.22-3.5-2.8-5.66-2.49Z"/><path class="cls-11" d="M469.55,392.49c1.11.1,1.63-.59,2.17.72,1.85,4.52,3.01,9.43,4.8,13.99,6.91,17.53,15.96,36.17,25.33,52.51,3.87,6.75,11.18,15.99,13.91,22.67.39.96.31,1.61.28,2.58,0,.17.03.36,0,.52-1.17-.29-1.02.49-1.55,1.31l.51.25c-3.04,5.38-9.77,13.25-13.81,18.33-1.12,1.41-.36.96-1.86,2.05-1.75,1.28-6.2,4.17-4.7,6.79-.17.18-.34.35-.52.52-.06.06-.59-.16-.92.12-.84.71-1.81,4.2-3.72,1.64-7.32-13.79-14.88-27.53-21.58-41.64-4.36-9.18-9.65-20.23-13.22-29.62-1.38-3.62-2.4-9.47-3.82-12.38-1.58-3.25-4.23-1.29-4.34,1.67-.23,6.04,7.28,22,9.98,28.22,8.81,20.34,19.14,40.05,30.08,59.3.53,2.01-1.96,3.73-2.56,4.84-.24.45-.19,1.12-.36,1.43-.62,1.1-3.63,5.69-3.67,6.04-.26,1.97,1.34,8.44,1.58,11.21,0,.07-.64.07-.55,1.28.1,1.32,1.51,8.2,1.07,8.65-17.89-1.78-35.76-3.99-53.4-7.45-39.33-7.72-77.29-21.2-114.8-34.87l15.49-30.85c1.53-.36,10.51,3.12,12.84,3.83,32.52,9.88,68.53,17.94,102.53,20.23,3.28.22,10.71.87,13.59.53,2.4-.28,3.51-1.26,2.75-3.81-.91-3.08-7.37-1.74-10.1-1.92-29.61-1.97-59.51-7.08-88.11-14.8-10.15-2.74-20.15-6.12-30.17-9.28-.63-.87,7.97-17.14,9.11-19.32,1.39-2.66,4.03-8.68,5.55-10.64.36-.47.58-.86,1.26-.87,16.75,3.98,33.63,7.58,50.72,9.89,9.44,1.27,19.72,2.55,29.2,3.19,4.64.32,12.41,1.09,16.74.56,2.49-.31,3.04-3.58,1.05-4.77-8.31-1.6-17.13-1.27-25.62-2.06-23.34-2.16-46.6-6.32-69.22-12.28l-.3-1.32,12.83-25.34c1.18-.74,13.26,2.66,15.55,3.3,2.01.56,1.34-.24,3.26,1.17,2.56,1.89,3.92,3.41,7.17,4.58s6.74,1.33,10.07,2.21c-.58.03-1.7-.36-1.56.52,4.88-.42,10.66.57,15.42.02,8.85-1.03,16.59-.96,25.64.45,2.18-1,8.13.24,9.48-1.12.94-.94.99-3.64-.4-4.32-1.23-.6-7.64-.32-10.2-.8-1.38-.26-1.45.57-1.3-1.55,7.01-3,6.39-5.8,6.84-12.74.03-.42.47-.75.47-.84,2.42-.81,9.37,1.88,11,1.28.83-.31,4.81-5.44,5.95-6.54,2.63-2.54,5.49-4.71,8.12-7.28Z"/><path class="cls-5" d="M230.3,95.72c3.82,2.05,5.5,6.64,7.93,10.1l13.22,27.52c6.05-11.53,11.55-24.41,19.61-34.73,2.31-2.96,10.35-12.3,13.8-5.98,3.44,6.3-2.59,22.66-5.19,29.21-3.66,9.22-8.78,17.88-12.27,27.17,9.76-4.34,20.68-9.97,31.62-6.29,6.09,2.05,8.6,6.72,4.42,12.29-2.85,3.8-12.44,7.84-16.97,9.68-5.6,2.28-12.52,3.76-17.82,6.2-.44.2-.94-.2-.76.83,7.98,17.35,15.96,34.71,24.06,52-1.05,5.05-1.98,10.35-2.54,15.48-1.75,15.95-1.87,29.1,2.17,44.72,5.49,21.23,16.78,42,31.72,57.88-9.39,8.66-19.11,17.85-28.21,26.65l-65.32-162.73c-10.95-3.3-19.15-13.82-20.29-25.17-.33-3.27.78-10.71.24-12.74-.75-2.81-7.78-11.8-9.79-15.32-2.86-5.01-10.47-18.31-4.97-23.18,5.31-4.7,16.84,3.06,20.73,7.15.24.26,2.84,3.1,2.94,3.3.37.75.39,2.62.8,2.89.37.24,1.31-.11,1.85.22,1.39.85,3.72,4.3,3.81,6.12-.68.54-5.56,5.21-5.67,5.59-.42,1.47.78,2.86,2.18,2.65.7-.1,9.38-7.27,11.39-8.44,4.39-2.54,11.26-5.11,16.21-6.25,1.89-.43,9.79-1.22,10.38-1.63.85-.57.82-2.96-.36-3.35-1.49-.49-6.81.29-8.66.59-6.78,1.09-14.93,4.11-20.78,7.69-2.44-4.73-2.15-9.59-3.97-14.57-.48-1.32-1.37-3.16-2.29-4.24,0-.35,0-.7,0-1.04.03-2.07-.52-3.02-.52-3.4v-7.84c0-.61-.69-3.67-1.04-4.44-.02-.7,0-1.39,0-2.09,2.39-6.02-1.44-13.82,8.36-12.54ZM238.51,161.1c-3.78,1.04-5.33,13.07-5.1,16.4.16,2.33,3.21,16,6.86,11.51,1.21-1.48-1.61-5.89-2.09-7.93-1.01-4.31-.9-8.7.58-12.89.53-1.49,5.02-8.55-.26-7.1Z"/><path class="cls-4" d="M673.8,201.78c.91,1.72-1.62,9.9-1.05,10.45.1.09,1.83-.05,2.63.24,1.59.55,4.93,4.19,6.28,3.2.74-.55.63-3.48,3.1-2.91,1.11,1.42,2.11,2.67,3.13,4.18-.44,1.84-3.8,2.15-4.13,3.49-.31,1.25.97,1.62,1.39,2.66,1.01,2.55,1.58,5.04,3.78,7.19.74.72,1.82.7,2.35,1.31.62.72.71,2.76,1.46,3.5.52.51,1.7.56,2.5,1.43.61.66.77,1.93,1.15,2.24.55.44,2.03.16,2.48,1.18-.27.32-3.21,2.25-3.64,2.39-2.5.83-1.8-1.32-2.61-2.54-1.53-2.33-4.9-.54-5.25-.89-.21-.21-.87-4.77-1.33-5.73-.57-1.18-3.05-2.52-3.61-3.7-.41-.87-.2-1.83-.78-2.88-.9-1.63-3.41-2.18-3.61-2.39-.43-.48.26-2.61-.14-3.03-.15-.15-1.03.1-1.36-.14-.41-.3-.33-1.25-.67-1.6-2.98-3.01-8.43-4.82-8.38,1.41.02,2.3,1.15,8.97,1.95,11.16.35.96.41,1.73,1.73,1.67-.5,2.69-1.23,4.57-2.72,6.95-1.35,2.15-6.38,6.13-4.89,8.24,2.9,4.1,9.93-7.75,10.74-9.96l3.93,2.6c1.35,3.07,4.5,2.4,6.23,5.26.93,1.53.88,3.46,1.92,4.87,1.96,2.65,4.44,2.3,3.06,7.13-.76,2.66-6.88,6.04-9.46,7-.93.35-3.08,1.16-3.9,1.33-2.13.45-7.04.14-8.57.83-.86.39-11.3,12.6-12.52,14.25-.87,1.19-1.93,2.49-2.64,3.76-.27-.83-1.13.52-1.33.75-19.79,22.83-39.23,46.25-58.75,69.26-10.48,12.36-21.74,25.33-32.19,37.8-2.89,3.45-6.14,8.2-8.73,11.18-1.11,1.28-3.47,2.2-3.49,4.31-9.91-20.06-20.87-40.67-29.78-61.13,1.02.01,1.45-.7,2.1-1.3,3.76-3.46,20.53-19.52,21.93-22.74,5.93-5.2,11.17-11.13,16.72-16.72,4.75-4.8,9.5-9.96,14.1-14.63,3.63-3.67,7.34-7.29,10.97-10.97,1.55-1.57,3.15-3.12,4.7-4.7,15.95-16.23,32.38-32.1,48.06-48.59l.49,4.47c.83.58,5.04-.08,5.54-.8.39-.56.19-1.84.49-2.64,1.05-2.77,1.37-4.03,1.83-7.05.34-2.26.46-4.92.51-7.28.02-.88.64-1.82.57-2.56-.02-.19-2.49-2.44-2.89-2.44-.8,0-1.52,1.06-2.34,1.33-2.16.72-3.68.81-5.76,2.34.11-2.02,1.95-3.41,3.4-4.72.44-.4,1.38-.34,1.68-.65.32-.34.14-1.28.66-1.68.81-.63,4.58-.92,5.91-1.81,1.12-.74,1.42-3.72,3.51-3.68-.29,1.82-.67,4.73-1.58,6.39-.48.87-2.38.99-2.08,2.49.82.14,4.52-.19,4.7,0,.23.25-.61,3.19,1.3,3.14.99-.24-1.17-3.82.52-3.13,1.78.72.86,3.68,2.35,4.46,1.79.94,2.04-1.42,3.66-1.33.27,1.02-.76,3.24.8,3.15.83-.05,4.95-2.24,5.48-2.88,1.84-2.2.42-4.59,1.28-6.03.58-.96,7.07-2.62,6.02-6.78.55.39.78.84,1.04,1.04Z"/><path class="cls-15" d="M554.18,912.36c-1.45,4.73-2.6,9.06-2.09,14.1-3.92.08-8.55,2.59-6.9,7.17,1.16,3.22,5.5,4.01,8.47,4.33l-1.57,5.75c-.17.17-.35.35-.52.52-.69.69-2.87,1.09-2.61,3.13-12.07,11.98-24.15,15.48-40.22,19.33l-57.03-123.48c-.66-1.42-.98-3.45-1.48-4.53l73.66-29.26c10.18,34.26,20.48,68.61,30.3,102.93Z"/><path class="cls-8" d="M142.02,620.29l54.85,59.3c-.7.15-3.13,1.04-3.53,1.42-.32.31-.06.87-.13.93-4.18,4.13-14.84,9.72-20.33,13.89-22.78,17.33-43.51,40.02-61.95,61.86-3.38,4-6.39,8.46-10.18,12.02-8.14-7.07-15.57-11.85-20.9-21.94-.94-1.78-1.68-4.03-2.71-5.94-.39-.73-.2-1.65-1.47-1.37-.05-.16.04-.36,0-.52-1-3.88-1.65-8.05-.52-12.02h8.88c.12,0,1.31-1.91,1.34-2.03.49-1.83.34-4.74-.98-6.17-.54-.58-2.2-1.03-2.36-1.3-.61-1.02,2.81-8.31,3.57-9.83,2.54-5.1,6.09-10.79,8.98-15.83,14.19-24.72,29.44-50.48,47.44-72.47Z"/><path class="cls-11" d="M490.45,602.53l-1.29,1.62c-51.12-6.54-101.7-16.61-149.81-35.19-13.08-5.05-27.53-11.07-39.93-17.54-3.27-1.71-4.76-2.13-2.78-6,3.77-7.37,8.74-14.9,12.75-22.36.61-1.13.82-4.52,2.54-4.56,55.29,20.04,111.9,38.82,171.2,42.22-.43,2.61.95,4.95,1.57,7.32,2.23,8.61,3.35,19.18,4.7,28.21-1.31.64-.18,1.59,0,2.09.09.24.37.48.52,1.04-.84.28-.74,1.65,0,2.09.03.14.42.5.52,1.04Z"/><path class="cls-1" d="M343.66,348.08c1.42,1.4,3.67,3.38,5.22,4.7l-2.9.49c-8.78,8.47-18.82,15.47-28.9,22.3-7.26,4.92-23.08,16.41-30.37,19.27-2.09.82-2.71-.51-1.96,3.52.7,3.76,6.55,24.92,8.01,27.51.49.88,1.75,1.46,2.06,2.15.38.87,0,6.25,2.87,5.52,1.98-.51,7.88-4.34,10.08-5.64,18.96-11.21,38.82-24.39,56.42-37.62,2.11-1.58,6.33-4.44,7.94-6.16.58-.62.85-.73.7-1.71-.41-2.56-2.32-5.71-3.06-8.23,2.5,5.05,5.5,10,7.84,15.15-.25.07-1.22,1.06-1.48,1.39-1.31,1.66-7.62,13.84-8.2,15.84-.2.69-.38,1.36-.23,2.08,4.44.67,9.16,2.44,13.57,2.92.96.1,1.7.44,2.6-.29-.48,2.41-.95,4.85-1.04,7.31-1.92-1.41-1.25-.61-3.26-1.17-2.29-.63-14.37-4.04-15.55-3.3l-12.83,25.34.3,1.32c22.61,5.96,45.88,10.12,69.22,12.28,8.49.79,17.31.46,25.62,2.06,2,1.18,1.45,4.46-1.05,4.77-4.33.53-12.1-.24-16.74-.56-9.47-.65-19.76-1.92-29.2-3.19-17.09-2.31-33.97-5.91-50.72-9.89-.69,0-.9.4-1.26.87-1.52,1.97-4.16,7.98-5.55,10.64-1.14,2.18-9.74,18.45-9.11,19.32,10.02,3.15,20.02,6.53,30.17,9.28,28.6,7.72,58.5,12.83,88.11,14.8,2.73.18,9.19-1.16,10.1,1.92.76,2.56-.36,3.53-2.75,3.81-2.88.34-10.31-.31-13.59-.53-34-2.3-70.01-10.35-102.53-20.23-2.33-.71-11.31-4.19-12.84-3.83l-15.49,30.85c37.52,13.67,75.47,27.16,114.8,34.87,17.64,3.46,35.51,5.67,53.4,7.45.44-.45-.97-7.33-1.07-8.65-.09-1.21.55-1.21.55-1.28l3.13,22.47c-.61-2.36-1.99-4.71-1.57-7.32-59.3-3.41-115.91-22.19-171.2-42.22-1.72.04-1.93,3.43-2.54,4.56-4.02,7.46-8.98,14.99-12.75,22.36-1.98,3.87-.49,4.29,2.78,6,12.39,6.47,26.85,12.49,39.93,17.54,48.11,18.58,98.68,28.65,149.81,35.19l1.29-1.62c2.07,10.62,3.23,21.48,5.27,32.14.09,2.63-4.31,2.14-6.32,2.35h-.52c.11-.23-.31-.92.32-1.07,1.75-.42,5.32,1.03,5.47-2.28.08-1.74-.46-4.31-.82-6.07-.77-3.79-2.34-8.01-2.86-11.77-.33-2.34,1.05-5.89-1.57-6.79-67.68-6.29-134.29-24.22-195.23-53.99l-.69.17c-1.08,1.18-1.77,2.85-2.63,4.08-1.1,1.59-3.07,3.87-3.53,5.99-.53,2.44.33,1.24,1.44,2.07.6.44,2.47,2.28,2.1,3.3-.1-.09-.42.09-.52,0-1.15-.98-4.87-3.77-4.5-5.23l30.04-58.24c-11.13-39.33-24.3-78.23-34.43-117.83l.66-.39c.63,3.32,2.43.3,3.86-.57,20.01-12.18,40.13-24.69,57.64-40.31ZM351.23,406.59v.52c.34-.17.34-.35,0-.52ZM349.92,407.64l-51.75,32.62-.38,1.97,5.65,19.75c.87.19,1.06-.28,1.55-.79,6.89-7.06,14.1-16.15,20.65-23.76,7.45-8.65,16.18-18.18,22.93-27.23.34-.46,1.74-2.17,1.35-2.56Z"/><path class="cls-11" d="M495.67,367.41c.53-.3,3.44-1.77,3.65-1.57,10.92,28.05,26.95,53.88,43.77,78.77,1.01,3.89-4.62,10.01-6.68,13.32-.53.86-.94,1.4-1.57,2.48-.86,1.49-1.83,4.31-3.66,5.22-.28.14-1.37-.2-1.54.02-.25.32.26,1.67-.1,2.02-.18.18-1.04-.11-1.37.17-.23.2-1.9,3.5-2.22,4.06-.33.21-.91.03-1.59.75-1.08,1.14-2.28,4.73-4.41,4.52-1.01-.1-5.51-7.27-6.45-8.75-15.6-24.58-28.26-52.43-37.62-79.99-.35-1.89,2.09-2.5,2.9-3.41.39-.44.39-1.2.69-1.53.54-.6,3.05-2.06,2.08-3.02.58-.49,1.08-1.19,1.57-1.57,1.82-1.41,4.24-2.82,6.12-4.29.16-.12,1.97-2.92,1.71-3.54.27-.12.85-.4,1.04-.52l.52-.52c1.33-1.09,1.11-1.48,3.13-2.61Z"/><path class="cls-6" d="M552.09,943.71c2.49-2.49,2.37-6.02,2.61-6.27.1-.1,2.11.06,2.81-.06,1.84-.31,3.75-.73,5.55-1.25,2.24-.65,7.56-3.81,8.47-3.81,3.66.03,1.17,1.91.55,3.43-1.05,2.6-3.25,6.57,1.61,5.37.42-.1,2.77-6.7,3.46-7.65.4-.28,2.27.29,3.15.31.35,0,.7,0,1.04,0l4.18,1.05c-.32,2.11-4.29,8.92-1.29,9.42,4.36.73,2.56-8.35,5.99-8.91.75-.12,1.78.03,2.61,0l3.13.53c-.5,4.06-1.18,8.2-1.56,12.28-.16,1.68.51,5.81-.51,6.8l-80.1,36.32-.89-1.07-7.84-21.2c-.3-2.01,2.14-1.94,3.66-2.31,16.08-3.85,28.16-7.35,40.22-19.33.94-.93,2.57-1.53,2.61-3.13.17-.17.35-.35.52-.52Z"/><path class="cls-6" d="M38.06,708.59c1.12.43,2.71.42,4.18,1.04.48.2.88.65,1.55.55-.1,1.76-2.02,9.75-.18,10.36,4.06,1.36,3.15-5.09,3.32-7.54.12-1.61-.23-1.34,1.57-1.28,1.2.67,4.04.73,5.22,1.04.33.09,1.27.58,1.59.86.59,2.19-.88,7.44-.18,8.93.94,1.99,3.81,1.2,3.81.4v-8.1c3.33-.12,4.25,4.07,6.78,6.54,1.55,1.51,8.33,5.47,8.66,6.01.48.77-.67,2.37-.77,3.43-.3,3.09.09,6.56,2.05,9.1.04.16-.05.36,0,.52.74,2.51,2.22,5.55,4.18,7.31,5.32,10.1,12.75,14.88,20.9,21.94.85.74,5.81,5.34,5.71,5.94-.32,1.83-14.09,12.46-15.63,15.49-1.93,1.5-1.82,1.13-3.4-.52l-55.04-62.51c-.42-.59-.61-1.15-.5-1.89.32-2.08,2.57-6.71,3.3-9.27.65-2.28.84-4.33,1.3-6.54.23-1.12,0-1.84,1.57-1.82Z"/><path class="cls-9" d="M519.7,795.32c.05.28.45.4.52.52,1.26,2.2,2.73,10.45,3.66,13.58l-73.66,29.26c-1.6-3.47-3.98-7.15-5.67-10.78-1.5-3.21-7.13-13.84-7.39-16.38-.03-.26-.06-.92,0-1.04,1.43-.23,3.62.34,4.88,0,.56-.15.29-1.05.34-1.05h7.31c.06,0-.22-.9.34-1.05,1.87-.5,6.32-.53,8.71-1.04,3.81-.82,8.8-2.19,12.73-3.12,4.4-1.04,10.34-1.1,14.95-2.11.39-.09.7-1.63,1.78-1.42l31.49-5.36Z"/><path class="cls-2" d="M38.06,708.59c-1.58-.01-1.34.7-1.57,1.82-.46,2.21-.65,4.26-1.3,6.54-.74,2.56-2.98,7.19-3.3,9.27-.11.74.08,1.3.5,1.89l55.04,62.51c1.58,1.64,1.48,2.01,3.4.52-.42,2,.72,4.08.51,5.96-.4,3.57-5.33,7.19-8.62,4.51-24.32-28.33-50.51-55.18-74.41-83.89-7.44-8.94-15.83-18.34,3.93-16.99,10.05.69,16.96,4.4,25.83,7.86Z"/><path class="cls-9" d="M158.73,603.57c13.52,17.04,27.78,35.5,41.56,53.26,3.47,4.47,11.13,15.64,14.85,18.84v2.09c-2.48-.24-8.95.69-11.62,1.18-3.53.64-6.97,1.76-10.32,3,.06-.06-.2-.62.13-.93.4-.38,2.83-1.27,3.53-1.42l-54.85-59.3c2.76-3.37,5.34-6.44,8.61-9.42,2.57-2.34,6.49-4.25,8.11-7.3Z"/><path class="cls-2" d="M512.91,990.21l.89,1.07,80.1-36.32c1.02-.99.36-5.12.51-6.8.38-4.08,1.06-8.22,1.56-12.28l-3.13-.53c10.33-.33,24.01,1.26,33.57,5.35,4.11,1.76,8.1,4.46,4.02,9-34.31,15.79-68.39,32.4-103.05,47.4-2.69,1.16-11.18,5.38-13.43,4.93-3.23-.64-4.9-4.38-3.68-7.42.65-1.61,2.6-2.4,2.65-4.4Z"/><path class="cls-11" d="M502.98,360.09c4.66-4.45,9.22-9.09,13.85-13.58.88-.35,1.04.98,1.3,1.56,8.9,20.46,19.87,41.07,29.78,61.13,3.38,6.84,7.14,13.62,9.97,20.68.1,1.61-.72,1.1-1.07,1.66-2.2,3.57-4.85,6.7-7.33,10.06.31-1.7-1.26-.67-2.34-1.57-.95-.79-4.63-6.36-5.71-7.88-5.7-8.06-11.48-17.83-16.4-26.44-8.39-14.68-15.75-29.91-22.04-45.62Z"/><path class="cls-9" d="M301.87,244.1c.29.84,1.02,1.98,1.04,2.09.92,4.98-.37,13.52-.02,19.09,1.42,22.97,14.46,51.98,28.75,69.73-2.58,1.84-4.72,4.18-7.05,6.29-.43.39-1.18.39-1.3.5-14.94-15.89-26.22-36.66-31.72-57.88-4.04-15.62-3.92-28.76-2.17-44.72.56-5.13,1.49-10.43,2.54-15.48,3.16,6.76,7.48,13.27,9.93,20.38Z"/><path class="cls-13" d="M344.18,708.07c1.67.15.93-.29.41-1.19-.91-1.56-2.07-3.24-3.12-4.72-11.37-16.07-24.88-30.42-39.21-43.86-1.28-1.87.32-4.62,2.48-4.55,1,.03,5.72,4.22,6.8,5.19,18.92,17.05,39.34,44.57,52.92,66.2,17.3,27.55,32.19,58.3,42.92,88.99-.16.27.36,1.43-.28,1.6-.4.11-3.61.04-3.83-.1-.39-.25-2.57-7.39-3.1-8.66-3.88-9.19-8.24-17.91-12.64-26.81-8.1-16.36-16.57-33.08-26.22-48.75-3.4-5.53-12.27-20.46-17.14-23.35Z"/><path class="cls-11" d="M331.64,335.01c2.79,3.47,8.62,9.71,12.01,13.06-17.51,15.62-37.63,28.13-57.64,40.31-1.43.87-3.23,3.9-3.86.57l-.66.39c-.42-1.64-2.11-4.01-1.31-5.73,4.44-4.82,9.39-9.11,14.08-13.65.45-.43.58-1.29.81-1.52,9.1-8.79,18.82-17.99,28.21-26.65.13-.12.88-.12,1.3-.5,2.33-2.11,4.48-4.45,7.05-6.29Z"/><path class="cls-8" d="M647.68,192.9l2.1.25c-.27-1.92-.84-3.83-1.04-5.75-1.16-10.64-3.47-35.66.57-44.87,1.4-3.2,3.2-4.71,6.88-3.86s6.32,8.25,7.4,11.4c4.52,13.16,5.77,27.47,7.08,41.26l4.17-4.18c-.95,2.85-.71,6.09-1.57,8.88-1.72-1.1-8.18-4.81-9.79-5.14s-2.77.7-2.73,2.28c.04,1.99,4.65,3.01,6.09,3.81,1.95,1.08,4.1,2.45,5.91,3.75,1.05,4.16-5.44,5.82-6.02,6.78-.87,1.44.56,3.83-1.28,6.03-.54.64-4.65,2.84-5.48,2.88-1.56.08-.53-2.14-.8-3.15-1.62-.08-1.87,2.27-3.66,1.33-1.5-.79-.58-3.74-2.35-4.46s.47,2.89-.52,3.13c-1.91.05-1.07-2.9-1.3-3.14-.18-.19-3.88.14-4.7,0-.3-1.5,1.6-1.62,2.08-2.49.91-1.66,1.29-4.56,1.58-6.39.03-.17-.02-.35,0-.52.03-.36.65-.87.52-2.09,1.35-1.3,3-3.72,3.76-5.39,1.24-2.76.93-5.28,3.8-7.69.28-.24,6.06-3.4,6.41-3.52.8-.28,3.36-.15,3.72-.72.29-.47-.35-7.31-.5-8.49-.38-3.01-1.38-9.69-2.28-12.35-.58-1.73-2.02-2.71-3.63-1.5l-4.72,6.25c-3.2,1.48-3.88,4.15-6.29,6.25-.64.56-2.18.98-2.27,1.12-.34.54.32,11.1.44,12.72.3,3.96.42,6.33.52,10.19-1.14-.56-1.62-1.94-2.09-2.61Z"/><path class="cls-8" d="M694.7,202.82c.16-.73.58-2.3.53-2.86-.09-.94-3.49-4.18-4.45-4.97-2.16-1.79-3.81-2.67-6.02-4.94-1.77-1.82-3.93-5.99-6.92-5.52-.52.08-1.49,2.82-2.98,2.1.61-1.53,6.21-7.39,7.81-9.15,4.26-4.71,14.85-16.42,20.9-17.27,8.73-1.24,6.78,8.92,5.38,14.28-1.76,6.73-6.03,14.75-9.44,20.87-1.32,2.36-3.21,5.26-4.8,7.47Z"/><path class="cls-7" d="M674.85,186.63c1.49.72,2.46-2.01,2.98-2.1,2.99-.47,5.16,3.7,6.92,5.52,2.21,2.28,3.87,3.15,6.02,4.94.96.79,4.35,4.03,4.45,4.97.06.56-.36,2.13-.53,2.86-.25,1.1-.64,1.67-1.04,2.61-1.07-.15-1.2-.03-1.04,1.04-.27.54-1.29,3.4-1.04,3.65,2.27-.13,3.34-1.32,5.74-1.56.7-.07,3.22-.15,3.58.07.33.2,1.35,6.55,1.54,7.65.16.91-.37,1.77-.26,2.39.88,5.14,2.91,4.41,5.33,7.63,3.12,4.16-1.21,4.82-3.75,7.5-.25.26-.1.79-.18.87-1.08,1.19-1.33,1.46-2.61,2.09-2.28,1.11-.75,1.57-2.09,3.13-.45-1.01-1.94-.73-2.48-1.18-.38-.31-.54-1.58-1.15-2.24-.8-.86-1.97-.91-2.5-1.43-.76-.75-.85-2.78-1.46-3.5-.53-.61-1.61-.59-2.35-1.31-2.2-2.15-2.76-4.65-3.78-7.19-.41-1.04-1.7-1.41-1.39-2.66.34-1.34,3.69-1.64,4.13-3.49,1.06,1.57,3.6,7.63,5.74,6.56,2.96-1.48-.8-7.18-1.97-9.03-4.24-6.71-11.74-14.17-18.4-18.43.86-2.79.62-6.03,1.57-8.88.05-.16-.06-.38,0-.52Z"/><path class="cls-1" d="M481.57,380.47c.97.96-1.54,2.42-2.08,3.02-.3.33-.29,1.09-.69,1.53-.81.91-3.25,1.52-2.9,3.41,9.36,27.56,22.02,55.41,37.62,79.99.94,1.48,5.44,8.65,6.45,8.75,2.13.21,3.33-3.38,4.41-4.52.68-.72,1.26-.53,1.59-.75.32-.56,1.98-3.86,2.22-4.06.33-.28,1.19,0,1.37-.17.35-.36-.15-1.7.1-2.02.17-.22,1.27.12,1.54-.02-.69,1.09-3.56,5.63-4.31,6.15-.36.25-.81.05-.91.12-2.28,3.99-5.07,7.91-8.02,11.57-.55.69-.73,1.57-1.9,1.49.03-.97.11-1.62-.28-2.58-2.73-6.69-10.04-15.92-13.91-22.67-9.37-16.35-18.42-34.98-25.33-52.51-1.8-4.56-2.95-9.47-4.8-13.99-.54-1.32-1.06-.62-2.17-.72,4.06-3.95,7.66-8.34,12.01-12.02Z"/><path class="cls-1" d="M502.98,360.09c6.29,15.7,13.65,30.94,22.04,45.62,4.92,8.61,10.7,18.37,16.4,26.44,1.08,1.52,4.76,7.09,5.71,7.88,1.08.9,2.66-.13,2.34,1.57-4.44,6.01-8.43,11.54-13.04,17.55-.48.62-.47,1.51-1.59,1.26.63-1.08,1.03-1.62,1.57-2.48,2.05-3.31,7.69-9.43,6.68-13.32-16.82-24.89-32.84-50.72-43.77-78.77-.21-.2-3.12,1.27-3.65,1.57,1.71-2.83,4.9-5.01,7.31-7.31Z"/><path class="cls-1" d="M483.66,528.33c.17-.31.12-.98.36-1.43.59-1.12,3.09-2.83,2.56-4.84-10.94-19.25-21.27-38.96-30.08-59.3-2.7-6.23-10.21-22.18-9.98-28.22.11-2.96,2.76-4.92,4.34-1.67,1.42,2.91,2.44,8.76,3.82,12.38,3.57,9.39,8.86,20.44,13.22,29.62,6.7,14.11,14.26,27.85,21.58,41.64,1.91,2.56,2.88-.93,3.72-1.64.33-.28.86-.06.92-.12l-10.45,13.58Z"/><path class="cls-8" d="M697.31,208.57c.39-.89,1.25-1.04,2.03-1.35,7.22-2.94,32.15-13.09,28.67,3.59-.69,3.32-6.96,9.86-9.71,12.36l-14.73,11.54c.07-.08-.07-.61.18-.87,2.54-2.68,6.87-3.34,3.75-7.5-2.42-3.23-4.45-2.5-5.33-7.63-.11-.62.42-1.48.26-2.39-.19-1.1-1.21-7.45-1.54-7.65-.36-.22-2.89-.14-3.58-.07Z"/><path class="cls-14" d="M652.39,285.9c-16.13,28.6-27.51,50.99-56.58,68.81l-3.5,1.2c19.51-23.01,38.95-46.43,58.75-69.26.2-.23,1.06-1.58,1.33-.75Z"/><path class="cls-8" d="M671.19,233.65c-1.32.06-1.37-.7-1.73-1.67-.81-2.19-1.93-8.85-1.95-11.16-.05-6.23,5.4-4.42,8.38-1.41.34.34.25,1.3.67,1.6.34.24,1.21-.01,1.36.14.4.42-.29,2.55.14,3.03.19.22,2.71.76,3.61,2.39.58,1.05.36,2.01.78,2.88.56,1.18,3.05,2.52,3.61,3.7.46.96,1.12,5.52,1.33,5.73.34.35,3.71-1.44,5.25.89.8,1.22.11,3.37,2.61,2.54.43-.14,3.37-2.08,3.64-2.39,1.34-1.57-.19-2.02,2.09-3.13-2.54,7.66-4.78,16.95-11.49,21.94,1.38-4.82-1.11-4.48-3.06-7.13-1.04-1.41-.99-3.34-1.92-4.87-1.73-2.86-4.89-2.18-6.23-5.26l-3.93-2.6c.66-1.81,1.42-5.11,1.59-7.03.17-2.06.33-10.44-2.37-10.75-4.09-.46-1.84,5.08-1.8,7.57.04,1.98-.2,3.13-.55,4.99Z"/><path class="cls-2" d="M555.22,912.88c-1.83,4.31-2.98,8.85-2.61,13.59,4.78-.37,9.41.99,14.1,1.57.16-3.15-.12-6.29-.52-9.41,3.57-1.02,4.27-5.53,8.6-4.7s1.79,9.36.66,12.13c-.64,1.57-2.96,3.58-1.97,5.29.18.32,6.01.72,6.81,2.43-.89-.02-2.75-.59-3.15-.31-.69.95-3.04,7.55-3.46,7.65-4.86,1.2-2.66-2.77-1.61-5.37.61-1.51,3.11-3.39-.55-3.43-.91,0-6.23,3.16-8.47,3.81-1.8.52-3.7.93-5.55,1.25-.7.12-2.71-.04-2.81.06-.25.25-.12,3.78-2.61,6.27l1.57-5.75c-2.97-.31-7.31-1.11-8.47-4.33-1.65-4.57,2.98-7.09,6.9-7.17-.51-5.04.64-9.38,2.09-14.1l1.04.52ZM554.18,933.78c3.01.09,7.78-.32,9.92-2.61-3.46-.98-7.02-1.16-10.45-1.05-.17,0-.66-.47-1.21-.37-6.09,1.14-3.29,3.88,1.73,4.02Z"/><path class="cls-2" d="M69.41,708.59c-.23,2.14-2.26,3.23-2.61,5.22l14.3,3.7c.46-.1,2.78-8.01,2.94-8.92l.31.47,1.26-.47c-.76,1.53-4.18,8.82-3.57,9.83.16.27,1.82.72,2.36,1.3,1.32,1.43,1.47,4.34.98,6.17-.03.12-1.22,2.03-1.34,2.03h-8.88c-1.13,3.97-.47,8.14.52,12.02-1.96-2.54-2.35-6.01-2.05-9.1.11-1.07,1.25-2.66.77-3.43-.33-.53-7.1-4.5-8.66-6.01-2.54-2.46-3.46-6.66-6.78-6.54v8.1c0,.79-2.87,1.58-3.81-.4-.7-1.49.77-6.74.18-8.93-.33-.27-1.26-.76-1.59-.86.85-.39,3.24-1.57,3.93-1.56.95.02,1.29,1.27,2.34,1.04v-10.19c0-4.18,7.66-5.52,8.77-.41.1.47.67,6.6.63,6.94ZM78.29,723.22c-.59,2.66,2.25,1.27,3.66,1.57.2-4.17-1.22-2.52-2.61-3.13-.08-.04-.44-.76-1.25-1.07-3.05-1.18-6.47-2.12-9.72-2.58,1.47,2.07,3.48,3.81,5.74,4.96,1.63.83,2.66,1.94,4.19.26Z"/><path class="cls-6" d="M566.19,918.63c.4,3.11.68,6.25.52,9.41-4.7-.58-9.32-1.93-14.1-1.57-.37-4.73.78-9.27,2.61-13.59,1.01-2.37,3.43-8.06,6.77-6.54,2.68,1.22,3.83,9.43,4.2,12.28Z"/><path class="cls-6" d="M69.41,708.59c2.41-2.56,7.27-12.15,10.74-12.53,4.65-.52,4.42,9.52,3.89,12.53-.16.91-2.48,8.83-2.94,8.92l-14.3-3.7c.35-1.99,2.38-3.08,2.61-5.22Z"/><path class="cls-7" d="M489.4,637.01c-.05,1.45.4,2.81.79,4.18,11.13,39.77,25.6,79.09,35.26,119.13l-5.08-15.03c-8.81-31.94-19.85-63.36-28.87-95.21-1.17-4.12-1.94-8.42-3.13-12.54.12-.2.45-.36.52-.52h.52Z"/><path class="cls-7" d="M242.84,581.63c.29,1.58-.8,1.01-1.8,1.05-14.59.49-33.86-1.77-47.6-.04-1,.13-.55,1.1-1.5,1.13l-45.23.21c-1.56,1.7.2,1.7.53,2.22,1.82,2.88,3.67,5.79,5.23,8.5-1.34-1.08-8.91-10.52-8.87-11.24.02-.28.86-.82,1.29-.78,32.73.07,65.25-.9,97.95-1.04Z"/><path class="cls-7" d="M387.54,780.17c4.4,8.9,8.76,17.62,12.64,26.81.53,1.27,2.72,8.41,3.1,8.66.22.14,3.43.21,3.83.1.64-.17.13-1.34.28-1.6.4-.68,4.49-.33,5.39-.53.42-.09.13-.95,1.1-1.08,3.34-.44,8.89-.28,11.95-1.02.39-.1.33-.94.71-1.03,2.96-.64,8.08-1.8,10.62-2.1-.57,1.66,1.57.71,1.57,1.31-.24.59-1.19.01-1.57.78-.06.12-.03.79,0,1.04-.65-1.5-1.99-1.15-3.33-.99-6.27.75-17.41,2.67-23.45,4.24-1.89.49-4.26,3.44-7.17,2.26l-15.66-36.86Z"/><path class="cls-8" d="M229.78,145.87c-1.15.71-3.73,2.37-4.7,3.13-.09-1.82-2.42-5.27-3.81-6.12-.54-.33-1.48.02-1.85-.22-.42-.27-.44-2.14-.8-2.89-.1-.21-2.7-3.05-2.94-3.3,2.7.49,8.81,8.38,10.43,8.64.67.11.64-.05,1.05-.53-.91-5.41-3.56-12.11-3.64-17.51.92,1.08,1.81,2.92,2.29,4.24,1.83,4.98,1.54,9.85,3.97,14.57Z"/><path class="cls-2" d="M581.34,933.78c1.36,0,6.65-.56,6.98-.47.62.18,1.06,1.74,1.9,2.03-3.44.56-1.64,9.64-5.99,8.91-3-.51.97-7.31,1.29-9.42l-4.18-1.05Z"/><path class="cls-2" d="M48.51,711.72c-1.8-.06-1.45-.33-1.57,1.28-.18,2.45.74,8.9-3.32,7.54-1.84-.62.08-8.6.18-10.36-.67.1-1.07-.34-1.55-.55,1.09.21,2.28-.62,3.27-.42,1.33.27,2.46,2.21,2.99,2.51Z"/><path class="cls-7" d="M531.72,779.65c1.07,1.47,4.29,12.45,3.66,13.06-4.44.67-8.93,1.28-13.35,2.07-.96.17-1.3-.08-1.8,1.06-.07-.12-.47-.24-.52-.52v-.52c3.27-2.15,5.53-1.5,9.7-2.05.97-.13.69-.98,1.11-1.07.99-.23,2.25.11,3.3-.01-.79-3.83-1.26-8.26-2.09-12.01Z"/><path class="cls-7" d="M225.08,688.74c.83-.92,1.39.13,1.88.72,1.23,1.49,2.62,3.43,3.69,5.05,2.78-.33,6.16.35,8.83.01,1-.13.5-1,1.5-1.13,1.82-.23,5.34-.18,7.09.56-.11.01-.42.44-.83.48-5.35.56-10.76.86-16.05,2.05-.7-.17-5.54-6.63-6.1-7.76Z"/><path class="cls-8" d="M254.33,693.44c-.29-1.58.8-1.01,1.8-1.05,11.01-.37,23.53-.44,34.52,0,1.01.04,2.1-.54,1.8,1.05-2.41-.22-6.92-.52-9.14-.52h-20.9c-1.98,0-5.81.36-8.1.52Z"/><path class="cls-5" d="M257.46,581.1c6.35,0,12.72-.08,19.07,0,.88,0,2.32-.33,2.87.53-11.99.24-24.05-.05-36.04,0,.54-.87,1.98-.52,2.87-.53,3.74-.05,7.5.01,11.24,0Z"/><path class="cls-8" d="M230.3,95.72c-9.8-1.28-5.97,6.52-8.36,12.54,0-.08-.37-.52-.36-1.04.13-4.89.31-14.58,7.85-12.44.63.18.75.88.87.94Z"/><path class="cls-4" d="M284.63,580.58c-.08.07.29.92-.33,1.07-1.06.26-3.53-.05-4.9-.02-.54-.87-1.98-.52-2.87-.53-6.35-.07-12.73,0-19.07,0l27.16-.52Z"/><path class="cls-7" d="M215.15,675.67c4.98,4.29,6.2,6.24,9.4,12.02-3.01-1.73-5.17-7.57-7.55-9.44-.7-.55-1.1-.41-1.85-.48v-2.09Z"/><path class="cls-9" d="M290.9,570.65c.7.59,2.34,2.39,2.61,2.61-3.95-.8-5.01,4.52-6.27,7.31-.4.09-.94-.51-1.04-.52,1.28-3.11,3.63-6.05,4.18-9.4.1.09.42-.09.52,0Z"/><path class="cls-7" d="M529.63,773.9c-1.69-4.56-3.04-8.25-4.18-13.06,2.03,1.66,1.72,5.02,2.98,7.21l1.2,5.85Z"/><path class="cls-1" d="M494.63,514.23c-1.5-2.62,2.95-5.52,4.7-6.79-.73,2.46-2.92,4.97-4.7,6.79Z"/><path class="cls-8" d="M223.51,126.02c-1.56-5.04-1.44-10.48-1.57-15.67.36.77,1.04,3.83,1.04,4.44v7.84c0,.37.55,1.32.52,3.4Z"/><path class="cls-1" d="M516.04,485.49c-.27,1.42-.84,1.21-1.04,1.57l-.51-.25c.53-.82.38-1.61,1.55-1.31Z"/><path class="cls-1" d="M489.4,598.35c-.18-.5-1.31-1.45,0-2.09.09.62.83,1.23,0,2.09Z"/><path class="cls-1" d="M489.92,601.48c-.74-.44-.84-1.81,0-2.09.29,1.07-.02,1.98,0,2.09Z"/><path class="cls-7" d="M531.72,779.13c-1.21.17-1.44-.18-.52-1.04.01.06.36.24.52,1.04Z"/><path class="cls-8" d="M693.65,205.44c-.3.7-1,.96-1.04,1.04-.15-1.07-.03-1.19,1.04-1.04Z"/><path class="cls-7" d="M152.47,595.21c1.08-.14,1.19-.03,1.04,1.04-.07-.12-.65-.34-1.04-1.04Z"/><path class="cls-9" d="M568.28,292.69c1.56-.09,3.14.06,4.7,0-4.61,4.67-9.35,9.83-14.1,14.63-.55-.94-2.28.14-2.97.43-4.63,2.02-9.06,4.8-11.42,9.47-1.13,2.23-1.39,4.65-2.33,6.81-1.4,3.22-18.17,19.28-21.93,22.74-.64.59-1.07,1.31-2.1,1.3-.25-.58-.42-1.92-1.3-1.56-4.63,4.49-9.19,9.13-13.85,13.58-2.41,2.3-5.61,4.48-7.31,7.31-2.02,1.13-1.81,1.52-3.13,2.61-.19.16-.35.41-.52.52-.19.12-.77.4-1.04.52-2.5,1.15-6.17,2.24-8.93,3.38-.8.33-1.83-.05-1.52,1.32-2.19-.51-9.59,2.38-12.42,2.99-2.58.57-5.46.73-7.96,1.19l-1.54-.76c19.13-13.86,37.58-28.62,56.43-42.83,5.13-3.86,18.61-11.96,21.81-16.33,5.26-7.18,7.09-17.42,15.24-22.64,2.81-1.8,8.65-3.63,12.01-4.18,1.46-.24,2.67-.44,4.18-.52Z"/><path class="cls-16" d="M452.75,90.58c.62.38,4.48,11.51,5.46,13.61,5.66,12.07,14.43,26,26.01,33.02,14.26,8.65,17.92-2.55,19.74-14.65.21-1.37.2-6.67.66-7.43.86-1.41,3.94-1.01,4.5,1.88,1.45,7.5,1.61,12.3,4.9,19.65,7.54,16.85,29.89,52.41,51.33,49.4,1.64-.23,5.85-3.08,6.09-.21.22,2.62-5.57,4.2-7.68,4.36-20.81,1.66-40.89-28.93-49.57-44.86-2.92-5.36-5.17-11.01-7.3-16.73-2.77,11.24-8.58,19.41-21.15,13.83-15.6-6.92-27.3-26.97-33.53-42.22-.63-1.55-3.92-8.65-2.55-9.52.53-.34,2.58-.46,3.08-.15Z"/><path class="cls-16" d="M469.45,31.61c21.78-1.49,53.97,19.7,69.06,34.59,14.98,14.78,31.25,39.87,34.77,60.84.36,2.12,1.62,8.66.02,10-3.64,3.06-3.2-7.1-3.48-8.63-4.21-22.87-21.97-49.01-39.13-64.31-15.72-14.02-66.14-46.48-79.67-15.93-.8,1.82-1.08,6.11-3.16,6.29-4.13.37-1.19-6.27-.33-8.21,3.98-8.93,12.32-13.98,21.93-14.64Z"/><path class="cls-7" d="M650.3,200.73c-.02.17.03.35,0,.52-2.08-.04-2.39,2.94-3.51,3.68-1.33.89-5.1,1.18-5.91,1.81-.51.4-.34,1.34-.66,1.68-.3.32-1.24.26-1.68.65-1.45,1.31-3.29,2.7-3.4,4.72-.02.36-.07,1.47,0,1.57.04.05.77-.09.9.14.23.41.11.86.15.91-1.32.41-.95-.97-1.04-1.04-6.26-5.17-12.39-8.56-18.03-15.14-12.16-14.21.09-19.73,13.84-14.37,7.45,2.9,13.8,9.36,19.34,14.88Z"/><path class="cls-16" d="M548.53,141.06c-.51-.3-5.4-8.52-6.47-9.98-13.09-17.92-29.81-32.87-49.18-43.81-12.07-6.82-39.89-18.07-52.08-8.02-5.34,4.41-1.84,9.64-3.35,11.8s-3.93-.29-4-2.9c-.38-14.6,13.68-17.22,25.41-16.48,31.13,1.96,69.68,33.38,87.17,58.06,1.29,1.82,6.69,9.06,5.31,10.96-.43.6-2.2.73-2.81.38Z"/><path class="cls-16" d="M568.28,292.69c-1.51.08-2.72.28-4.18.52-.99-6.99-3.25-13.7-4.09-20.72-2.23-18.57-.27-39.18,6.31-56.73,4.26-11.36,15.31-32.57,30.34-23.3,1.48.92,9.55,7.55,4.77,8.3-2.39.38-4.18-3.15-6.02-4.44-11.57-8.07-20.12,8.68-23.92,17.28-10.76,24.35-10.82,53.82-3.21,79.08Z"/><path class="cls-16" d="M351.49,146.4c-6.7-20.04-6.29-45.62,7.85-62.42,10.87-12.91,24.99-18.84,40.74-9.95,2.2,1.24,7.52,4.37,6.81,7.24s-8.16-3.67-9.61-4.45c-19.89-10.7-37.8,7.64-43.55,25.58-2.99,9.33-3.43,19.87-2.18,29.56.52,3.99,2.05,7.81,2.02,11.82-.54.62-1.32,1.72-2.09,2.61Z"/><path class="cls-7" d="M649.77,195.51c-.09-3.86-.22-6.23-.52-10.19-.12-1.62-.79-12.18-.44-12.72.09-.14,1.63-.56,2.27-1.12,2.41-2.1,3.09-4.77,6.29-6.25l4.72-6.25c1.62-1.21,3.05-.22,3.63,1.5.9,2.66,1.9,9.34,2.28,12.35.15,1.19.79,8.03.5,8.49-.36.57-2.92.45-3.72.72-.35.12-6.13,3.28-6.41,3.52-2.87,2.41-2.56,4.93-3.8,7.69-.75,1.67-2.41,4.08-3.76,5.39-.04-.4-1.03-2.47-1.04-3.13Z"/><path class="cls-3" d="M510.3,163.64c.34.14,5.6,3.22,6.27,3.66,7.25,4.8,15.91,16.27,16.72,25.08.47,5.11-3.91,6.12-5.49,2.1-.56-1.43-.55-3.36-1.2-5.07-2.79-7.28-7.18-12.69-13.68-16.89-4.96-3.2-10.94-5.72-16.98-5.75-2.44-.01-11.29,2.74-12.19.17-1.32-3.74,3.24-4.87,5.97-5.36,5.21-.93,15.69.04,20.59,2.05Z"/><path class="cls-3" d="M390.67,121.32c3.18-.06,7.43.54,10.45,1.57,3.25,1.11,14.43,7.84,15.44,10.95.88,2.7-1.33,5.15-3.94,3.94-.95-.44-4.51-4.3-6.11-5.39-8.53-5.85-16.88-7.02-26.3-2.45-2.15,1.04-4.94,4.41-7.29,2.09-3.5-3.44,4.54-7.45,7.17-8.49,3.19-1.26,7.14-2.15,10.58-2.22Z"/><path class="cls-16" d="M588.66,277.02c-1.55,1.58-3.15,3.13-4.7,4.7,1.08-14.4,4.43-29.49,11.22-42.33,1.04-1.96,5.12-9.28,6.91-9.82,1.17-.35,2.67-.26,2.79,1.21.11,1.31-4.95,8.19-6.05,10.17-5.96,10.82-9.61,23.74-10.18,36.06Z"/><path class="cls-16" d="M367.16,129.68c-.9.88-2.63,2.1-3.13,2.61-.91-.52-.87-1.46-1.07-2.33-3.2-14.17.03-34.38,16.32-38.58,2.16-.56,10.74-1.75,10.85,1.45.13,3.71-6.32,1.52-9.13,1.84-13.41,1.53-18.52,24.47-13.84,35.01Z"/><path class="cls-8" d="M635.15,213.8c2.08-1.53,3.6-1.61,5.76-2.34.82-.27,1.55-1.33,2.34-1.33.4,0,2.87,2.25,2.89,2.44.07.74-.55,1.68-.57,2.56-.05,2.36-.17,5.02-.51,7.28-.46,3.02-.78,4.28-1.83,7.05-.3.8-.1,2.08-.49,2.64-.5.72-4.71,1.38-5.54.8l-.49-4.47c.84-.89,5.28-5.8,5.17-6.46-1.56-2.26-4.05-3.39-5.69-5.56-.03-.04.09-.49-.15-.91-.13-.23-.86-.09-.9-.14-.07-.09-.02-1.21,0-1.57Z"/><path class="cls-7" d="M516.57,167.3c-.67-.44-5.93-3.52-6.27-3.66-.02-4.57-1.49-8.97-1.94-13.48-.06-.57-.62-1.78.36-1.67l7.84,18.81Z"/><path class="cls-13" d="M293.51,573.27c18.6,15,39.83,27.69,60.93,38.07,41.31,20.31,87.65,31.01,133.91,26.2,1.19,4.12,1.97,8.42,3.13,12.54-18.89,1.5-37.73-.01-56.42-2.61,1.61,20.24,20.76,36.35,39.18,42.07,2.09.65,12.47,2.53,12.94,2.99,1.22,1.19.74,4.08-.93,4.83-2.39,1.07-12.36-1.99-15.27-2.99-20.71-7.13-40.81-25.3-41.72-48.4-26.95-5.39-52.75-16.04-77.44-27.82-2.08-.99-9.45-5.41-11.02-5.17-1.3,4.02-3.19,7.83-4.31,11.93-1.41,5.11-4.52,19.12,2.22,21.52,1.05.37.7-.58.9-1.14,2.57-7.04,5.51-17.88,9.46-24,2.04-3.16,3.8-2.35,4.99.84-3.03,9.13-6.99,17.9-10.03,27.04-.96,2.88-3,12.82-4.59,14.23-2.03,1.79-4.11-.19-4.2-2.58s2.31-7.79,2.06-8.84c-.19-.8-3.59-2.3-4.44-3.1-5.79-5.49-4.41-15.47-2.64-22.4,1.19-4.67,4.6-10.45,5.38-14.49.14-.73.46-1.41-.02-2.12-16.81-8.56-33.08-18.16-48.34-29.25,1.26-2.8,2.31-8.11,6.27-7.31Z"/><path class="cls-13" d="M519.7,794.8v.52l-31.49,5.36c-1.08-.21-1.39,1.34-1.78,1.42-4.61,1.01-10.55,1.07-14.95,2.11-3.93.93-8.92,2.29-12.73,3.12-2.39.52-6.83.54-8.71,1.04-.56.15-.29,1.05-.34,1.05h-7.31c-.06,0,.22.91-.34,1.05-1.26.33-3.45-.24-4.88,0,.38-.77,1.33-.2,1.57-.78,0-.59-2.14.35-1.57-1.31,1.65-.19,3.92.33,5.39-.01,2.73-.64,5.08-.52,7.31-1.04.42-.1.14-.95,1.11-1.07,10.14-1.33,17.37-2.92,26.77-5.17,2.06-.49,5.58.47,7.64-.02.4-.1.33-.94.71-1.02,9.35-2.11,19.31-3.03,28.73-5.22,1.09-.25,4.44.27,4.87-.01Z"/><path class="cls-13" d="M457.09,790.55c-.42-.26-.75-2.57-.54-3.23.53-1.63,11-3.58,12.48-2.71.91.54,1.27,2.42.79,3.4-.86,1.77-11.39,3.38-12.74,2.54Z"/><path class="cls-13" d="M233.81,675.24c2.6-.77,6.22,4.48,7.37,6.54,2.33,4.16.13,7.32-3.31,4.35-.41-.35-4.58-6.01-4.88-6.61-.74-1.45-1.14-3.7.82-4.28Z"/><path class="cls-13" d="M210.3,644.94c2.59-.77,6.61,4.98,7.9,7.05,2.02,3.23.03,6.04-2.81,4.38-1.66-.97-9.27-10.19-5.09-11.43Z"/><path class="cls-13" d="M225.41,661.23c.61.52,5.13,6.42,5.28,7,.67,2.49-.93,4.7-3.29,3.3-.88-.52-6.53-7.45-6.83-8.38-.85-2.61,2.3-4.09,4.84-1.92Z"/><path class="cls-13" d="M183.68,611.8c-2.68,2.68-6.6-3.67-7.91-5.68-1.09-1.68-3.31-4.11-.3-5.44,2.38-1.05,7.11,5.55,8.16,7.51.61,1.14,1.17,2.49.05,3.61Z"/><path class="cls-13" d="M187.32,615.66c2.66-.73,8.68,7.18,8.56,9.6-.08,1.68-1.67,2.77-3.17,2.1s-9.75-10.5-5.39-11.7Z"/><path class="cls-13" d="M198.81,630.31c2.46-.73,6.44,4.73,7.68,6.75,2.39,3.9.07,6.26-3.34,3.86-1.58-1.11-8.34-9.42-4.34-10.61Z"/><path class="cls-13" d="M483.02,781.37c1.89-.18,5.64-.8,5.36,2.17-.22,2.36-9.32,4.01-11.28,3.97-2.6-.06-3.23-3.09-1.25-4.44,1.12-.76,5.66-1.55,7.18-1.7Z"/><path class="cls-13" d="M506.51,736.95c1.61,1.54,5.11,16.3-.68,12.43-1.26-.84-3.63-9.8-3.38-11.26.3-1.75,2.86-2.33,4.06-1.18Z"/><path class="cls-13" d="M501.8,718.14c1.14,1.09,3.4,11.17,2.52,12.43-.67.95-3.1.74-3.9-.34-.51-.69-2.67-9.54-2.62-10.44.09-1.56,2.69-2.9,4-1.65Z"/><path class="cls-13" d="M494.99,699.8c.6-.18,1.3-.22,1.9-.02,1.69.56,3.47,10.38,2.87,12.13-.49,1.43-2.74,1.91-3.8.31-1.23-1.84-3.79-11.57-.97-12.42Z"/><path class="cls-13" d="M432.85,791.8c4.35,4.39-9.64,6.35-12.07,5.54-1.02-.34-1.22-2.75-.76-3.5.58-.95,11.64-3.25,12.84-2.05Z"/><path class="cls-13" d="M508.58,754.64c2.21-.62,2.86,1.59,3.43,3.18.39,1.07,1.94,7.25,1.9,8.02-.11,2.08-3.83,2.9-4.92.23-.87-2.13-3.35-10.6-.41-11.42Z"/><path class="cls-13" d="M446.97,788.15c1.35-.14,3.38-.6,4.35.59,1.05,1.29.42,2.66-.89,3.39-.68.38-9.01,2.19-9.89,2.17-2.65-.06-3.21-3.33-1.25-4.44.95-.54,6.33-1.56,7.69-1.71Z"/><path class="cls-13" d="M493.71,783.18c-1.35-1.33-.27-3.39,1.3-3.93,1.3-.44,9.76-1.85,10.58-1.44,1.61.8,1.51,3.55-.39,4.32-1.7.69-10.25,2.27-11.49,1.05Z"/><path class="cls-13" d="M511.94,780.1c-1.23-.78-.43-3.37,1.18-4.15,2.32-1.12,12.37-3.38,10.68,1.79-.52,1.6-10.59,3.17-11.86,2.37Z"/><path class="cls-13" d="M490.05,684.16c4.59-4.57,8.75,12.91,2.31,10.77-1.49-.49-3.62-9.46-2.31-10.77Z"/><path class="cls-13" d="M409.35,794.94c2.17-.31,6.65-.74,5.66,2.49-.84,2.74-9.14,4.7-9.71,1.27-.49-2.93,1.6-3.41,4.05-3.76Z"/><path class="cls-13" d="M166.4,589.53c2.97-.99,8.12,4.6,5.68,7.27-3.19,3.5-9.23-6.09-5.68-7.27Z"/><path class="cls-4" d="M444.48,394.05c-.28,3.57.2,8.01,0,10.97,0,.09-.45.42-.47.84-.45,6.94.17,9.74-6.84,12.74-6.18,2.65-18.91,5.88-25.6,6.27-.57.03-1.32-.17-1.57.52-3.29.14-6.64-.16-9.93,0-3.33-.88-6.79-1.02-10.07-2.21s-4.61-2.7-7.17-4.58c.1-2.47.56-4.91,1.04-7.31,1.31-6.52,2.76-13.07,4.2-19.57,0-.13-1.32-.72-1.59-.81.95.23,1.9-1.33,2.09-2.09,18.04,5.3,37.12,7.79,55.89,5.22Z"/><path class="cls-1" d="M437.16,418.61c-.15,2.12-.09,1.29,1.3,1.55,2.56.48,8.96.19,10.2.8,1.38.68,1.34,3.37.4,4.32-1.35,1.36-7.3.12-9.48,1.12-9.05-1.41-16.78-1.48-25.64-.45-4.77.55-10.54-.44-15.42-.02-.14-.88.98-.49,1.56-.52,3.29-.16,6.64.14,9.93,0,.57-.02,1.32.16,1.57-.52,6.69-.39,19.41-3.62,25.6-6.27Z"/><path class="cls-9" d="M225.08,149.01c.97-.77,3.55-2.43,4.7-3.13,5.84-3.58,14-6.61,20.78-7.69,1.85-.3,7.18-1.08,8.66-.59,1.18.39,1.21,2.78.36,3.35-.6.41-8.5,1.19-10.38,1.63-4.96,1.14-11.82,3.71-16.21,6.25-2.01,1.16-10.69,8.33-11.39,8.44-1.4.21-2.6-1.18-2.18-2.65.11-.38,4.99-5.06,5.67-5.59Z"/><path class="cls-9" d="M238.51,161.1c5.28-1.46.79,5.6.26,7.1-1.48,4.18-1.59,8.57-.58,12.89.48,2.04,3.29,6.45,2.09,7.93-3.66,4.49-6.7-9.18-6.86-11.51-.23-3.33,1.31-15.36,5.1-16.4Z"/><path class="cls-9" d="M673.28,196.03c6.66,4.26,14.17,11.72,18.4,18.43,1.17,1.86,4.93,7.56,1.97,9.03-2.14,1.07-4.68-5-5.74-6.56s-2.02-2.76-3.13-4.18c-3.53-4.51-6.37-7.4-10.97-10.97-.27-.21-.5-.65-1.04-1.04-1.81-1.3-3.96-2.67-5.91-3.75-1.44-.8-6.05-1.82-6.09-3.81-.03-1.58,1.17-2.6,2.73-2.28s8.07,4.04,9.79,5.14Z"/><path class="cls-9" d="M674.33,238.88c-.81,2.21-7.85,14.07-10.74,9.96-1.49-2.11,3.55-6.09,4.89-8.24,1.49-2.38,2.21-4.26,2.72-6.95.35-1.86.58-3.01.55-4.99-.05-2.49-2.29-8.03,1.8-7.57,2.71.31,2.55,8.69,2.37,10.75-.16,1.92-.93,5.23-1.59,7.03Z"/><path class="cls-7" d="M684.77,212.75c-2.47-.57-2.36,2.36-3.1,2.91-1.34.99-4.69-2.64-6.28-3.2-.81-.28-2.54-.15-2.63-.24-.57-.55,1.96-8.73,1.05-10.45,4.6,3.57,7.44,6.46,10.97,10.97Z"/><path class="cls-16" d="M558.88,307.32c-5.54,5.59-10.79,11.52-16.72,16.72.94-2.17,1.2-4.58,2.33-6.81,2.36-4.67,6.79-7.45,11.42-9.47.68-.3,2.42-1.37,2.97-.43Z"/><path class="cls-2" d="M551.57,944.23c-.04,1.61-1.68,2.2-2.61,3.13-.26-2.05,1.92-2.45,2.61-3.13Z"/><path class="cls-2" d="M75.68,740.46c1.27-.28,1.08.65,1.47,1.37,1.03,1.91,1.77,4.16,2.71,5.94-1.96-1.77-3.44-4.8-4.18-7.31Z"/><path class="cls-11" d="M348.88,352.78c4.6,3.92,15.8,10.29,18.28,14.63.99,1.72,1.68,3.88,2.61,5.75v.52c.07.14-.07.38,0,.52.74,2.52,2.65,5.67,3.06,8.23.16.98-.11,1.09-.7,1.71-1.61,1.72-5.84,4.58-7.94,6.16-17.6,13.22-37.46,26.41-56.42,37.62-2.2,1.3-8.1,5.13-10.08,5.64-2.86.73-2.49-4.65-2.87-5.52-.3-.69-1.56-1.27-2.06-2.15-1.46-2.6-7.31-23.75-8.01-27.51-.75-4.04-.14-2.7,1.96-3.52,7.3-2.87,23.11-14.35,30.37-19.27,10.08-6.83,20.12-13.84,28.9-22.3l2.9-.49Z"/><path class="cls-11" d="M349.92,407.64c.39.39-1.01,2.1-1.35,2.56-6.75,9.04-15.47,18.57-22.93,27.23-6.55,7.6-13.76,16.69-20.65,23.76-.5.51-.68.99-1.55.79l-5.65-19.75.38-1.97,51.75-32.62Z"/><path class="cls-11" d="M386.49,390.92c.27.09,1.59.67,1.59.81-1.44,6.5-2.89,13.05-4.2,19.57-.9.74-1.64.4-2.6.29-4.42-.48-9.14-2.25-13.57-2.92-.15-.72.03-1.39.23-2.08.58-2,6.89-14.18,8.2-15.84.26-.32,1.23-1.32,1.48-1.39,1.24-.33,7.34,1.07,8.88,1.57Z"/><path class="cls-11" d="M351.23,406.59c.34.17.34.35,0,.52v-.52Z"/><path class="cls-16" d="M490.97,371.06c.26.62-1.56,3.42-1.71,3.54-1.88,1.47-4.3,2.89-6.12,4.29.27-.55-2.41-3.09-2.61-3.13-.31-1.38.72-1,1.52-1.32,2.76-1.13,6.43-2.23,8.93-3.38Z"/><path class="cls-16" d="M492.01,370.54c.17-.11.33-.37.52-.52l-.52.52Z"/><path class="cls-11" d="M290.9,570.65c.37-1.01-1.5-2.85-2.1-3.3-1.12-.83-1.97.36-1.44-2.07.46-2.12,2.42-4.4,3.53-5.99.85-1.23,1.55-2.91,2.63-4.08l.69-.17c60.95,29.77,127.55,47.7,195.23,53.99,2.62.9,1.24,4.45,1.57,6.79.53,3.76,2.09,7.98,2.86,11.77.36,1.76.9,4.34.82,6.07-.15,3.31-3.73,1.87-5.47,2.28-.64.15-.22.84-.32,1.07-.08.16-.41.32-.52.52-46.27,4.81-92.6-5.89-133.91-26.2-21.1-10.37-42.33-23.06-60.93-38.07-.28-.22-1.91-2.02-2.61-2.61Z"/><path class="cls-6" d="M553.66,930.12c3.43-.11,6.98.07,10.45,1.05-2.15,2.29-6.92,2.69-9.92,2.61l-.52-3.66Z"/><path class="cls-8" d="M553.66,930.12l.52,3.66c-5.02-.15-7.82-2.88-1.73-4.02.55-.1,1.03.37,1.21.37Z"/><path class="cls-6" d="M79.33,721.65c-.96.12-.84,1.35-1.04,1.57-1.53,1.68-2.55.58-4.19-.26-2.26-1.15-4.27-2.9-5.74-4.96,3.24.46,6.67,1.4,9.72,2.58.81.31,1.17,1.04,1.25,1.07Z"/><path class="cls-8" d="M79.33,721.65c1.39.61,2.81-1.03,2.61,3.13-1.41-.29-4.25,1.1-3.66-1.57.2-.22.08-1.45,1.04-1.57Z"/><path class="cls-9" d="M346.79,181.93c.72.91,1.79,3.5,2.09,4.7,1.51,6.18-2.25,12.77-8.36,14.63-.73.22-2.39.53-3.13.52-.21,0-3.87-.45-4.18-.52-.5-.11-3.54-2.15-4.7-2.61-.01-1.4-1.59-2.17-2.09-3.13-.71-1.37-.97-3.16-1.04-4.7-.1-2.16.56-4.05.52-5.75,3.63-7.89,15.36-10.11,20.9-3.13Z"/><path class="cls-12" d="M433.51,299.48c-11.53-10.27-32.15-7.99-44.55-.41-3.13,1.91-6.94,4.67-8.21,8.25-9.77-8.19-18.1-23.51-12.94-36.72,5.12-13.09,19.67-.76,27.05,1.96,11.37,4.2,17.21.31,27.43.77,13.45.6,16.13,15.92,11.22,26.15Z"/><path class="cls-9" d="M433.51,299.48c-9.58,19.97-36.82,21.2-52.76,7.84,1.27-3.58,5.08-6.33,8.21-8.25,12.4-7.58,33.03-9.86,44.55.41Z"/><path class="cls-9" d="M390.15,378.9c.15-.43.6-.89.59-1.49,5.2.86,10.31,2.84,15.58,3.86,12.77,2.47,26.33,2.42,39.2.77.03.69-.04,1.4,0,2.09.19,3.34-.8,6.77-1.04,9.93-18.77,2.56-37.85.08-55.89-5.22.71-2.86.5-6.96,1.57-9.93Z"/><path class="cls-9" d="M503.51,290.6c-2.44,1.02-8.38.59-10.95-.28-10.71-3.62-11.1-19.54-1.58-24.8,12.95-7.16,27.02,8.57,17.76,20.64-.52.68-4.69,4.22-5.22,4.44Z"/><path class="cls-3" d="M470.07,211.18c3.81-.17,9.04.53,12.54,2.09,5.66,2.52,11.23,9.25,14.1,14.63.18.34.26,1.02.52,1.57,0,.91.33,1.75.52,2.61.26,1.15.38,1.97.52,3.13.45,3.77-.05,5.96,0,9.4,0,.35-.03.7,0,1.04-.28.48-.47,1.01-.52,1.57-.22,2.48-.7,4.93-1.57,7.31-.25.69-.39,1.82-.52,2.09-1.61,3.33-3.5,1.69-5.75,1.57-1.16-4.31,1.51-8.35,2.37-12.52,4.45-21.58-17.11-38.33-35.03-23.02-1.88,1.61-8.68,11.41-10.96,6.81s8.35-12.59,11.76-14.63c1.1-.66,2.48-1.65,3.66-2.09,2.54-.95,5.66-1.44,8.36-1.57Z"/><path class="cls-3" d="M368.73,166.25c.12.02.6.41,1.04.52,2.27.55,5.37,1.87,7.31,3.13.86.56,1.98,2.13,3.13,2.61.59,1.89,2.2,2.43,2.61,3.13,1.56,2.7,3.88,10.48,4.18,13.58s.28,8.51,0,11.49c-.31,3.31-.79,6.37-4.88,5.77-1.48-.36-.43-5.48-.35-6.82.26-3.9.6-5.88,0-9.93-.55-3.69-1.38-6.15-3.13-9.4-4.05-7.51-12.19-11.45-19.81-5.96-2.98,2.15-5.35,8.87-7.13,9.12-6.98.99-.55-10.09,1.84-12.32,1.54-1.44,3.65-2.03,5.24-3.38,1.8-.32,3.99-1.36,5.75-1.57,1.03-.12,3.18-.14,4.18,0Z"/><path class="cls-9" d="M408.43,216.93c2.18.95,5.15,3.94,7.31,5.22.41,1.46,1.83,2.83.82,4.74-1.87,2.65-8.02-3.59-10.06-4.64-8.15-4.19-13.55.18-12.64,8.99.39,3.78,4.21,10.11,4.15,12.61-.08,3.31-3.49,2.75-5.18.42-3.79-5.23-5.58-16.13-3.21-22.13.44-1.12,2.28-3.96,3.13-4.7,3.66-3.17,11.49-2.34,15.67-.52Z"/><path class="cls-7" d="M380.22,172.52c-1.15-.49-2.27-2.05-3.13-2.61,3.07-3.12,2.68,1.15,3.13,2.61Z"/><path class="cls-7" d="M389.63,162.6c-.86,1.64-3.15,2.28-3.13,0h3.13Z"/><path class="cls-7" d="M428.8,176.18c.57.57-.47,1.61-1.04,1.04s.47-1.61,1.04-1.04Z"/><path class="cls-7" d="M408.43,174.61c.57.57-.47,1.61-1.04,1.04s.47-1.61,1.04-1.04Z"/><path class="cls-4" d="M368.73,166.25c-1-.14-3.15-.12-4.18,0,.82-.88,3.38-.87,4.18,0Z"/><path class="cls-11" d="M411.57,424.88c-.25.68-.99.5-1.57.52.25-.69,1-.49,1.57-.52Z"/><path class="cls-1" d="M369.78,373.68v-.52c.07.14-.07.38,0,.52Z"/><path class="cls-5" d="M541.79,271.9c-.55-3.56-1.17-8.59-1.2-12.13-.06-8.97,2.1-19.91,3.82-28.83,1.78-9.24,4.06-18.27,6.66-27.29-7.15-1.82-12.74-6.12-17.79-11.27.47,5.11-3.91,6.12-5.49,2.1-.56-1.43-.55-3.36-1.2-5.07-2.79-7.28-7.18-12.69-13.68-16.89v7.05c.8,6.63.33,15.47-8.58,14.33-15.03-1.92-32.51-32.1-39.57-44.54-3.53-6.22-7-12.59-9.84-19.16-.92-.13-.52,1.19-.45,1.76,1.06,9.75,9.89,30.93-.93,37.86-6.37,4.08-12.38-.79-15.85-6.19-2.85-4.44-5.6-11.66-7.31-16.72-4.33-12.82-6.45-26.26-7.84-39.7l-3.43,6.22c-4.53,5.95-10.88,8.06-17.98,9.45,3.25,1.11,14.43,7.84,15.44,10.95.88,2.7-1.33,5.15-3.94,3.94-.95-.44-4.51-4.3-6.11-5.39-8.53-5.85-16.88-7.02-26.3-2.45-2.15,1.04-4.94,4.41-7.29,2.09-3.5-3.44,4.54-7.45,7.17-8.49,3.19-1.26,7.14-2.15,10.58-2.22-2.17-2.12-2.84-4.65-4.07-7.18-.21-.43.08-.95-.84-.61-1.13.42-6.31,4.82-7.64,5.95-3.65,3.09-7.54,6.83-10.96,10.2-.9.88-2.63,2.1-3.13,2.61-3.07,3.15-7.42,8.04-10.45,11.49-.54.62-1.32,1.72-2.09,2.61-9.65,11.24-18.45,23.36-26.12,36.05-.18-1.09-.57-2.63-1.04-3.66.16,7.25-5.15,13.57-8.28,20.19-4.47,9.44-8.63,20.23-10.8,30.47-.96,4.54-1.16,9.61-2.18,14.03-.29,1.25.11,1.47-1.2.62.29.84,1.02,1.98,1.04,2.09.92,4.98-.37,13.52-.02,19.09,1.42,22.97,14.46,51.98,28.75,69.73,2.79,3.47,8.62,9.71,12.01,13.06,1.42,1.4,3.67,3.38,5.22,4.7,4.6,3.92,15.8,10.29,18.28,14.63-.23-1.49.57-1.23,1.55-.77,3.52,1.66,7.2,4.09,10.89,5.83,2.93,1.38,6.5,2.38,9.27,3.82,1.44.75,1.48.88,1.28,2.61.15-.43.6-.89.59-1.49,5.2.86,10.31,2.84,15.58,3.86,12.77,2.47,26.33,2.42,39.2.77.03.69-.04,1.4,0,2.09l.82-2.12c3.45-.22,7.51-.5,10.88-1.07,1.17-.2,2.25-.86,2.93-.99l-1.54-.76c19.13-13.86,37.58-28.62,56.43-42.83,5.13-3.86,18.61-11.96,21.81-16.33,5.26-7.18,7.09-17.42,15.24-22.64-5.69-7.45-8.87-16.24-10.3-25.49ZM393.87,231.25c.39,3.78,4.21,10.11,4.15,12.61-.08,3.31-3.49,2.75-5.18.42-3.79-5.23-5.58-16.13-3.21-22.13.44-1.12,2.28-3.96,3.13-4.7,3.66-3.17,11.49-2.34,15.67-.52,2.18.95,5.15,3.94,7.31,5.22.41,1.46,1.83,2.83.82,4.74-1.87,2.65-8.02-3.59-10.06-4.64-8.15-4.19-13.55.18-12.64,8.99ZM428.8,176.18c.57.57-.47,1.61-1.04,1.04s.47-1.61,1.04-1.04ZM407.39,175.65c-.57-.57.47-1.61,1.04-1.04.57.57-.47,1.61-1.04,1.04ZM386.5,162.6h3.13c-.86,1.65-3.15,2.29-3.13,0ZM364.55,166.25c.82-.88,3.38-.87,4.18,0,.12.02.6.41,1.04.52,2.27.55,5.37,1.87,7.31,3.13,3.07-3.12,2.68,1.15,3.13,2.61.59,1.89,2.2,2.43,2.61,3.13,1.56,2.7,3.88,10.48,4.18,13.58.29,2.98.28,8.51,0,11.49-.31,3.31-.79,6.37-4.88,5.77-1.48-.36-.43-5.48-.35-6.82.26-3.9.6-5.88,0-9.93-.55-3.69-1.38-6.15-3.13-9.4-4.05-7.51-12.19-11.45-19.81-5.96-2.98,2.15-5.35,8.87-7.13,9.12-6.98.99-.55-10.09,1.84-12.32,1.54-1.44,3.65-2.03,5.24-3.38,1.8-.32,3.99-1.36,5.75-1.57ZM337.39,201.78c-.21,0-3.87-.45-4.18-.52-.5-.11-3.54-2.15-4.7-2.61-.01-1.4-1.59-2.17-2.09-3.13-.71-1.37-.97-3.16-1.04-4.7-.1-2.16.56-4.05.52-5.75,3.63-7.89,15.36-10.11,20.9-3.13.72.91,1.79,3.5,2.09,4.7,1.51,6.18-2.25,12.77-8.36,14.63-.73.22-2.39.53-3.13.52ZM433.51,299.48c-9.58,19.97-36.82,21.2-52.76,7.84-9.77-8.19-18.1-23.51-12.94-36.72,5.12-13.09,19.67-.76,27.05,1.96,11.37,4.2,17.21.31,27.43.77,13.45.6,16.13,15.92,11.22,26.15ZM457.26,222.67c-1.88,1.61-8.68,11.41-10.96,6.81-2.23-4.49,8.35-12.59,11.76-14.63,1.1-.66,2.48-1.65,3.66-2.09,2.54-.95,5.66-1.44,8.36-1.57,3.81-.17,9.04.53,12.54,2.09,5.66,2.52,11.23,9.25,14.1,14.63.18.34.26,1.02.52,1.57,0,.91.33,1.75.52,2.61.26,1.15.38,1.97.52,3.13.45,3.77-.05,5.96,0,9.4,0,.35-.03.7,0,1.04-.28.48-.47,1.01-.52,1.57-.22,2.48-.7,4.93-1.57,7.31-.25.69-.39,1.82-.52,2.09-1.61,3.33-3.5,1.69-5.75,1.57-1.16-4.31,1.51-8.35,2.37-12.52,4.45-21.58-17.11-38.33-35.03-23.02ZM492.55,290.33c-10.71-3.62-11.1-19.54-1.58-24.8,12.95-7.16,27.02,8.57,17.76,20.64-.52.68-4.69,4.22-5.22,4.44-2.44,1.02-8.38.59-10.95-.28Z"/></g></svg>