<?xml version="1.0" encoding="UTF-8"?><svg id="Layer_2" xmlns="http://www.w3.org/2000/svg" xmlns:xlink="http://www.w3.org/1999/xlink" viewBox="0 0 263.46 312.11"><defs><style>.cls-1{fill:#cff4f3;}.cls-2{fill:#fff;}.cls-3{fill:#8fcbdb;}.cls-4{fill:#92cfdd;}.cls-5{fill:#ab4c1c;}.cls-6{fill:none;}.cls-7{fill:#89114a;}.cls-8{fill:#a82f13;}.cls-9{fill:#7a3415;}.cls-10{fill:#305275;}.cls-11{fill:#44200c;}.cls-12{fill:#aaecea;}.cls-13{fill:#281207;}.cls-14{fill:#71aebc;}.cls-15{fill:#e6feff;}.cls-16{fill:#ffaf01;}.cls-17{fill:#ffc545;}.cls-18{fill:#99170d;}.cls-19{fill:#c11e45;}.cls-20{clip-path:url(#clippath);}.cls-21{fill:#d0f5f3;}</style><clipPath id="clippath"><rect class="cls-6" width="263.46" height="312.11"/></clipPath></defs><g id="OBJECTS"><g class="cls-20"><path class="cls-10" d="M117.95,293.88s-19.65,89.2-15.23,152.48h145.2s-36.41-108.8-33.79-147.33l-96.19-5.15Z"/><path class="cls-11" d="M169.79,18.94c25.63-11.47,58.35,1.01,70.16,22.6,11.47,20.57,5.06,41.15-2.02,61.72,5.73.68,14.17-.34,18.21,5.73,4.05,6.07-4.38,6.07-9.11,7.42,3.37,3.04,14.5,7.42,11.47,13.49-3.71,7.42-19.9,2.02-24.96.67,1.69,1.69,7.42,6.07,6.07,9.11-2.36,4.38-11.47,0-14.5-.67,3.37,4.39,9.44,12.82,3.04,17.88-6.75,5.4-16.19-5.06-20.58-9.44-1.01,5.73-.34,10.79-8.1,10.79s-11.13-8.43-14.17-14.5c-2.02,12.14-12.48.67-16.53-2.02-2.02,3.71-3.37,9.78-8.43,10.46-5.73,1.01-9.78-6.07-10.79-10.79-2.7,13.49-24.62-2.36-14.17-11.47-4.38,1.01-11.47,2.36-15.51-1.01-3.04-2.7-3.71-7.42.67-9.11-5.73,1.35-23.95-2.7-18.55-12.48-10.79-3.71-13.49-20.91.34-14.84-3.71-3.71-12.14-12.48-5.06-15.51,5.73-2.36,14.84,3.37,18.55,7.08,0,0-2.7-18.21,5.06-43.85,7.76-25.63,32.38-36.43,48.91-21.25Z"/><path class="cls-13" d="M209.59,55.67c1.73,6.88,2.03,13.98.58,20.44-.2.87,1.14,1.24,1.34.37,4.72-21.13-8.37-48.4-29.44-55.4-.85-.28-1.21,1.06-.37,1.34,13.41,4.46,23.5,17.55,27.5,31.78-7.22-1.23-13.89-4.1-19.42-8.99-5.83-5.17-9.66-12.21-12.14-19.51-.29-.84-1.62-.48-1.34.37,2.59,7.6,6.54,14.64,12.5,20.12,5.76,5.29,13.13,8.32,20.79,9.49Z"/><path class="cls-13" d="M191.96,17.79c16.08,2.08,28.15,13.82,31.71,29.47,1.89,8.31,1.48,17.52.14,25.88-1.41,8.79-4.57,17.52-10.37,24.38-.57.68.4,1.66.98.98,6-7.1,9.17-15.92,10.72-25,1.48-8.65,1.67-18-.14-26.62-3.43-16.33-16.57-28.36-33.05-30.49-.88-.11-.87,1.27,0,1.39Z"/><path class="cls-13" d="M240.38,59.1c-.96-15.94-10.05-35.5-27.74-37.52-.89-.1-.88,1.29,0,1.39,17.65,2.02,25.92,22.44,26.44,38.04.3,9.1-1.66,18.42-4.37,27.06-2.86,9.13-7.16,18.22-13.77,25.25-.63.67.29,1.52.98.98,2.85-2.22,9.85-3.22,12.14.26,2.43,3.7-2.38,6.48-6.41,8.39-1.62.33-3.14,1.03-4.12,2.01-.56.56.16,1.49.84,1.09.92-.54,2.14-1.1,3.45-1.73,2.53-.56,5.38-.02,5.88,2.61.17.88,1.5.5,1.34-.37-.43-2.3-2.22-3.43-4.31-3.72,3.62-2.04,6.66-4.76,4.54-8.97-1.76-3.49-7.13-3.47-11.07-2.16,5.52-6.79,9.19-14.97,11.86-23.25,3-9.31,4.93-19.51,4.33-29.33Z"/><path class="cls-13" d="M134.24,24.74c-4.52,4.68-7.4,10.92-9.63,16.94-2.85,7.7-4.37,15.96-4.44,24.16,0,.89,1.38.89,1.39,0,.08-10.41,2.46-21.79,7.55-31.29,5.34,2.46,12.03,1.59,17.59.56,6.28-1.16,13.39-3.22,18.34-7.44.68-.58-.3-1.56-.98-.98-4.47,3.81-10.74,5.57-16.36,6.81-5.46,1.21-12.6,2.29-17.93-.16,1.25-2.19,2.65-4.28,4.21-6.21,7.44-9.23,24.22-10.97,32.67-2.3.62.64,1.6-.34.98-.98-8.47-8.7-25.11-7.68-33.39.89Z"/><path class="cls-13" d="M129.79,114.36c.86,2.89-2.21,7.59-5.48,7.08-2.98-.47-2.2-3.81-1.19-5.53.61-1.05,1.52-1.98,2.56-2.65.41-.18.79-.38,1.13-.61.75-.51.11-1.54-.7-1.2-.3.13-.62.31-.94.53-3.39,1.63-8.86,1.4-10.34-2.49-.71-1.86.11-3.77,1.61-5.29,3.58.62,7.85.28,10.09-2.72.23-.3.05-.77-.25-.95-3.11-1.83-7.56-.36-10.38,2.36-3.9-.85-7.58-3.13-8.42-6.04-1.33-4.62,4.85-7.38,8.39-7.43,4.27-.07,8.85,2.25,11.06,5.93.46.77,1.66.07,1.2-.7-2.62-4.37-7.82-6.69-12.81-6.61-4.41.07-9.43,3.39-9.32,8.22.11,4.27,5.21,6.61,8.68,7.56.1.03.21.05.32.08-1.14,1.43-1.84,3.09-1.75,4.77.27,4.7,5.4,6.1,9.67,5.41-2.38,2.9-3.7,7.15.54,8.55,4.44,1.47,8.86-4.58,7.66-8.63-.25-.85-1.59-.49-1.34.37ZM124.79,101.37c-1.65,1.59-4.36,2.1-7.17,1.8,2.18-1.6,5.08-2.46,7.17-1.8Z"/><path class="cls-13" d="M158.1,134.88c-1.31,2.86-5.68,5.66-8.43,2.96-2.42-2.37-.7-6.14,1.79-8.3,1.4-.39,2.65-1.01,3.47-1.81.54-.53-.03-1.25-.67-1.16-1.31.19-2.6.87-3.71,1.84-2.68.64-5.83.27-6.65-2.17-1.42-4.23,7.73-7.45,9.08-3.08.26.85,1.6.49,1.34-.37-1.71-5.55-11.49-2.89-11.85,2.29-.26,3.79,3.19,5.09,6.65,4.85-1.92,2.53-2.69,5.95-.75,8.45,3.11,4.02,9.18,1.02,10.94-2.81.37-.81-.82-1.51-1.2-.7Z"/><path class="cls-13" d="M244.73,107.24c-2.51-1.46-5.58-.4-7.22,1.79-.54.71.67,1.4,1.2.7,1.19-1.58,3.27-2.21,5.11-1.4,2.15.95,1.83,3.1.63,4.7-.54.72.67,1.4,1.2.7,1.65-2.21,1.64-5-.91-6.49Z"/><path class="cls-10" d="M152.24,144.57l-46.62,159.54s57.98,18.52,115.35-.81l-31.81-162.47-36.92,3.74Z"/><path class="cls-5" d="M29.83,105.33l-7.07-24.36S-1.24,52.46,1.17,50.53c2.93-2.34,14.06,8.22,14.06,8.22,0,0-11.84-20.64-8.46-22.63,4.65-2.74,15.83,17.51,15.83,17.51,0,0-2.7-19.75-.03-19.76,5.33,0,11.98,22.69,11.98,22.69,0,0,5.56-12.92,9.57-12.92s-6.91,33.71-6.91,33.71l7.07,14-14.46,13.98Z"/><path class="cls-9" d="M18.77,63.63c1.88-3.63,5.37-6.13,9.11-7.6.67-.26.38-1.35-.3-1.09-4.01,1.57-7.76,4.22-9.79,8.12-.34.64.64,1.21.97.57h0Z"/><path class="cls-3" d="M43.15,78.43l28.41,60.12,84.8,8.59-16.4,56.12s-80.34-5.64-92.07-28.8c-14.43-28.48-23.28-76.51-23.28-76.51l18.54-19.51Z"/><path class="cls-1" d="M149.12,152.3c-5.37-.22-10.74-.07-16.11-.04.14-2.48.31-4.97.49-7.45l-.99-.1c-.19,2.52-.35,5.03-.5,7.55-2.13,0-4.26,0-6.38-.08-5.42-.18-10.87-.78-16.3-1.69.29-2.68.61-5.36.94-8.04l-.99-.1c-.33,2.66-.64,5.32-.93,7.98-7.39-1.28-14.73-3.14-21.87-5.29.35-1.63.71-3.26,1.09-4.88l-1-.1c-.36,1.56-.71,3.13-1.04,4.69-2.17-.67-4.33-1.35-6.45-2.07-2.16-.72-4.22-1.57-6.19-2.53.23-.47.44-.94.67-1.41l-1.05-.11c-.17.35-.33.71-.5,1.07-6.52-3.34-12.01-7.95-16.57-13.4,2.07-2.87,4.18-5.71,6.33-8.52l-.48-1.01c-2.21,2.89-4.37,5.8-6.5,8.74-4.32-5.35-7.77-11.47-10.45-17.97,2.62-3.24,5.31-6.42,8.08-9.54l-.46-.98c-2.76,3.09-5.44,6.25-8.05,9.46-2.18-5.52-3.82-11.29-4.95-17.09-.36-1.85-.66-3.71-.93-5.57l-.86.91c1.16,7.71,3.05,15.47,5.92,22.77-1.76,2.19-3.5,4.41-5.21,6.65-2.05-5.24-3.83-10.58-5.19-16.01-.59-2.37-1.08-4.77-1.44-7.19l-.92.97c1.24,7.95,3.95,15.77,6.88,23.11-2.28,3-4.51,6.05-6.72,9.11.11.42.21.84.32,1.26,2.24-3.12,4.52-6.22,6.83-9.29,2.79,6.89,5.9,13.73,9.42,20.34-2.6,3.77-5.17,7.57-7.73,11.37-3.24-6.82-5.94-13.91-8.18-21.12,1.15,4.4,2.43,9.05,3.85,13.79,1.15,2.81,2.35,5.59,3.66,8.32-.24.35-.47.7-.71,1.05.13.4.26.79.4,1.19.27-.4.54-.8.81-1.2,4.24,8.65,9.32,16.83,15.29,24.26-.93,1.76-1.86,3.53-2.79,5.29.24.24.5.47.76.7.9-1.72,1.81-3.44,2.71-5.15,4.4,5.37,9.29,10.33,14.67,14.78,1.05.4,2.11.79,3.2,1.16-5.73-4.41-11.02-9.44-15.8-15.06-.53-.62-1.03-1.25-1.54-1.88,2.47-4.7,4.94-9.4,7.37-14.12,5.05,5.29,10.83,9.76,17.31,13.44-.98,6.36-1.87,12.74-2.74,19.12.32.1.64.2.96.29.86-6.3,1.74-12.6,2.7-18.89.76.42,1.53.83,2.32,1.23,6.94,3.54,14.28,6.46,21.74,9.05-.05.64-.1,1.28-.14,1.91-.3,4.21-.51,8.45-.69,12.7.31.06.62.11.93.16.15-3.34.32-6.67.55-9.99.1-1.48.21-2.97.32-4.45,5.79,1.98,11.64,3.78,17.42,5.48,2.24.66,4.5,1.28,6.77,1.86-.15,3.52-.33,7.03-.54,10.55.34.04.66.07.98.1.21-3.46.39-6.93.54-10.4,3.66.92,7.35,1.72,11.07,2.36l.28-.96c-3.79-.65-7.56-1.46-11.3-2.41.52-12.57.75-25.16,1.44-37.72,4.26-.01,8.52-.11,12.78-.09,2.91.02,5.83.17,8.75.31l.28-.95c-1.88-.09-3.77-.2-5.64-.28ZM38.3,115.24c1.71-2.24,3.44-4.46,5.2-6.66,2.66,6.49,6.11,12.6,10.54,17.95-2.12,2.96-4.22,5.94-6.29,8.93-3.46-6.54-6.69-13.29-9.45-20.22ZM54.98,173.12c-5.96-7.47-10.97-15.65-15.15-24.26,2.57-3.81,5.15-7.62,7.75-11.41,2.26,4.18,4.69,8.27,7.31,12.2,2.25,3.39,4.73,6.53,7.41,9.43-2.42,4.69-4.87,9.37-7.33,14.04ZM62.77,158.18c-5.77-6.51-10.37-14.04-14.49-21.74,2.12-3.07,4.25-6.12,6.42-9.14,2.45,2.85,5.17,5.49,8.22,7.83,2.73,2.1,5.64,3.87,8.67,5.39-2.86,5.93-5.82,11.81-8.83,17.66ZM80.51,172.26c-2.74-1.54-5.4-3.21-7.96-5.08-3.33-2.44-6.33-5.21-9.07-8.2,3.08-5.97,6.1-11.97,9.01-18.02,4.09,1.98,8.4,3.54,12.79,4.85-1.86,8.77-3.4,17.59-4.78,26.45ZM105.42,182.87c-8.2-2.85-16.39-5.94-23.99-10.09,1.38-8.94,2.93-17.85,4.81-26.69,4.29,1.24,8.65,2.27,12.97,3.25,2.99.68,6.01,1.31,9.05,1.87-1.15,10.54-2.05,21.1-2.84,31.67ZM130.54,190.76c-6.28-1.62-12.48-3.58-18.6-5.66-1.84-.63-3.69-1.26-5.54-1.89.78-10.63,1.69-21.25,2.84-31.84,4.16.73,8.34,1.31,12.52,1.61,3.4.25,6.8.31,10.2.31-.68,12.47-.91,24.98-1.42,37.46Z"/><path class="cls-5" d="M179.25,122.52l1.01,30.38s-12,5.48-23.56,1.25l3.88-33.62,18.68,1.99Z"/><path class="cls-9" d="M160.57,120.53l-1.53,13.24c6.2,1.56,13.08,2.39,20.65,2.32l-.45-13.57-18.68-1.99Z"/><path class="cls-4" d="M151.93,142.67l-74.28,253.64s7.65,7.65,16.91,8.45l64.59-261.29-7.22-.8Z"/><path class="cls-1" d="M149.76,161.75c1.72-6.25,3.43-12.5,5.15-18.75l-1.01-.11c-1.7,6.19-3.4,12.39-5.11,18.58-.73-.22-1.45-.46-2.17-.71l-.28.96c.73.25,1.45.49,2.19.71-.98,3.56-1.96,7.12-2.93,10.68-1.36,4.93-2.71,9.86-4.07,14.8-.87-.28-1.74-.58-2.59-.9l-.28.95c.86.32,1.73.62,2.61.9-4.35,15.85-8.71,31.7-13.06,47.55-1.17-.27-2.32-.58-3.47-.9l-.28.95c1.16.33,2.32.63,3.49.91-1.92,7-3.84,13.99-5.77,20.99-2.01,7.33-4.03,14.67-6.04,22-1.38-.45-2.75-.94-4.1-1.46l-.28.96c1.36.52,2.73,1.01,4.12,1.46-2.55,9.29-5.11,18.59-7.66,27.88-1.52-.62-3-1.29-4.46-2.02l-.28.97c1.46.72,2.96,1.4,4.48,2.01-3.75,13.64-7.49,27.28-11.24,40.91-.05.17-.09.34-.14.52-1.77-.63-3.51-1.32-5.21-2.07l-.28.95c1.71.75,3.46,1.44,5.23,2.07-2.83,10.29-5.65,20.57-8.48,30.86-1.93-.72-3.84-1.48-5.73-2.28l-.28.96c1.9.8,3.81,1.57,5.74,2.29-1.48,5.39-2.96,10.78-4.44,16.17.29.18.58.37.89.55,1.5-5.46,3-10.92,4.5-16.38,3.36,1.22,6.77,2.3,10.21,3.27l.24-.97c-3.42-.97-6.83-2.05-10.18-3.27.39-1.43.79-2.86,1.18-4.29,2.43-8.86,4.87-17.72,7.3-26.58,3.1,1.06,6.27,1.94,9.47,2.68l.24-.96c-3.19-.74-6.36-1.62-9.45-2.68,3.79-13.8,7.58-27.6,11.37-41.39,2.7,1.04,5.48,1.92,8.3,2.69l.24-.96c-2.81-.77-5.59-1.65-8.28-2.69,1.41-5.12,2.81-10.24,4.22-15.36,1.15-4.19,2.3-8.39,3.46-12.58,2.52.79,5.08,1.45,7.67,2.03l.24-.96c-2.58-.58-5.13-1.24-7.65-2.03,3.95-14.36,7.89-28.72,11.84-43.08,2.2.49,4.42.89,6.66,1.22l.24-.97c-2.23-.33-4.44-.73-6.63-1.21,3.22-11.71,6.44-23.42,9.65-35.13,1.13-4.11,2.26-8.21,3.39-12.32,1.74.52,3.51.96,5.29,1.35l.24-.96c-1.77-.39-3.53-.82-5.27-1.34,2.33-8.5,4.67-17,7-25.49,1.52.45,3.05.84,4.6,1.21l.24-.97c-1.54-.37-3.06-.77-4.57-1.21Z"/><path class="cls-3" d="M180.04,141.81l-16.23,265.37s42.67,7.44,100.65-16.71l-73.48-251.08-10.94,2.42Z"/><path class="cls-1" d="M236.34,305.36c-2.11-10.14-4.21-20.28-6.24-30.44.18,0,.36-.01.54-.02l-.3-1.01c-.15,0-.3,0-.45.01-.32-1.59-.63-3.18-.94-4.77l-3.03-10.37c.96,5.06,1.95,10.11,2.95,15.16-4.23.07-8.47.06-12.7,0-1-8.16-1.99-16.31-2.97-24.47,3.3-.05,6.61-.15,9.91-.3l-.29-1c-3.24.15-6.49.25-9.74.3-.28-2.33-.56-4.67-.84-7.01-.73-6.06-1.45-12.12-2.18-18.18,1.82-.02,3.63-.07,5.45-.11l-.29-1c-1.76.04-3.51.08-5.27.11-1.11-9.21-2.22-18.43-3.35-27.64.18,0,.37-.02.55-.03l-.29-.99c-.13,0-.26.01-.38.02-.09-.77-.19-1.54-.29-2.32l-1.74-5.93c.34,2.76.69,5.53,1.03,8.29-4.61.19-9.23.29-13.84.29-.81-8.04-1.65-16.07-2.47-24.11,3.56,0,7.13-.07,10.69-.16l-.29-1c-3.5.08-7,.12-10.5.15-.67-6.56-1.32-13.11-1.92-19.67,2.23,0,4.46-.03,6.7-.05l-.3-1.01c-2.16.01-4.33.03-6.49.04-.23-2.58-.45-5.15-.66-7.73l-1.14.25c-.06,2.5-.12,4.99-.2,7.49-1.4,0-2.81,0-4.21.02-.39,0-.78,0-1.17,0l-.06,1c1.81,0,3.61,0,5.42,0-.22,6.56-.51,13.11-.85,19.67-1.92-.02-3.84-.1-5.75-.27l-.06,1c1.91.17,3.83.25,5.76.27-.43,8-.93,15.99-1.47,23.98-1.92-.06-3.84-.14-5.76-.24l-.06,1c1.92.09,3.83.18,5.75.24-.62,9.08-1.29,18.16-1.96,27.23-1.82-.06-3.64-.14-5.46-.25l-.07,1.17c1.81.13,3.62.24,5.44.31-.6,8.2-1.14,16.4-1.65,24.59-1.77-.07-3.53-.16-5.3-.28l-.06.99c1.25.08,2.51.16,3.76.22.51.03,1.02.04,1.54.06-.47,7.7-.91,15.41-1.31,23.11-1.18-.1-2.37-.18-3.55-.28-.61-.05-1.22-.12-1.84-.17l-.06,1s.04,0,.06,0c1.78.17,3.56.31,5.34.45-.58,10.98-1.09,21.96-1.58,32.95-1.95-.12-3.9-.28-5.84-.45l-.06.99c1.95.17,3.9.33,5.86.45-.21,4.76-.41,9.51-.61,14.27-.25,5.98-.48,11.96-.72,17.94-2.17-.05-4.34-.13-6.51-.27l-.06.99c2.17.14,4.35.22,6.53.27-.41,10.28-.81,20.57-1.2,30.85-2.41.1-4.83.14-7.24.08l-.06.98c2.42.06,4.84.03,7.26-.08-.27,7.18-.55,14.36-.82,21.55-2.59.18-5.19.34-7.78.48l-.06,1c2.6-.14,5.21-.3,7.81-.48-.17,4.51-.34,9.01-.52,13.52.32.02.66.04,1,.06.17-4.55.35-9.1.52-13.65,8.99-.65,17.95-1.54,26.86-2.73.29,5.15.63,10.29.98,15.43.33-.04.66-.08,1-.11-.35-5.15-.68-10.3-.98-15.45,9.85-1.34,19.65-3.03,29.35-5.15.78,4.92,1.58,9.84,2.39,14.76.32-.08.65-.17.97-.26-.81-4.91-1.61-9.81-2.38-14.72,6.22-1.38,12.41-2.93,18.54-4.68.78,4.54,1.54,9.09,2.28,13.64.31-.11.63-.22.94-.34-.74-4.53-1.49-9.05-2.27-13.57,3.28-.95,6.55-1.96,9.81-3.02l-.28-.96c-3.22,1.05-6.45,2.05-9.69,2.99-1.07-6.18-2.18-12.35-3.32-18.52,2.63-.66,5.25-1.36,7.86-2.08l-.28-.97c-2.58.71-5.17,1.4-7.76,2.05-.45-2.41-.89-4.82-1.34-7.22-1.18-6.25-2.42-12.49-3.67-18.72,1.81-.41,3.61-.84,5.41-1.29l-.29-.98c-1.77.44-3.54.86-5.32,1.26-1.84-9.14-3.73-18.27-5.62-27.4,1.07-.1,2.13-.22,3.2-.33l-.29-1c-1.04.11-2.08.22-3.12.32ZM229.07,274.95c2.03,10.18,4.13,20.34,6.25,30.51-2.99.27-5.98.51-8.99.68-2.02.12-4.05.2-6.08.28-1.35-10.49-2.67-20.98-3.96-31.47,4.26.07,8.52.08,12.78,0ZM212.73,338.33c-4.58.38-9.16.57-13.76.68-.34-10.46-.65-20.93-.97-31.39,7.12.09,14.25.05,21.37-.19,1.28,9.91,2.59,19.83,3.95,29.73-3.52.48-7.05.87-10.6,1.17ZM223.47,338.18c1.24,8.98,2.53,17.94,3.86,26.9-4.48.82-8.97,1.55-13.49,2.16-4.57.61-9.15,1.08-13.74,1.5-.42-9.57-.77-19.14-1.08-28.72,4.28-.11,8.55-.29,12.81-.62,3.9-.29,7.78-.7,11.65-1.22ZM218.93,304.02c.1.81.21,1.61.31,2.42-7.08.24-14.18.25-21.27.16-.33-10.78-.66-21.56-1.06-32.34,4.06.2,8.13.38,12.19.51,2.06.07,4.12.11,6.18.15,1.19,9.7,2.4,19.41,3.64,29.1ZM215.16,273.91c-1.7-.03-3.39-.07-5.09-.12-4.4-.12-8.8-.32-13.2-.55-.3-7.96-.63-15.92-1.02-23.88,2.79.05,5.58.09,8.37.12,2.66.02,5.31.02,7.97-.01.98,8.15,1.97,16.29,2.97,24.44ZM212.08,248.47c-2.29.03-4.59.04-6.88.03-3.13-.01-6.26-.06-9.39-.13-.18-3.68-.37-7.37-.58-11.05-.26-4.63-.58-9.26-.94-13.88,3.81-.02,7.59-.08,11.33-.11,1.14,0,2.28-.03,3.43-.04,1.01,8.4,2.02,16.79,3.03,25.19ZM205.59,194.67c1.12,9.2,2.23,18.41,3.34,27.61-.77,0-1.55.03-2.32.03-4.13.04-8.27.04-12.4,0-.71-9.13-1.56-18.24-2.48-27.35,4.62,0,9.24-.1,13.86-.29ZM186.05,147.62c.02.17.03.35.05.52h-.06c0-.17,0-.35.01-.52ZM186.01,149.16c.06,0,.13,0,.19,0,.62,6.56,1.28,13.12,1.97,19.68-.05,0-.1,0-.15,0-.95,0-1.91,0-2.87,0,.34-6.56.64-13.12.86-19.68ZM185.1,169.84c.1,0,.21,0,.31,0,.95,0,1.91,0,2.86,0,.84,8.03,1.7,16.06,2.51,24.1-2.38,0-4.77-.04-7.15-.11.54-8,1.05-16,1.47-24ZM183.56,194.84c2.44.07,4.88.1,7.32.11.39,3.95.78,7.9,1.14,11.85.47,5.16.87,10.33,1.25,15.5-3.89-.04-7.77-.12-11.66-.24.66-9.08,1.33-18.15,1.95-27.23ZM181.51,223.29c3.94.14,7.9.17,11.83.15.6,8.29,1.09,16.6,1.51,24.91-5.03-.11-10.05-.27-15.07-.46.54-8.2,1.13-16.4,1.73-24.6ZM179.4,253.67c.1-1.59.21-3.19.31-4.79,5.05.22,10.12.37,15.18.47.39,7.95.72,15.89,1.01,23.85-5.86-.31-11.72-.71-17.56-1.17.33-6.12.67-12.24,1.06-18.36ZM178.29,273.04c5.88.48,11.76.87,17.65,1.17.37,10.44.69,20.88,1.01,31.31.01.36.02.71.03,1.07-3.14-.04-6.29-.11-9.42-.18-3.6-.08-7.2-.22-10.8-.44.45-10.98.95-21.96,1.53-32.93ZM176.72,306.96c3.3.2,6.61.33,9.92.42,3.45.09,6.91.17,10.38.22.32,10.47.62,20.95.96,31.42-5.48.11-10.97.1-16.45.13-2.02.01-4.04,0-6.06-.03.4-10.72.81-21.44,1.25-32.17ZM174.95,353c.17-4.29.33-8.59.49-12.89,1.42.03,2.84.04,4.26.04,6.1,0,12.21.01,18.32-.12.32,9.6.66,19.19,1.08,28.79-4.9.44-9.8.83-14.69,1.29-3.36.32-6.75.61-10.14.78.23-5.96.45-11.93.68-17.89ZM173.41,393.4c.27-7.17.54-14.35.82-21.52,2.79-.14,5.57-.35,8.35-.6,5.52-.49,11.04-.94,16.57-1.45.3,6.95.65,13.9,1.04,20.85-8.88,1.18-17.81,2.08-26.77,2.73ZM201.18,390.54c-.39-6.93-.74-13.87-1.04-20.81,4.27-.4,8.53-.84,12.77-1.38,4.88-.62,9.73-1.39,14.57-2.26.96,6.44,1.94,12.88,2.95,19.31-9.67,2.12-19.43,3.8-29.25,5.14ZM249.94,380.51c-6.13,1.75-12.31,3.3-18.53,4.68-1.01-6.42-2-12.84-2.95-19.27,6.09-1.13,12.14-2.47,18.15-3.96,1.14,6.18,2.26,12.36,3.33,18.55ZM245.26,354.73c.39,2.08.77,4.15,1.16,6.23-6,1.48-12.04,2.82-18.12,3.95-1.33-8.95-2.6-17.91-3.84-26.87,5.68-.79,11.32-1.81,16.92-3.05,1.32,6.57,2.63,13.15,3.87,19.74ZM241.19,333.98c-5.58,1.22-11.2,2.25-16.86,3.04-1.36-9.87-2.67-19.75-3.95-29.63,1.99-.07,3.97-.16,5.95-.26,3.07-.17,6.14-.39,9.2-.67,1.91,9.17,3.81,18.34,5.66,27.52Z"/><path class="cls-14" d="M240.62,309l-15.03-51.37-50.82-10.96-1.25,1.91-2.07,33.83c12.71,12.39,35.98,28.66,69.17,26.6Z"/><path class="cls-14" d="M239.06,346.38c-.04-.41-.08-.81-.13-1.22-.02-.19-.1-.35-.19-.48-.11-.2-.28-.38-.54-.48-10-3.73-19.61-8.51-28.75-14.02-9.3-5.61-18.3-12.17-25.48-20.39-.61-.7-1.67-.1-1.71.71-.49,10.84-.57,21.71-.38,32.56.15,8.43.51,16.87,1.46,25.25.66,5.84,1.36,12.32,4.17,17.59,3.13,5.89,11.92,6.17,17.71,6.1,9.08-.1,18.88-1.97,27.04-6.06,2.49-1.25,4.86-2.9,5.93-5.56,1.37-3.4,1.6-7.26,1.78-10.88.38-7.69-.14-15.46-.91-23.11ZM207.75,331.48c9.25,5.71,19.09,10.55,29.25,14.39.32,2.96.57,5.92.74,8.9-30.96-6.65-51.34-25.48-53.92-27.96.05-4.62.16-9.24.34-13.85,6.83,7.33,15.08,13.29,23.57,18.53ZM237.22,376.52c-.64,3.33-1.91,5.35-4.84,7.08-7.99,4.71-18.62,6.31-27.74,6.41-4.28.05-8.93-.33-12.76-2.4-1.97-1.06-2.89-2.98-3.64-5.01-2.17-5.87-2.76-12.39-3.32-18.57-.72-7.99-.97-16.02-1.07-24.04-.04-3.49-.05-6.98-.03-10.48,5.7,5.13,25.5,21.34,54.03,27.32.1,2.21.18,4.42.21,6.62.05,4.35-.02,8.78-.84,13.06Z"/><path class="cls-17" d="M100.11,155.91c-1.22.71-20.74,109.59-19.35,110.29,1.39.7,78.36,16.01,79.55,14.97,1.19-1.04,22.97-115.27,21.58-115.27s-79-11.62-81.78-9.99Z"/><path class="cls-2" d="M90.3,191.48c9.96.99,20.22-4.57,28.33-9.79,8.68-5.59,16.12-13.77,19.95-23.42.58-1.45-1.76-2.07-2.33-.64-3.63,9.13-10.76,16.59-18.84,21.98-7.64,5.1-17.66,10.39-27.11,9.46-1.55-.15-1.54,2.26,0,2.42h0Z"/><path class="cls-2" d="M84.7,228.09c8.79,2.54,15.61,10.73,20.83,17.84,6,8.18,10.01,18.3,10,28.52,0,1.56,2.41,1.56,2.41,0,.01-11.09-4.46-21.74-10.95-30.57-5.41-7.38-12.57-15.49-21.66-18.11-1.5-.43-2.14,1.9-.64,2.33h0Z"/><path class="cls-16" d="M141.31,216.53c-3.29-3.55-8.02-6.44-11.83-9.21-3.16-2.24-6.84-4.6-10.52-5.52-3.95-.92-4.87.39-2.37,3.81,2.24,3.02,5.79,5.52,7.63,8.81-1.71-.66-21.7-8.28-20.25-1.58.53,3.02,7.5,4.87,10.13,5.66,3.55,1.31,7.1,2.5,10.78,3.42-3.29.66-6.97,0-10.39.66-2.63.39-6.31,1.45-2.76,3.81,3.16,2.1,7.76,2.63,11.44,3.68,4.21,1.32,8.55,2.24,12.75,3.55,3.16,1.05,4.47.53,3.16,3.68-1.32,3.16-2.89,7.23-3.02,10.65-.13,3.16,4.6,5.79,7.1,7.76,5.52,4.21,11.57,8.55,18.02,11.44.63.31,1.38.66,2.12.95,1.86-9.03,4.36-21.79,6.94-35.25l-28.91-16.33Z"/><path class="cls-5" d="M160.73,246.67l-19.6-14.33s-34.86-7.57-34.16-10.44c.85-3.49,15.46-1.99,15.46-1.99,0,0-21.04-8.71-19.64-12.21,1.92-4.79,22.24,4.01,22.24,4.01,0,0-13.6-13.39-11.58-14.95,4.04-3.12,22.35,10.19,22.35,10.19,0,0-3.34-13.04-.3-15.39,3.04-2.35,14.47,29.58,14.47,29.58l13.54,6.48-2.79,19.04Z"/><path class="cls-4" d="M190.98,139.39c-1.98,1.2,10.73,94.4,10.73,94.4l-47.15-17.02-6.53,29.85s48.16,58.91,88.62,51.82c0,0,18.06-28.67,8.45-63.29-9.62-34.62-49.73-98.42-54.12-95.75Z"/><path class="cls-1" d="M243.63,281.02c-4,3.63-8.28,6.93-12.77,9.93-3.12-4.61-6.08-9.31-8.91-14.1.86-.6,1.72-1.23,2.56-1.89,11.15-8.8,18.21-20.77,21.99-33.87-.11-.58-.24-1.16-.36-1.74-.28,1.04-.57,2.07-.9,3.1-4.09,12.89-12.21,24.94-23.08,33.06-.23.17-.47.33-.7.5-3.19-5.42-6.22-10.93-9.12-16.52,1.24-.91,2.43-1.94,3.52-3.14,5.48-6,7.78-14.23,8.7-22.41,7.05,1.98,14.25,3.55,21.46,4.88-.08-.35-.16-.71-.25-1.06-7.1-1.33-14.17-2.88-21.1-4.83.3-3.03.43-6.05.45-8.92.04-3.86-.13-7.74-.45-11.61,3.86-.15,7.72-.38,11.57-.66-.15-.32-.29-.65-.44-.97-3.73.27-7.47.49-11.21.64-.65-7.22-1.87-14.42-3.44-21.52,1.19-.43,2.38-.86,3.58-1.28-.16-.3-.32-.59-.48-.89-1.11.39-2.21.79-3.31,1.18-.99-4.38-2.11-8.71-3.32-12.98-.68-1.17-1.37-2.34-2.04-3.48,1.67,5.55,3.12,11.17,4.34,16.83-4.11,1.49-8.21,3.01-12.33,4.47-.74-3.81-1.64-7.58-2.77-11.33-.87-2.89-1.85-5.75-2.88-8.58,3.54-2.14,7.07-4.3,10.59-6.45-.17-.29-.35-.57-.52-.85-3.47,2.12-6.94,4.24-10.42,6.35-1.29-3.47-2.67-6.9-4.07-10.33,3.01-1.53,6-3.11,8.98-4.7-.18-.28-.37-.55-.55-.83-2.93,1.56-5.86,3.11-8.81,4.62-2-4.86-4.02-9.71-5.89-14.61-.04-.1-.1-.16-.16-.22.08,1.01.18,2.11.29,3.29,1.57,4.01,3.22,8,4.85,12-1.13.57-2.27,1.14-3.41,1.7.04.34.08.69.12,1.04,1.23-.6,2.45-1.21,3.66-1.82,1.41,3.46,2.79,6.92,4.08,10.42-2.09,1.26-4.19,2.51-6.29,3.76.04.36.09.72.13,1.09,2.17-1.29,4.35-2.58,6.51-3.89,1.59,4.35,3.04,8.75,4.22,13.25.56,2.12,1.03,4.27,1.44,6.42-3.25,1.14-6.5,2.25-9.79,3.27.04.34.09.67.13,1.01,3.31-1.03,6.59-2.14,9.85-3.29.79,4.33,1.35,8.71,1.8,13.09.12,1.15.22,2.3.3,3.46-3.43-.05-6.86-.17-10.28-.35.04.34.09.67.13,1.01,3.41.17,6.82.29,10.22.34.29,4.78.15,9.6-.92,14.28-.03.14-.08.27-.11.4-2.59-1.05-5.14-2.19-7.66-3.41.05.41.11.8.16,1.19,2.37,1.14,4.78,2.2,7.23,3.19-1.11,3.77-3.11,7.12-5.97,9.69-.76-1.64-1.51-3.29-2.27-4.94l-1.31-.47c.92,2.02,1.84,4.05,2.78,6.07-.82.67-1.68,1.3-2.63,1.84-1.4.81-2.9,1.38-4.45,1.8-.05-3.73,0-7.46.14-11.2l-.98-.36c-.16,3.94-.22,7.88-.16,11.81-2.95.65-6.05.73-9.04.47-.86-.07-1.71-.18-2.57-.31.84-5.09,1.8-10.15,2.87-15.19l-.95-.34c-1.08,5.1-2.06,10.22-2.91,15.37-4.09-.71-8.11-2.02-11.97-3.72,1.04-5.27,2.29-10.49,3.82-15.64l-.94-.34c-1.52,5.12-2.78,10.31-3.81,15.55-4.75-2.19-9.26-4.95-13.35-7.92-.72-.52-1.43-1.08-2.14-1.63l-.25,1.15c4.65,3.64,9.83,6.67,15.08,9.1.16.07.32.14.48.22-1.09,5.65-1.94,11.36-2.64,17.09-1.24-.51-2.46-1.04-3.67-1.59-3.61-1.62-7.31-3.5-10.82-5.71.59.68,1.3,1.48,2.12,2.39,2.29,1.31,4.63,2.5,6.93,3.6,1.74.83,3.52,1.6,5.31,2.33-.24,1.99-.46,3.99-.66,5.99.3.29.61.58.92.88.22-2.16.45-4.32.71-6.47,4,1.6,8.1,2.98,12.27,4.08-.46,4.28-.83,8.56-1.13,12.85.32.26.63.51.95.77.3-4.46.68-8.92,1.16-13.37,3.69.93,7.42,1.66,11.17,2.14,1.47.19,2.95.3,4.42.33.73,7.01,1.71,14,2.89,20.96-1.65.23-3.31.39-4.98.48.4.25.81.51,1.22.76,1.31-.09,2.61-.21,3.91-.39.17,1,.35,1.99.53,2.99.38.21.76.42,1.14.62-.23-1.25-.47-2.5-.68-3.75,8.03-1.22,15.79-4.07,22.83-8.82,2.83,4.78,5.79,9.48,8.9,14.08-1.39.91-2.79,1.8-4.22,2.65-2.09,1.25-4.24,2.54-6.46,3.72.5.11,1.01.21,1.51.3.6-.33,1.2-.66,1.79-1,2.7-1.53,5.34-3.15,7.92-4.86,1.46,2.14,2.97,4.26,4.5,6.36.37-.05.74-.11,1.11-.17-1.63-2.23-3.23-4.47-4.78-6.75,3.66-2.46,7.2-5.1,10.57-7.96.59-.5,1.17-1.01,1.74-1.52.2-.62.39-1.25.58-1.9-.23.21-.44.43-.67.64ZM209.03,202.61c-.35-2.64-.76-5.27-1.24-7.87,4.12-1.46,8.23-2.98,12.34-4.48,1.31,6.21,2.35,12.48,3.1,18.78.09.79.18,1.6.27,2.41-4.49.16-8.98.22-13.48.17-.22-3.02-.59-6.03-.98-9.01ZM210.07,220.63c.2-2.66.17-5.34,0-8.01,4.51.05,9.02-.02,13.52-.17.65,6.58.94,13.51.22,20.24-5.08-1.46-10.08-3.13-14.96-5.07.63-2.26,1.03-4.61,1.21-6.99ZM208.56,228.57c4.94,1.96,9.99,3.65,15.13,5.12-.72,5.92-2.23,11.66-4.99,16.85-1.77,3.34-4.12,5.97-6.86,7.99-3.34-6.48-6.53-13.04-9.61-19.65,3.01-2.72,5.07-6.33,6.33-10.31ZM177.79,260.88c-4.17-1.13-8.26-2.54-12.24-4.15.7-5.72,1.54-11.42,2.62-17.06,3.78,1.66,7.85,3.04,11.99,3.8-.94,5.78-1.73,11.58-2.37,17.41ZM192.09,263.47c-4.47-.38-8.93-1.19-13.32-2.33.64-5.85,1.44-11.69,2.38-17.5,3.93.63,7.92.68,11.79-.15.13,6.71.56,13.41,1.23,20.09-.69-.02-1.38-.06-2.08-.12ZM193.93,243.24c.26-.07.53-.12.79-.2,2.61-.76,4.83-1.96,6.72-3.48,3.07,6.58,6.24,13.11,9.57,19.56-4.54,3.05-10.06,4.46-15.84,4.46-.68-6.76-1.11-13.54-1.24-20.34ZM198.15,285.38c-1.17-6.91-2.15-13.84-2.87-20.79,5.81,0,11.47-1.31,16.24-4.5,2.9,5.58,5.94,11.1,9.12,16.52-6.74,4.65-14.46,7.53-22.49,8.78Z"/><path class="cls-15" d="M201.71,234.29c-.06,0-.11,0-.17-.03l-47.15-17.02c-.26-.09-.39-.38-.3-.64.09-.26.38-.39.64-.3l46.37,16.74c-.62-4.58-3.73-27.56-6.43-49.41-.03-.27.16-.52.43-.56.27-.04.52.16.56.43,3.01,24.28,6.5,49.96,6.54,50.21.02.17-.04.35-.18.46-.09.07-.2.11-.31.11Z"/><path class="cls-5" d="M208.73,87.49l-2.93-21.96s-27.27-16.65-38.62-31.85c0,0-22.88,9.33-36.05,9.7,0,0-16.84,18.12-13.91,41.18,2.93,23.06,24.59,46.93,65.07,45.39,9.6-.37,24.79-17.75,26.44-42.46Z"/><path class="cls-9" d="M147.7,68.83c-2.22-1.3-5.69-4.63-8.16-2-2.22,2.36.86,6.52,2.05,8.62.64,1.13,2.39.12,1.75-1.02-.93-1.63-2.79-3.91-2.45-5.9.36-2.08,5,1.59,5.78,2.06,1.13.66,2.15-1.09,1.02-1.75h0Z"/><path class="cls-13" d="M177.95,49.6c3.21,1.16,5.85,4.89,5.36,8.37-.18,1.28,1.77,1.83,1.95.54.65-4.64-2.42-9.29-6.78-10.86-1.23-.44-1.76,1.51-.54,1.95h0Z"/><path class="cls-13" d="M134.71,43.76c-2.8-.36-5.53,1.65-6.37,4.25-.4,1.25,1.55,1.77,1.95.54.59-1.83,2.53-3.01,4.42-2.77,1.29.17,1.28-1.86,0-2.02h0Z"/><path class="cls-13" d="M136.61,55.77c-.48,3.54-4.2,5.41-7.24,6.48-3.97,1.39-7.67.65-10.63-2.37-.91-.93-2.34.5-1.43,1.43,3.33,3.4,7.44,4.34,12,3.08,3.86-1.07,8.66-3.72,9.26-8.08.17-1.28-1.78-1.83-1.95-.54h0Z"/><path class="cls-18" d="M155.32,89.2c1.98,7.33-6.92,9.44-11.63,5.43-.99-.84-2.43.58-1.43,1.43,6.22,5.3,17.55,1.99,15.01-7.39-.34-1.26-2.29-.72-1.95.54h0Z"/><path class="cls-8" d="M174.68,83.19c0,3.17,2.57,5.73,5.73,5.73s5.73-2.57,5.73-5.73-2.57-5.74-5.73-5.74-5.73,2.57-5.73,5.74Z"/><path class="cls-8" d="M122.28,67.88c0-1.96-1.06-3.66-2.62-4.61-1.06,3.07-1.91,6.42-2.37,9.96,2.79-.21,5-2.51,5-5.36Z"/><path class="cls-13" d="M186.16,73.04c-.68-.33-1.4-.59-2.1-.87.7-.89,1.29-1.9,1.72-3.04.46-1.22-1.5-1.75-1.95-.54-2.12,5.65-8.63,7.15-14.03,6.08-7.03-1.4-11.78-8.43-10.96-15.42.15-1.29-1.87-1.28-2.02,0-.94,8.04,4.66,15.52,12.45,17.37,3.62.86,7.56.48,10.77-1.16.8,1.1,1.74,2.09,2.71,3.06.92.92,2.35-.51,1.43-1.43-.86-.86-1.7-1.72-2.42-2.69.29-.21.56-.43.83-.66.85.36,1.73.66,2.56,1.06,1.17.57,2.2-1.18,1.02-1.75Z"/><path class="cls-19" d="M213.16,91.73c-.66,0-1.23-.51-1.28-1.18l-5.38-67.73c-.06-.71.47-1.33,1.18-1.38.72-.06,1.33.47,1.38,1.18l5.38,67.73c.06.71-.47,1.33-1.18,1.38-.03,0-.07,0-.1,0Z"/><path class="cls-7" d="M177.52,20.5c-.57-4.01,6.94-8.4,16.78-9.79s18.26.74,18.83,4.75c.03.23.16,1.13.19,1.36.57,4.01-6.94,8.4-16.77,9.79-9.83,1.39-18.26-.74-18.83-4.75-.03-.23-.16-1.13-.19-1.36Z"/><path class="cls-19" d="M177.52,20.5c.57,4.01,9,6.14,18.83,4.75,9.83-1.39,17.34-5.77,16.78-9.79-.57-4.01-9-6.14-18.83-4.75s-17.34,5.77-16.78,9.79Z"/><path class="cls-12" d="M182.66,19.77c.38,2.69,6.36,4.07,13.36,3.08,7-.99,12.36-3.97,11.98-6.67-.38-2.69-6.36-4.07-13.36-3.08-7,.99-12.36,3.97-11.98,6.67Z"/><path class="cls-7" d="M136.04,14.92c-.57-4.02,6.94-8.4,16.78-9.79,9.83-1.39,18.26.74,18.83,4.75.03.23.16,1.13.19,1.36.57,4.02-6.94,8.4-16.78,9.79-9.83,1.39-18.26-.74-18.83-4.75-.03-.23-.16-1.13-.19-1.36Z"/><path class="cls-19" d="M136.04,14.92c.57,4.01,9,6.14,18.83,4.75,9.83-1.39,17.34-5.77,16.78-9.79-.57-4.01-9-6.14-18.83-4.75-9.83,1.39-17.34,5.77-16.78,9.79Z"/><path class="cls-12" d="M141.18,14.19c.38,2.69,6.36,4.07,13.36,3.08,7-.99,12.36-3.97,11.98-6.67s-6.36-4.07-13.36-3.08c-6.99.99-12.36,3.97-11.98,6.67Z"/><path class="cls-7" d="M180.26,17.08c-.47,0-.92-.26-1.14-.7-.08-.12-1.72-2.49-9.06-1.34-.7.11-1.36-.37-1.47-1.07-.11-.7.37-1.36,1.07-1.47,9.49-1.48,11.56,2.31,11.76,2.75.3.64.03,1.41-.62,1.71-.18.08-.36.12-.54.12Z"/><path class="cls-21" d="M207.99,16.19c-.18-1.26-1.59-2.22-3.74-2.8-7.09,1.48-14.15,3.14-21.2,4.81-.32.52-.47,1.05-.39,1.57.05.36.21.7.46,1.02,8.28-1.44,16.55-2.89,24.88-4.16.01-.15.02-.3,0-.44Z"/><path class="cls-21" d="M164.09,8.25c-7.65,1.97-15.25,4.09-22.86,6.17.25.94,1.2,1.71,2.65,2.25,7.44-2.24,14.84-4.64,22.26-6.95-.4-.58-1.11-1.08-2.05-1.47Z"/><path class="cls-5" d="M204.16,90.24s10.43-5.67,14.64,3.11c3.68,7.69-5.86,18.48-17.2,11.71l2.56-14.83Z"/><path class="cls-9" d="M215.99,96.11c-1.41-2.92-5.56-2.49-7.94-1.21-2.85,1.53-4.95,5.65-1.51,7.69,2.32,1.39,5.26-.87,4.4-3.4-.76-2.23-3.65-3.23-5.43-1.67-.49.43.23,1.14.72.71,1.12-.98,2.43-.38,3.32.56,2.72,2.87-4.51,4.89-3.8.33.54-3.45,7.56-6.28,9.38-2.51.28.59,1.16.07.87-.51h0Z"/><path class="cls-11" d="M207.2,107.78c-4.8-2.93-11.46-5.06-17.59-1.07-7.46,4.53-2.4,10.39,2.93,13.86-9.06-1.87-19.19.53-19.98,11.72-.53,11.19,9.59,7.19,15.72,4.8-5.06,5.6-2.66,11.99,5.06,11.99,6.13,0,12.52-4.26,14.39-10.39l-.53-30.91Z"/><path class="cls-13" d="M224.59,131.86c-2.5,3.84-8.33,1.04-11.18-.84-.17-.11-.34-.23-.51-.35.07-.19.13-.39.2-.57.64-1.88,1.81-5.44.02-7.07-1.47-1.33-4.26.24-4.97,1.72-.99,2.07.95,4.35,2.31,5.68.24.23.51.47.79.71-.75,1.97-1.71,3.88-2.9,5.62-1.66,2.43-5.02,3.7-7.89,3.21-4.15-.71-4.58-5.63-3.91-8.91.18-.87-1.16-1.24-1.34-.37-.77,3.73-.33,7.87,3.21,9.99,3.01,1.81,7.74.41,10.07-1.91,1.79-1.78,2.99-4.3,3.92-6.75,4.01,2.84,10.42,5.08,13.38.53.49-.75-.71-1.45-1.2-.7ZM209.47,126.79c-.73-1.82,2.39-3.92,3.02-2.29.59,1.53-.18,3.69-.73,5.27-.97-.84-1.83-1.84-2.28-2.98Z"/><path class="cls-13" d="M208.94,122.9c1.2-1.16,1.72-2.7,1.23-4.03,1.28-.64,2.39-1.57,2.93-2.82,2.59-5.98-6.87-8.96-10.94-6.58-.62.36-.15,1.38.47,1.01,3-1.75,8.65-.66,9.63,3.1.55,2.12-1,3.45-2.67,4.24-.02,0-.03.01-.05.02-.17-.18-.35-.36-.58-.52-1.27-.92-3.92-1.49-5.05-.06-1.5,1.9,1.57,2.74,2.79,2.61.81-.08,1.67-.28,2.51-.59.82,1.84-1.96,3.68-3.32,4.19-3.65,1.38-9.78.14-11.73-3.51-.34-.63-1.36-.17-1.01.47,2.65,4.98,11.75,6.38,15.79,2.46ZM205.6,118.79c-.76-.04-1.1-.94-.27-1.18.95-.27,2.2.04,3.06.68-.49.16-.99.3-1.5.41-.43.09-.86.11-1.29.09Z"/></g></g></svg>